<svg width="27" height="31" viewBox="0 0 27 31" fill="none" xmlns="http://www.w3.org/2000/svg">
<path d="M25.5386 27.7692C25.5386 28.3608 25.3035 28.9283 24.8852 29.3466C24.4667 29.7649 23.8994 30 23.3078 30H3.23077C2.63912 30 2.07173 29.7649 1.65337 29.3466C1.23503 28.9283 1 28.3608 1 27.7692V3.23077C1 2.63912 1.23503 2.07173 1.65337 1.65338C2.07173 1.23503 2.63912 1 3.23077 1H15.6914C16.283 1 16.8504 1.23503 17.2688 1.65338L24.8852 9.26971C25.3035 9.68804 25.5386 10.2555 25.5386 10.8471V27.7692Z" stroke="white" stroke-width="2" stroke-linecap="round" stroke-linejoin="round"/>
<path d="M14.5156 14.1057H20.0925" stroke="white" stroke-width="2" stroke-linecap="round" stroke-linejoin="round"/>
<path d="M14.5156 21.8438H20.0925" stroke="white" stroke-width="2" stroke-linecap="round" stroke-linejoin="round"/>
<path d="M5.89062 21.7173L7.75976 23.5864L10.875 19.2251" stroke="white" stroke-width="2" stroke-linecap="round" stroke-linejoin="round"/>
<path d="M5.89062 13.8401L7.75976 15.7092L10.875 11.3479" stroke="white" stroke-width="2" stroke-linecap="round" stroke-linejoin="round"/>
</svg>
