<svg width="1440" height="1541" viewBox="0 0 1440 1541" fill="none" xmlns="http://www.w3.org/2000/svg">
<g filter="url(#filter0_f_67_595)">
<path d="M192.242 27.3199C192.242 27.3199 259.996 95 222.851 122.111C176.522 155.925 57.0504 87.1219 57.0504 87.1219C57.0504 87.1219 -143.826 -51.8767 -161.106 -81.7309C-188.511 -129.075 -181.846 -171.553 -112.915 -181.332C-56.9517 -189.272 192.242 27.3199 192.242 27.3199Z" fill="#CCFE64"/>
<path d="M192.242 27.3199C192.242 27.3199 259.996 95 222.851 122.111C176.522 155.925 57.0504 87.1219 57.0504 87.1219C57.0504 87.1219 -143.826 -51.8767 -161.106 -81.7309C-188.511 -129.075 -181.846 -171.553 -112.915 -181.332C-56.9517 -189.272 192.242 27.3199 192.242 27.3199Z" stroke="url(#paint0_linear_67_595)" stroke-opacity="0.17" stroke-width="0.601554"/>
</g>
<path d="M1440 -18.0918H0V1540H1440V-18.0918Z" fill="url(#paint1_linear_67_595)"/>
<path d="M1440 -18.0918H1440.5V-18.5918H1440V-18.0918ZM0 -18.0918V-18.5918H-0.5V-18.0918H0ZM0 1540H-0.5V1540.5H0V1540ZM1440 1540V1540.5H1440.5V1540H1440ZM1440 -18.5918H0V-17.5918H1440V-18.5918ZM-0.5 -18.0918V1540H0.5V-18.0918H-0.5ZM0 1540.5H1440V1539.5H0V1540.5ZM1440.5 1540V-18.0918H1439.5V1540H1440.5Z" fill="url(#paint2_linear_67_595)" fill-opacity="0.17"/>
<g opacity="0.8" filter="url(#filter1_f_67_595)">
<path d="M600.362 90.4468C600.362 90.4468 364.906 100.731 348.703 152.06C328.493 216.08 629.33 242.78 629.33 242.78C629.33 242.78 1187.9 266.989 1276.44 253.195C1416.86 231.32 1504.87 188.742 1443.24 129.446C1393.2 81.3039 600.362 90.4468 600.362 90.4468Z" fill="#EF26D8"/>
<path d="M600.362 90.4468C600.362 90.4468 364.906 100.731 348.703 152.06C328.493 216.08 629.33 242.78 629.33 242.78C629.33 242.78 1187.9 266.989 1276.44 253.195C1416.86 231.32 1504.87 188.742 1443.24 129.446C1393.2 81.3039 600.362 90.4468 600.362 90.4468Z" stroke="url(#paint3_linear_67_595)" stroke-opacity="0.17" stroke-width="0.601554"/>
</g>
<g filter="url(#filter2_f_67_595)">
<path d="M146.722 212.487C305.236 197.17 393.008 203.286 504.517 209.155C676.224 218.193 794.587 254.089 569.149 295.794C363.604 333.819 328.499 269.576 104.745 294.01C25.1127 302.706 -20.6454 317.997 -96.3817 322.622C-191.928 328.456 -236.193 320.891 -247.485 305.857C-259.117 290.372 -223.119 273.475 -139.537 253.922C-49.5334 232.866 35.891 223.196 146.722 212.487Z" fill="#6562FB"/>
<path d="M146.722 212.487C305.236 197.17 393.008 203.286 504.517 209.155C676.224 218.193 794.587 254.089 569.149 295.794C363.604 333.819 328.499 269.576 104.745 294.01C25.1127 302.706 -20.6454 317.997 -96.3817 322.622C-191.928 328.456 -236.193 320.891 -247.485 305.857C-259.117 290.372 -223.119 273.475 -139.537 253.922C-49.5334 232.866 35.891 223.196 146.722 212.487Z" stroke="url(#paint4_linear_67_595)" stroke-opacity="0.17" stroke-width="0.666554"/>
</g>
<g opacity="0.6">
<path d="M287 966L287 1540" stroke="url(#paint5_linear_67_595)" stroke-opacity="0.17" stroke-width="1.18" stroke-miterlimit="10"/>
<path d="M205 966L205 1540" stroke="url(#paint6_linear_67_595)" stroke-opacity="0.17" stroke-width="1.18" stroke-miterlimit="10"/>
<path d="M123 966L123 1540" stroke="url(#paint7_linear_67_595)" stroke-opacity="0.17" stroke-width="1.18" stroke-miterlimit="10"/>
<path d="M42 966L42 1540" stroke="url(#paint8_linear_67_595)" stroke-opacity="0.17" stroke-width="1.18" stroke-miterlimit="10"/>
<path d="M614 966L614 1540" stroke="url(#paint9_linear_67_595)" stroke-opacity="0.17" stroke-width="1.18" stroke-miterlimit="10"/>
<path d="M532 966L532 1540" stroke="url(#paint10_linear_67_595)" stroke-opacity="0.17" stroke-width="1.18" stroke-miterlimit="10"/>
<path d="M451 966L451 1540" stroke="url(#paint11_linear_67_595)" stroke-opacity="0.17" stroke-width="1.18" stroke-miterlimit="10"/>
<path d="M369 966L369 1540" stroke="url(#paint12_linear_67_595)" stroke-opacity="0.17" stroke-width="1.18" stroke-miterlimit="10"/>
<path d="M0 1090.89L859 1090.89" stroke="url(#paint13_linear_67_595)" stroke-opacity="0.17" stroke-width="1.18" stroke-miterlimit="10"/>
<path d="M0 1008.89L859 1008.89" stroke="url(#paint14_linear_67_595)" stroke-opacity="0.17" stroke-width="1.18" stroke-miterlimit="10"/>
<path d="M0 1171.89L859 1171.89" stroke="url(#paint15_linear_67_595)" stroke-opacity="0.17" stroke-width="1.18" stroke-miterlimit="10"/>
<path d="M0 1253.89L859 1253.89" stroke="url(#paint16_linear_67_595)" stroke-opacity="0.17" stroke-width="1.18" stroke-miterlimit="10"/>
<path d="M0 1335.89L859 1335.89" stroke="url(#paint17_linear_67_595)" stroke-opacity="0.17" stroke-width="1.18" stroke-miterlimit="10"/>
<path d="M0 1498.89L859 1498.89" stroke="url(#paint18_linear_67_595)" stroke-opacity="0.17" stroke-width="1.18" stroke-miterlimit="10"/>
<path d="M0 1049.89L859 1049.89" stroke="url(#paint19_linear_67_595)" stroke-opacity="0.17" stroke-width="1.18" stroke-miterlimit="10"/>
<path d="M0 1131.89L859 1131.89" stroke="url(#paint20_linear_67_595)" stroke-opacity="0.17" stroke-width="1.18" stroke-miterlimit="10"/>
<path d="M0 1212.89L859 1212.89" stroke="url(#paint21_linear_67_595)" stroke-opacity="0.17" stroke-width="1.18" stroke-miterlimit="10"/>
<path d="M0 1294.89L859 1294.89" stroke="url(#paint22_linear_67_595)" stroke-opacity="0.17" stroke-width="1.18" stroke-miterlimit="10"/>
<path d="M0 1376.89L859 1376.89" stroke="url(#paint23_linear_67_595)" stroke-opacity="0.17" stroke-width="1.18" stroke-miterlimit="10"/>
<path d="M0 1457.89L859 1457.89" stroke="url(#paint24_linear_67_595)" stroke-opacity="0.17" stroke-width="1.18" stroke-miterlimit="10"/>
<path d="M0 1539.89L859 1539.89" stroke="url(#paint25_linear_67_595)" stroke-opacity="0.17" stroke-width="1.18" stroke-miterlimit="10"/>
<path d="M246 966L246 1540" stroke="url(#paint26_linear_67_595)" stroke-opacity="0.17" stroke-width="1.18" stroke-miterlimit="10"/>
<path d="M164 966L164 1540" stroke="url(#paint27_linear_67_595)" stroke-opacity="0.17" stroke-width="1.18" stroke-miterlimit="10"/>
<path d="M83 966L83 1540" stroke="url(#paint28_linear_67_595)" stroke-opacity="0.17" stroke-width="1.18" stroke-miterlimit="10"/>
<path d="M655 966L655 1540" stroke="url(#paint29_linear_67_595)" stroke-opacity="0.17" stroke-width="1.18" stroke-miterlimit="10"/>
<path d="M0 1416.89L859 1416.89" stroke="url(#paint30_linear_67_595)" stroke-opacity="0.17" stroke-width="1.18" stroke-miterlimit="10"/>
<path d="M573 966L573 1540" stroke="url(#paint31_linear_67_595)" stroke-opacity="0.17" stroke-width="1.18" stroke-miterlimit="10"/>
<path d="M491 966L491 1540" stroke="url(#paint32_linear_67_595)" stroke-opacity="0.17" stroke-width="1.18" stroke-miterlimit="10"/>
<path d="M819 961L819 1535" stroke="url(#paint33_linear_67_595)" stroke-opacity="0.17" stroke-width="1.18" stroke-miterlimit="10"/>
<path d="M737 961L737 1535" stroke="url(#paint34_linear_67_595)" stroke-opacity="0.17" stroke-width="1.18" stroke-miterlimit="10"/>
<path d="M859 961L859 1535" stroke="url(#paint35_linear_67_595)" stroke-opacity="0.17" stroke-width="1.18" stroke-miterlimit="10"/>
<path d="M778 961L778 1535" stroke="url(#paint36_linear_67_595)" stroke-opacity="0.17" stroke-width="1.18" stroke-miterlimit="10"/>
<path d="M696 961L696 1535" stroke="url(#paint37_linear_67_595)" stroke-opacity="0.17" stroke-width="1.18" stroke-miterlimit="10"/>
<path d="M410 966L410 1540" stroke="url(#paint38_linear_67_595)" stroke-opacity="0.17" stroke-width="1.18" stroke-miterlimit="10"/>
<path d="M328 966L328 1540" stroke="url(#paint39_linear_67_595)" stroke-opacity="0.17" stroke-width="1.18" stroke-miterlimit="10"/>
</g>
<defs>
<filter id="filter0_f_67_595" x="-567.487" y="-572.829" width="1192.8" height="1095.57" filterUnits="userSpaceOnUse" color-interpolation-filters="sRGB">
<feFlood flood-opacity="0" result="BackgroundImageFix"/>
<feBlend mode="normal" in="SourceGraphic" in2="BackgroundImageFix" result="shape"/>
<feGaussianBlur stdDeviation="195.505" result="effect1_foregroundBlur_67_595"/>
</filter>
<filter id="filter1_f_67_595" x="-43.6518" y="-301.467" width="1898.25" height="950.131" filterUnits="userSpaceOnUse" color-interpolation-filters="sRGB">
<feFlood flood-opacity="0" result="BackgroundImageFix"/>
<feBlend mode="normal" in="SourceGraphic" in2="BackgroundImageFix" result="shape"/>
<feGaussianBlur stdDeviation="195.505" result="effect1_foregroundBlur_67_595"/>
</filter>
<filter id="filter2_f_67_595" x="-672.231" y="-219.726" width="1788.12" height="966.889" filterUnits="userSpaceOnUse" color-interpolation-filters="sRGB">
<feFlood flood-opacity="0" result="BackgroundImageFix"/>
<feBlend mode="normal" in="SourceGraphic" in2="BackgroundImageFix" result="shape"/>
<feGaussianBlur stdDeviation="211.13" result="effect1_foregroundBlur_67_595"/>
</filter>
<linearGradient id="paint0_linear_67_595" x1="-214.358" y1="-60.7444" x2="214.613" y2="146.808" gradientUnits="userSpaceOnUse">
<stop stop-color="#FF12DC"/>
<stop offset="1" stop-color="#4E47FF"/>
</linearGradient>
<linearGradient id="paint1_linear_67_595" x1="1009.76" y1="136.861" x2="2239.12" y2="1838.47" gradientUnits="userSpaceOnUse">
<stop stop-color="#070D2A"/>
<stop offset="1" stop-color="#25237C"/>
</linearGradient>
<linearGradient id="paint2_linear_67_595" x1="1440" y1="760.954" x2="0" y2="760.954" gradientUnits="userSpaceOnUse">
<stop stop-color="#FF12DC"/>
<stop offset="1" stop-color="#4E47FF"/>
</linearGradient>
<linearGradient id="paint3_linear_67_595" x1="1293.67" y1="310.92" x2="879.25" y2="-247.644" gradientUnits="userSpaceOnUse">
<stop stop-color="#FF12DC"/>
<stop offset="1" stop-color="#4E47FF"/>
</linearGradient>
<linearGradient id="paint4_linear_67_595" x1="678.164" y1="213.622" x2="-138.351" y2="562.323" gradientUnits="userSpaceOnUse">
<stop stop-color="#FF12DC"/>
<stop offset="1" stop-color="#4E47FF"/>
</linearGradient>
<linearGradient id="paint5_linear_67_595" x1="288" y1="1253" x2="287" y2="1253" gradientUnits="userSpaceOnUse">
<stop stop-color="#FF12DC"/>
<stop offset="1" stop-color="#4E47FF"/>
</linearGradient>
<linearGradient id="paint6_linear_67_595" x1="206" y1="1253" x2="205" y2="1253" gradientUnits="userSpaceOnUse">
<stop stop-color="#FF12DC"/>
<stop offset="1" stop-color="#4E47FF"/>
</linearGradient>
<linearGradient id="paint7_linear_67_595" x1="124" y1="1253" x2="123" y2="1253" gradientUnits="userSpaceOnUse">
<stop stop-color="#FF12DC"/>
<stop offset="1" stop-color="#4E47FF"/>
</linearGradient>
<linearGradient id="paint8_linear_67_595" x1="43" y1="1253" x2="42" y2="1253" gradientUnits="userSpaceOnUse">
<stop stop-color="#FF12DC"/>
<stop offset="1" stop-color="#4E47FF"/>
</linearGradient>
<linearGradient id="paint9_linear_67_595" x1="615" y1="1253" x2="614" y2="1253" gradientUnits="userSpaceOnUse">
<stop stop-color="#FF12DC"/>
<stop offset="1" stop-color="#4E47FF"/>
</linearGradient>
<linearGradient id="paint10_linear_67_595" x1="533" y1="1253" x2="532" y2="1253" gradientUnits="userSpaceOnUse">
<stop stop-color="#FF12DC"/>
<stop offset="1" stop-color="#4E47FF"/>
</linearGradient>
<linearGradient id="paint11_linear_67_595" x1="452" y1="1253" x2="451" y2="1253" gradientUnits="userSpaceOnUse">
<stop stop-color="#FF12DC"/>
<stop offset="1" stop-color="#4E47FF"/>
</linearGradient>
<linearGradient id="paint12_linear_67_595" x1="370" y1="1253" x2="369" y2="1253" gradientUnits="userSpaceOnUse">
<stop stop-color="#FF12DC"/>
<stop offset="1" stop-color="#4E47FF"/>
</linearGradient>
<linearGradient id="paint13_linear_67_595" x1="859" y1="1091.39" x2="0" y2="1091.39" gradientUnits="userSpaceOnUse">
<stop stop-color="#FF12DC"/>
<stop offset="1" stop-color="#4E47FF"/>
</linearGradient>
<linearGradient id="paint14_linear_67_595" x1="859" y1="1009.39" x2="0" y2="1009.39" gradientUnits="userSpaceOnUse">
<stop stop-color="#FF12DC"/>
<stop offset="1" stop-color="#4E47FF"/>
</linearGradient>
<linearGradient id="paint15_linear_67_595" x1="859" y1="1172.39" x2="0" y2="1172.39" gradientUnits="userSpaceOnUse">
<stop stop-color="#FF12DC"/>
<stop offset="1" stop-color="#4E47FF"/>
</linearGradient>
<linearGradient id="paint16_linear_67_595" x1="859" y1="1254.39" x2="0" y2="1254.39" gradientUnits="userSpaceOnUse">
<stop stop-color="#FF12DC"/>
<stop offset="1" stop-color="#4E47FF"/>
</linearGradient>
<linearGradient id="paint17_linear_67_595" x1="859" y1="1336.39" x2="0" y2="1336.39" gradientUnits="userSpaceOnUse">
<stop stop-color="#FF12DC"/>
<stop offset="1" stop-color="#4E47FF"/>
</linearGradient>
<linearGradient id="paint18_linear_67_595" x1="859" y1="1499.39" x2="0" y2="1499.39" gradientUnits="userSpaceOnUse">
<stop stop-color="#FF12DC"/>
<stop offset="1" stop-color="#4E47FF"/>
</linearGradient>
<linearGradient id="paint19_linear_67_595" x1="859" y1="1050.39" x2="0" y2="1050.39" gradientUnits="userSpaceOnUse">
<stop stop-color="#FF12DC"/>
<stop offset="1" stop-color="#4E47FF"/>
</linearGradient>
<linearGradient id="paint20_linear_67_595" x1="859" y1="1132.39" x2="0" y2="1132.39" gradientUnits="userSpaceOnUse">
<stop stop-color="#FF12DC"/>
<stop offset="1" stop-color="#4E47FF"/>
</linearGradient>
<linearGradient id="paint21_linear_67_595" x1="859" y1="1213.39" x2="0" y2="1213.39" gradientUnits="userSpaceOnUse">
<stop stop-color="#FF12DC"/>
<stop offset="1" stop-color="#4E47FF"/>
</linearGradient>
<linearGradient id="paint22_linear_67_595" x1="859" y1="1295.39" x2="0" y2="1295.39" gradientUnits="userSpaceOnUse">
<stop stop-color="#FF12DC"/>
<stop offset="1" stop-color="#4E47FF"/>
</linearGradient>
<linearGradient id="paint23_linear_67_595" x1="859" y1="1377.39" x2="0" y2="1377.39" gradientUnits="userSpaceOnUse">
<stop stop-color="#FF12DC"/>
<stop offset="1" stop-color="#4E47FF"/>
</linearGradient>
<linearGradient id="paint24_linear_67_595" x1="859" y1="1458.39" x2="0" y2="1458.39" gradientUnits="userSpaceOnUse">
<stop stop-color="#FF12DC"/>
<stop offset="1" stop-color="#4E47FF"/>
</linearGradient>
<linearGradient id="paint25_linear_67_595" x1="859" y1="1540.39" x2="0" y2="1540.39" gradientUnits="userSpaceOnUse">
<stop stop-color="#FF12DC"/>
<stop offset="1" stop-color="#4E47FF"/>
</linearGradient>
<linearGradient id="paint26_linear_67_595" x1="247" y1="1253" x2="246" y2="1253" gradientUnits="userSpaceOnUse">
<stop stop-color="#FF12DC"/>
<stop offset="1" stop-color="#4E47FF"/>
</linearGradient>
<linearGradient id="paint27_linear_67_595" x1="165" y1="1253" x2="164" y2="1253" gradientUnits="userSpaceOnUse">
<stop stop-color="#FF12DC"/>
<stop offset="1" stop-color="#4E47FF"/>
</linearGradient>
<linearGradient id="paint28_linear_67_595" x1="84" y1="1253" x2="83" y2="1253" gradientUnits="userSpaceOnUse">
<stop stop-color="#FF12DC"/>
<stop offset="1" stop-color="#4E47FF"/>
</linearGradient>
<linearGradient id="paint29_linear_67_595" x1="656" y1="1253" x2="655" y2="1253" gradientUnits="userSpaceOnUse">
<stop stop-color="#FF12DC"/>
<stop offset="1" stop-color="#4E47FF"/>
</linearGradient>
<linearGradient id="paint30_linear_67_595" x1="859" y1="1417.39" x2="0" y2="1417.39" gradientUnits="userSpaceOnUse">
<stop stop-color="#FF12DC"/>
<stop offset="1" stop-color="#4E47FF"/>
</linearGradient>
<linearGradient id="paint31_linear_67_595" x1="574" y1="1253" x2="573" y2="1253" gradientUnits="userSpaceOnUse">
<stop stop-color="#FF12DC"/>
<stop offset="1" stop-color="#4E47FF"/>
</linearGradient>
<linearGradient id="paint32_linear_67_595" x1="492" y1="1253" x2="491" y2="1253" gradientUnits="userSpaceOnUse">
<stop stop-color="#FF12DC"/>
<stop offset="1" stop-color="#4E47FF"/>
</linearGradient>
<linearGradient id="paint33_linear_67_595" x1="820" y1="1248" x2="819" y2="1248" gradientUnits="userSpaceOnUse">
<stop stop-color="#FF12DC"/>
<stop offset="1" stop-color="#4E47FF"/>
</linearGradient>
<linearGradient id="paint34_linear_67_595" x1="738" y1="1248" x2="737" y2="1248" gradientUnits="userSpaceOnUse">
<stop stop-color="#FF12DC"/>
<stop offset="1" stop-color="#4E47FF"/>
</linearGradient>
<linearGradient id="paint35_linear_67_595" x1="860" y1="1248" x2="859" y2="1248" gradientUnits="userSpaceOnUse">
<stop stop-color="#FF12DC"/>
<stop offset="1" stop-color="#4E47FF"/>
</linearGradient>
<linearGradient id="paint36_linear_67_595" x1="779" y1="1248" x2="778" y2="1248" gradientUnits="userSpaceOnUse">
<stop stop-color="#FF12DC"/>
<stop offset="1" stop-color="#4E47FF"/>
</linearGradient>
<linearGradient id="paint37_linear_67_595" x1="697" y1="1248" x2="696" y2="1248" gradientUnits="userSpaceOnUse">
<stop stop-color="#FF12DC"/>
<stop offset="1" stop-color="#4E47FF"/>
</linearGradient>
<linearGradient id="paint38_linear_67_595" x1="411" y1="1253" x2="410" y2="1253" gradientUnits="userSpaceOnUse">
<stop stop-color="#FF12DC"/>
<stop offset="1" stop-color="#4E47FF"/>
</linearGradient>
<linearGradient id="paint39_linear_67_595" x1="329" y1="1253" x2="328" y2="1253" gradientUnits="userSpaceOnUse">
<stop stop-color="#FF12DC"/>
<stop offset="1" stop-color="#4E47FF"/>
</linearGradient>
</defs>
</svg>
