<svg width="1440" height="1724" viewBox="0 0 1440 1724" fill="none" xmlns="http://www.w3.org/2000/svg">
<g filter="url(#filter0_f_1099_4831)">
<path d="M192.241 50.2471C192.241 50.2471 259.996 125.134 222.851 155.131C176.521 192.546 57.0496 116.417 57.0496 116.417C57.0496 116.417 -143.826 -37.3826 -161.107 -70.4156C-188.511 -122.801 -181.847 -169.802 -112.916 -180.622C-56.9525 -189.407 192.241 50.2471 192.241 50.2471Z" fill="#CCFE64"/>
</g>
<path d="M1440 0H0V1724H1440V0Z" fill="url(#paint0_linear_1099_4831)"/>
<g opacity="0.8" filter="url(#filter1_f_1099_4831)">
<path d="M600.361 120.096C600.361 120.096 364.905 131.475 348.702 188.269C328.492 259.107 629.329 288.65 629.329 288.65C629.329 288.65 1187.9 315.437 1276.44 300.174C1416.86 275.97 1504.87 228.858 1443.24 163.248C1393.2 109.98 600.361 120.096 600.361 120.096Z" fill="#EF26D8"/>
</g>
<g filter="url(#filter2_f_1099_4831)">
<path d="M146.723 255.131C305.237 238.183 393.01 244.951 504.518 251.445C676.225 261.444 794.588 301.163 569.15 347.309C363.605 389.382 328.5 318.299 104.746 345.334C25.114 354.956 -20.6442 371.876 -96.3805 376.993C-191.927 383.449 -236.192 375.078 -247.484 358.444C-259.115 341.309 -223.117 322.614 -139.536 300.978C-49.5321 277.68 35.8922 266.981 146.723 255.131Z" fill="#6562FB"/>
</g>
<defs>
<filter id="filter0_f_1099_4831" x="-567.163" y="-571.869" width="1192.15" height="1128.35" filterUnits="userSpaceOnUse" color-interpolation-filters="sRGB">
<feFlood flood-opacity="0" result="BackgroundImageFix"/>
<feBlend mode="normal" in="SourceGraphic" in2="BackgroundImageFix" result="shape"/>
<feGaussianBlur stdDeviation="195.505" result="effect1_foregroundBlur_1099_4831"/>
</filter>
<filter id="filter1_f_1099_4831" x="-43.2826" y="-271.681" width="1897.51" height="967.566" filterUnits="userSpaceOnUse" color-interpolation-filters="sRGB">
<feFlood flood-opacity="0" result="BackgroundImageFix"/>
<feBlend mode="normal" in="SourceGraphic" in2="BackgroundImageFix" result="shape"/>
<feGaussianBlur stdDeviation="195.505" result="effect1_foregroundBlur_1099_4831"/>
</filter>
<filter id="filter2_f_1099_4831" x="-671.875" y="-177.8" width="1787.41" height="979.235" filterUnits="userSpaceOnUse" color-interpolation-filters="sRGB">
<feFlood flood-opacity="0" result="BackgroundImageFix"/>
<feBlend mode="normal" in="SourceGraphic" in2="BackgroundImageFix" result="shape"/>
<feGaussianBlur stdDeviation="211.13" result="effect1_foregroundBlur_1099_4831"/>
</filter>
<linearGradient id="paint0_linear_1099_4831" x1="1009.76" y1="171.452" x2="2407.36" y2="1919.76" gradientUnits="userSpaceOnUse">
<stop stop-color="#070D2A"/>
<stop offset="1" stop-color="#25237C"/>
</linearGradient>
</defs>
</svg>
