<svg width="1440" height="2418" viewBox="0 0 1440 2418" fill="none" xmlns="http://www.w3.org/2000/svg">
<g filter="url(#filter0_f_69_1019)">
<path d="M192.241 50.2331C192.241 50.2331 259.996 125.098 222.851 155.087C176.521 192.491 57.0496 116.384 57.0496 116.384C57.0496 116.384 -143.826 -37.3713 -161.107 -70.3949C-188.511 -122.765 -181.847 -169.752 -112.916 -180.57C-56.9525 -189.352 192.241 50.2331 192.241 50.2331Z" fill="#CCFE64"/>
</g>
<path d="M1440 0H0V1647.53H1440V0Z" fill="url(#paint0_linear_69_1019)"/>
<g opacity="0.8" filter="url(#filter1_f_69_1019)">
<path d="M600.361 120.062C600.361 120.062 364.905 131.438 348.702 188.216C328.492 259.033 629.329 288.568 629.329 288.568C629.329 288.568 1187.9 315.347 1276.44 300.088C1416.86 275.891 1504.87 228.793 1443.24 163.201C1393.2 109.948 600.361 120.062 600.361 120.062Z" fill="#EF26D8"/>
</g>
<g filter="url(#filter2_f_69_1019)">
<path d="M146.723 255.058C305.237 238.115 393.01 244.881 504.518 251.373C676.225 261.37 794.588 301.077 569.15 347.209C363.605 389.271 328.5 318.208 104.746 345.236C25.114 354.855 -20.6442 371.77 -96.3805 376.886C-191.927 383.339 -236.192 374.971 -247.484 358.341C-259.115 341.212 -223.117 322.522 -139.536 300.892C-49.5321 277.601 35.8922 266.905 146.723 255.058Z" fill="#6562FB"/>
</g>
<g opacity="0.8" filter="url(#filter3_f_69_1019)">
<path d="M1682.87 1733.87C1527.6 1842.5 1833.07 1900.19 1797.16 1993.05C1752.37 2108.87 1615.63 1884.54 1524.06 1960.43C1432.48 2036.33 968.984 1579.46 1075.9 1565.52C1182.81 1551.58 884.095 1359.32 1075.9 1260.39C1267.7 1161.46 1838.13 1625.23 1682.87 1733.87Z" fill="#4E47FF"/>
</g>
<defs>
<filter id="filter0_f_69_1019" x="-567.163" y="-571.816" width="1192.15" height="1128.25" filterUnits="userSpaceOnUse" color-interpolation-filters="sRGB">
<feFlood flood-opacity="0" result="BackgroundImageFix"/>
<feBlend mode="normal" in="SourceGraphic" in2="BackgroundImageFix" result="shape"/>
<feGaussianBlur stdDeviation="195.505" result="effect1_foregroundBlur_69_1019"/>
</filter>
<filter id="filter1_f_69_1019" x="-43.2826" y="-271.715" width="1897.51" height="967.513" filterUnits="userSpaceOnUse" color-interpolation-filters="sRGB">
<feFlood flood-opacity="0" result="BackgroundImageFix"/>
<feBlend mode="normal" in="SourceGraphic" in2="BackgroundImageFix" result="shape"/>
<feGaussianBlur stdDeviation="195.505" result="effect1_foregroundBlur_69_1019"/>
</filter>
<filter id="filter2_f_69_1019" x="-671.875" y="-177.869" width="1787.41" height="979.196" filterUnits="userSpaceOnUse" color-interpolation-filters="sRGB">
<feFlood flood-opacity="0" result="BackgroundImageFix"/>
<feBlend mode="normal" in="SourceGraphic" in2="BackgroundImageFix" result="shape"/>
<feGaussianBlur stdDeviation="211.13" result="effect1_foregroundBlur_69_1019"/>
</filter>
<filter id="filter3_f_69_1019" x="618.988" y="855.632" width="1572.15" height="1562.33" filterUnits="userSpaceOnUse" color-interpolation-filters="sRGB">
<feFlood flood-opacity="0" result="BackgroundImageFix"/>
<feBlend mode="normal" in="SourceGraphic" in2="BackgroundImageFix" result="shape"/>
<feGaussianBlur stdDeviation="195.505" result="effect1_foregroundBlur_69_1019"/>
</filter>
<linearGradient id="paint0_linear_69_1019" x1="1009.76" y1="163.847" x2="2330.8" y2="1893.09" gradientUnits="userSpaceOnUse">
<stop stop-color="#070D2A"/>
<stop offset="1" stop-color="#25237C"/>
</linearGradient>
</defs>
</svg>
