<svg width="1440" height="427" viewBox="0 0 1440 427" fill="none" xmlns="http://www.w3.org/2000/svg">
<path d="M891.181 7.68896C906.666 1.98389 922.544 -0.202283 937.791 1.1097L937.816 1.11807L937.876 1.12327C948.709 2.06202 959.228 4.76396 969.073 9.22749C1001.63 23.9819 1022.95 54.2233 1029.04 94.4421L1029.53 94.3707L1029.04 94.4422C1033.94 126.772 1028.69 163.721 1014.61 195.798C998.121 233.374 973.339 266.767 940.853 295.215L940.438 295.579L940.845 295.958C953.84 308.054 967.972 319.101 983.08 328.954C1006.45 344.194 1031.6 356.215 1057.81 364.673L1057.96 364.197L1057.81 364.673C1084.53 373.294 1111.8 378.028 1138.86 378.738C1165.93 379.45 1193.32 376.154 1220.3 368.943L1220.17 368.459L1220.3 368.943C1246.76 361.868 1272.26 351.181 1296.09 337.181C1319.93 323.182 1341.52 306.205 1360.25 286.735C1379.35 266.884 1395.07 244.855 1406.99 221.245L1406.54 221.017L1406.99 221.245L1417.68 200.064L1461.3 221.438L1450.62 242.604L1451.07 242.832L1450.62 242.604C1436.61 270.358 1418.18 296.201 1395.84 319.42C1374.11 342.008 1349.09 361.682 1321.5 377.895C1293.9 394.107 1264.34 406.487 1233.64 414.695L1233.77 415.178L1233.64 414.695C1202.09 423.134 1169.95 426.988 1138.13 426.152C1106.31 425.315 1074.32 419.776 1043.05 409.687C1012.64 399.87 983.492 385.947 956.425 368.299C936.78 355.492 918.555 340.93 902.001 324.84L901.716 324.563L901.383 324.776C873.542 342.532 842.471 356.641 809.919 366.187C765.135 379.319 717.628 383.782 672.621 379.111C624.228 374.084 579.948 359.131 541.004 334.674C497.335 307.253 459.644 269.811 423.148 233.555C392.739 203.346 363.135 173.938 331.605 151.755C300.067 129.566 266.57 114.583 228.364 113.249C198.157 112.2 166.67 120.949 137.302 138.533C109.521 155.172 84.4105 178.959 64.688 207.324C24.9137 264.533 5.93409 334.303 -12.3935 401.677L-12.4127 401.747L-18.6276 424.605L-65.584 411.927L-59.3713 389.079C-40.884 321.105 -19.9465 244.161 24.3938 180.377C47.9004 146.571 78.042 118.092 111.55 98.0264C149.019 75.5899 189.815 64.4688 229.525 65.8483C233.213 65.9754 236.869 66.1989 240.479 66.5118C330.548 74.317 395.014 138.338 457.596 200.504L457.645 200.553C492.169 234.848 527.919 270.361 566.939 294.87C599.377 315.246 636.477 327.718 677.191 331.945C715.89 335.953 756.759 332.085 795.438 320.745C821.425 313.125 846.277 302.17 868.807 288.506L869.283 288.218L868.941 287.774C854.089 268.464 841.588 247.872 831.654 226.324C819.977 200.976 812.747 175.863 810.154 151.678C807.062 122.787 810.761 96.1936 821.124 72.6272C833.976 43.4078 860.168 19.1239 891.181 7.68896ZM908.512 259.466C935.627 235.639 956.26 207.839 969.926 176.702C980.423 152.775 984.565 124.426 980.99 100.852C978.462 84.1829 970.884 62.0981 949.047 52.2042C934.011 45.3899 918.855 48.3979 908.828 52.0936C890.017 59.0293 873.536 74.2269 865.822 91.7745C856.648 112.632 856.281 135.221 859.648 155.724C863.016 176.229 870.123 194.682 875.937 207.298C884.361 225.583 894.988 243.085 907.634 259.531L908.425 260.56L908.512 259.466Z" stroke="#4E47FF" stroke-opacity="0.6"/>
</svg>
