<svg width="1440" height="438" viewBox="0 0 1440 438" fill="none" xmlns="http://www.w3.org/2000/svg">
<path d="M-169.577 109.932L-134.323 164.246L-108.382 145.814C-92.9991 134.882 -66.2566 122.963 -26.1362 128.141C4.23535 132.057 36.0817 145.065 63.5404 164.758C102.819 192.924 134.937 230.699 168.919 270.667L168.952 270.705C183.808 288.176 199.17 306.242 215.207 323.465C246.357 356.922 277.932 383.347 309.059 402.016C348.438 425.634 388.261 437.626 427.439 437.689L427.439 437.674L427.749 437.674L427.75 437.674L427.752 437.674L427.753 437.674L427.755 437.674L427.756 437.674L427.757 437.674L427.759 437.674L427.76 437.674L427.762 437.674L427.763 437.674L427.764 437.674L427.766 437.674L427.767 437.674L427.769 437.674L427.77 437.674L427.771 437.674L427.773 437.674L427.774 437.674L427.776 437.674L427.777 437.674L427.778 437.674L427.78 437.674L427.781 437.674L427.782 437.674L427.784 437.674L427.785 437.674L427.787 437.674L427.788 437.674L427.789 437.674L427.791 437.674L427.792 437.674L427.794 437.674L427.795 437.674L427.796 437.674L427.798 437.674L427.799 437.674L427.801 437.674L427.802 437.674L427.803 437.674L427.805 437.674L427.806 437.674L427.807 437.674L427.809 437.674L427.81 437.674L427.812 437.674L427.813 437.674L427.814 437.674L427.816 437.674L427.817 437.674L427.819 437.674L427.82 437.674L427.821 437.674L427.823 437.674L427.824 437.674L427.826 437.674L427.827 437.674L427.828 437.674L427.83 437.674L427.831 437.674L427.832 437.674L427.834 437.674L427.835 437.674L427.837 437.674L427.838 437.674L427.839 437.674L427.841 437.674L427.842 437.674L427.844 437.674L427.845 437.674L427.846 437.674L427.848 437.674L427.849 437.674L427.85 437.674L427.852 437.674L427.853 437.674L427.854 437.674L427.856 437.674L427.857 437.674L427.859 437.674L427.86 437.674L427.861 437.674L427.863 437.674L427.864 437.674L427.866 437.674L427.867 437.674L427.868 437.674L427.87 437.674L427.871 437.674L427.873 437.674L427.874 437.674L427.875 437.674L427.877 437.674L427.878 437.674L427.879 437.674L427.881 437.674L427.882 437.674L427.884 437.674L427.885 437.674L427.886 437.674L427.888 437.674L427.889 437.674L427.89 437.674L427.892 437.674L427.893 437.674L427.895 437.674L427.896 437.674L427.897 437.674L427.899 437.674L427.9 437.674L427.901 437.674L427.903 437.674L427.904 437.674L427.906 437.674L427.907 437.674L427.908 437.674L427.91 437.674L427.911 437.674L427.912 437.674L427.914 437.674L427.915 437.674L427.917 437.674L427.918 437.674L427.919 437.674L427.921 437.674L427.922 437.674L427.923 437.674L427.925 437.674L427.926 437.674L427.928 437.674L427.929 437.674L427.93 437.674L427.932 437.674L427.933 437.674L427.935 437.674L427.936 437.674L427.937 437.674L427.939 437.674L427.94 437.674L427.941 437.674L427.943 437.674L427.944 437.674L427.946 437.674L427.947 437.674L427.948 437.674L427.95 437.674L427.951 437.674L427.952 437.674L427.954 437.674L427.955 437.674L427.957 437.674L427.958 437.674L427.959 437.674L427.961 437.674L427.962 437.674L427.963 437.674L427.965 437.674L427.966 437.674L427.968 437.674L427.969 437.674L427.97 437.674L427.972 437.674L427.973 437.674L427.974 437.674L427.976 437.674L427.977 437.674L427.979 437.674L427.98 437.674L427.981 437.674L427.983 437.674L427.984 437.674L427.985 437.674L427.987 437.674L427.988 437.674L427.99 437.674L427.991 437.674L427.992 437.674L427.994 437.674L427.995 437.674L427.996 437.674L427.998 437.674L427.999 437.674L428 437.674L428.002 437.674L428.003 437.674L428.005 437.674L428.006 437.674L428.007 437.674L428.009 437.674L428.01 437.674L428.011 437.674L428.013 437.674L428.014 437.674L428.016 437.674L428.017 437.674L428.018 437.674L428.02 437.674L428.021 437.674L428.022 437.674L428.024 437.674L428.025 437.674L428.027 437.674L428.028 437.674L428.029 437.674L428.031 437.674L428.032 437.674L428.033 437.674L428.035 437.674L428.036 437.674L428.037 437.674L428.039 437.674L428.04 437.674L428.042 437.674L428.043 437.674L428.044 437.674L428.046 437.674L428.047 437.674L428.048 437.674L428.05 437.674L428.051 437.674L428.053 437.674L428.054 437.674L428.055 437.674L428.057 437.674L428.058 437.674L428.059 437.674L428.061 437.674L428.062 437.674L428.064 437.674L428.065 437.674L428.066 437.674L428.068 437.674L428.069 437.674L428.07 437.674L428.072 437.674L428.073 437.674L428.075 437.674L428.076 437.674L428.077 437.674L428.079 437.674L428.08 437.674L428.081 437.674L428.083 437.674L428.084 437.674L428.086 437.674L428.087 437.674L428.088 437.674L428.09 437.674L428.091 437.674L428.092 437.674L428.094 437.674L428.095 437.674L428.097 437.674L428.098 437.674L428.099 437.674L428.101 437.674L428.102 437.674L428.103 437.674L428.105 437.674L428.106 437.674L428.107 437.674L428.109 437.674L428.11 437.674L428.112 437.674L428.113 437.674L428.114 437.674L428.116 437.674L428.117 437.674L428.118 437.674L428.12 437.674L428.121 437.674L428.123 437.674L428.124 437.674L428.125 437.674L428.127 437.674L428.128 437.674L428.129 437.674L428.131 437.674L428.132 437.674L428.134 437.674L428.135 437.674L428.136 437.674L428.138 437.674L428.139 437.674L428.14 437.674L428.142 437.674L428.143 437.674L428.145 437.674L428.146 437.674L428.147 437.674L428.149 437.674L428.15 437.674L428.151 437.674L428.153 437.674L428.154 437.674L428.156 437.674L428.157 437.674L428.158 437.674L428.16 437.674L428.161 437.674L428.162 437.674L428.164 437.674L428.165 437.674L428.167 437.674L428.168 437.674L428.169 437.674L428.171 437.674L428.172 437.674L428.173 437.674L428.175 437.674L428.176 437.674L428.177 437.674L428.179 437.674L428.18 437.674L428.182 437.674L428.183 437.674L428.184 437.674L428.186 437.674L428.187 437.674L428.188 437.674L428.19 437.674L428.191 437.674L428.193 437.674L428.194 437.674L428.195 437.674L428.197 437.674L428.198 437.674L428.199 437.674L428.201 437.674L428.202 437.674L428.203 437.674L428.205 437.674L428.206 437.674L428.208 437.674L428.209 437.674L428.21 437.674L428.212 437.674L428.213 437.674L428.214 437.674L428.216 437.674L428.217 437.674L428.219 437.674L428.22 437.674L428.221 437.674L428.223 437.674L428.224 437.674L428.225 437.674L428.227 437.674L428.228 437.674L428.23 437.674L428.231 437.674L428.232 437.674L428.234 437.674L428.235 437.674L428.236 437.674L428.238 437.674L428.239 437.674L428.241 437.674L428.242 437.674L428.243 437.674L428.245 437.674L428.246 437.674L428.247 437.674L428.249 437.674L428.25 437.674L428.252 437.674L428.253 437.674L428.254 437.674L428.256 437.674L428.257 437.674L428.258 437.674L428.26 437.674L428.261 437.674L428.263 437.674L428.264 437.674L428.265 437.674L428.267 437.674L428.268 437.674L428.269 437.674L428.271 437.674L428.272 437.674L428.274 437.674L428.275 437.674L428.276 437.674L428.278 437.674L428.279 437.674L428.281 437.674L428.282 437.674L428.283 437.674L428.285 437.674L428.286 437.674L428.287 437.674L428.289 437.674L428.29 437.674L428.292 437.674L428.293 437.674L428.294 437.674L428.296 437.674L428.297 437.674L428.298 437.674L428.3 437.674L428.301 437.674L428.302 437.674L428.304 437.674L428.305 437.674L428.307 437.674L428.308 437.674L428.309 437.674L428.311 437.674L428.312 437.674L428.314 437.674L428.315 437.674L428.316 437.674L428.318 437.674L428.319 437.674L428.32 437.674L428.322 437.674L428.323 437.674L428.325 437.674L428.326 437.674L428.327 437.674L428.329 437.674L428.33 437.674L428.331 437.674L428.333 437.674L428.334 437.674L428.336 437.674L428.337 437.674L428.338 437.674L428.34 437.674L428.341 437.674L428.343 437.674L428.344 437.674L428.345 437.674L428.347 437.674L428.348 437.674L428.349 437.674L428.351 437.674L428.352 437.674L428.354 437.674L428.355 437.674L428.356 437.674L428.358 437.674L428.359 437.674L428.36 437.674L428.362 437.674L428.363 437.674L428.365 437.674L428.366 437.674L428.367 437.674L428.369 437.674L428.37 437.674L428.372 437.674L428.373 437.674L428.374 437.674L428.376 437.674L428.377 437.674L428.378 437.674L428.38 437.674L428.381 437.674L428.383 437.674L428.384 437.674L428.385 437.674L428.387 437.674L428.388 437.674L428.39 437.674L428.391 437.674L428.392 437.674L428.394 437.674L428.395 437.674L428.396 437.674L428.398 437.674L428.399 437.674L428.401 437.674L428.402 437.674L428.403 437.674L428.405 437.674L428.406 437.674L428.408 437.674L428.409 437.674L428.41 437.674L428.412 437.674L428.413 437.674L428.415 437.674L428.416 437.674L428.417 437.674L428.419 437.674L428.42 437.674L428.422 437.674L428.423 437.674L428.424 437.674L428.426 437.674L428.427 437.674L428.428 437.674L428.43 437.674L428.431 437.674L428.433 437.674L428.434 437.674L428.435 437.674L428.437 437.674L428.438 437.674L428.44 437.674L428.441 437.674L428.442 437.674L428.444 437.674L428.445 437.674L428.447 437.674L428.448 437.674L428.449 437.674L428.451 437.674L428.452 437.674L428.453 437.674C453.726 437.584 479.817 430.804 503.886 418.067C527.258 405.704 547.819 388.244 563.341 367.591C590.043 332.067 599.713 290.529 590.6 250.607C584.199 222.564 569.474 198.45 556.451 177.124L556.406 177.05L556.399 177.04C548.946 164.842 541.987 153.452 537.126 142.553C532.263 131.649 529.488 121.208 530.431 110.908C531.752 96.4477 541.177 86.5254 548.817 80.7631C565.512 68.167 590.199 62.9412 610.261 67.7612C651.363 77.6397 685.058 112.468 718.731 150.259L720.322 152.044L720.327 152.049C756.325 192.448 797.054 238.156 853.286 256.887C873.157 263.504 892.806 266.272 912.242 266.272C962.691 266.272 1011.71 247.646 1059.62 229.437L1059.71 229.403C1114.86 208.448 1167.07 188.612 1216.55 198.804C1262.02 208.175 1300.1 241.923 1340.34 277.577L1340.39 277.625C1359.1 294.213 1378.44 311.354 1399.09 326.453L1398.91 326.704L1399.09 326.454C1423.25 344.138 1451.75 357.438 1481.48 364.915C1513.42 372.949 1544.58 373.578 1571.6 366.731C1607.62 357.615 1635.24 335.761 1651.51 303.531L1651.78 303.671L1651.51 303.531L1666.17 274.505L1610.69 243.863L1596.04 272.883C1588.21 288.405 1575.38 298.235 1556.87 302.917C1521.65 311.833 1471.57 299.366 1435.04 272.64C1416.84 259.321 1399.48 243.944 1381.13 227.686L1380.94 227.519C1336.26 187.92 1290.13 147.044 1228.69 134.379C1162.08 120.654 1099.17 144.558 1038.23 167.718C1008.74 178.924 980.047 189.829 952.344 195.805C924.637 201.782 897.896 202.835 872.318 194.319C852.004 187.551 833.52 174.811 816.097 159.257C798.678 143.707 782.303 125.329 766.214 107.272L766.207 107.264L764.608 105.471L764.84 105.265L764.608 105.471C725.564 61.652 682.614 17.7833 624.306 3.76862C586.552 -5.30825 543.567 3.78465 512.137 27.5013C486.437 46.8925 470.762 74.2923 467.985 104.66C464.043 147.756 485.003 182.071 503.562 212.437L503.579 212.465C514.903 231.001 525.639 248.573 529.588 265.873C535.442 291.521 524.353 313.278 514.041 326.996C493.571 354.228 459.899 371.906 428.233 372.019L428.231 372.019L428.229 372.019L428.227 372.019L428.226 372.019L428.224 372.019L428.222 372.019L428.221 372.019L428.219 372.019L428.219 372.019L428.217 372.019L428.215 372.019L428.214 372.019L428.212 372.019L428.211 372.019L428.209 372.019L428.207 372.019L428.206 372.019L428.205 372.019L428.204 372.019L428.202 372.019L428.201 372.019L428.199 372.019L428.197 372.019L428.196 372.019L428.194 372.019L428.193 372.019L428.192 372.019L428.191 372.019L428.189 372.019L428.188 372.019L428.186 372.019L428.185 372.019L428.183 372.019L428.182 372.019L428.18 372.019L428.179 372.019L428.177 372.019L428.177 372.019L428.175 372.019L428.174 372.019L428.172 372.019L428.171 372.019L428.169 372.019L428.168 372.019L428.166 372.019L428.165 372.019L428.163 372.019L428.162 372.019L428.161 372.019L428.16 372.019L428.159 372.019L428.157 372.019L428.156 372.019L428.154 372.019L428.153 372.019L428.151 372.019L428.15 372.019L428.148 372.019L428.147 372.019L428.146 372.019L428.145 372.019L428.144 372.019L428.142 372.019L428.141 372.019L428.14 372.019L428.138 372.019L428.137 372.019L428.135 372.019L428.134 372.019L428.133 372.019L428.131 372.019L428.13 372.019L428.129 372.019L428.128 372.019L428.127 372.019L428.125 372.019L428.124 372.019L428.122 372.019L428.121 372.019L428.12 372.019L428.118 372.019L428.117 372.019L428.115 372.019L428.115 372.019L428.114 372.019L428.112 372.019L428.111 372.019L428.11 372.019L428.108 372.019L428.107 372.019L428.106 372.019L428.104 372.019L428.103 372.019L428.101 372.019L428.1 372.019L428.099 372.019L428.098 372.019L428.097 372.019L428.096 372.019L428.094 372.019L428.093 372.019L428.092 372.019L428.09 372.019L428.089 372.019L428.088 372.019L428.086 372.019L428.085 372.019L428.084 372.019L428.082 372.019L428.081 372.019L428.08 372.019L428.079 372.019L428.078 372.019L428.077 372.019L428.075 372.019L428.074 372.019L428.073 372.019L428.071 372.019L428.07 372.019L428.069 372.019L428.067 372.019L428.066 372.019L428.065 372.019L428.063 372.019L428.063 372.019L428.062 372.019L428.061 372.019L428.059 372.019L428.058 372.019L428.057 372.019L428.055 372.019L428.054 372.019L428.053 372.019L428.051 372.019L428.05 372.019L428.049 372.019L428.047 372.019L428.046 372.019L428.045 372.019L428.044 372.019L428.043 372.019L428.042 372.019L428.041 372.019L428.039 372.019L428.038 372.019L428.037 372.019L428.035 372.019L428.034 372.019L428.033 372.019L428.032 372.019L428.03 372.019L428.029 372.019L428.028 372.019L428.026 372.019L428.026 372.019L428.025 372.019L428.023 372.019L428.022 372.019L428.021 372.019L428.02 372.019L428.018 372.019L428.017 372.019L428.016 372.019L428.014 372.019L428.013 372.019L428.012 372.019L428.011 372.019L428.009 372.019L428.008 372.019L428.007 372.019L428.006 372.019L428.005 372.019L428.004 372.019L428.003 372.019L428.001 372.019L428 372.019L427.999 372.019L427.997 372.019L427.996 372.019L427.995 372.019L427.994 372.019L427.992 372.019L427.991 372.019L427.99 372.019L427.989 372.019L427.988 372.019L427.987 372.019L427.986 372.019L427.984 372.019L427.983 372.019L427.982 372.019L427.98 372.019L427.979 372.019L427.978 372.019L427.976 372.019L427.975 372.019L427.974 372.019L427.973 372.019L427.971 372.019L427.97 372.019L427.969 372.019L427.968 372.019L427.967 372.019L427.966 372.019L427.965 372.019L427.963 372.019L427.962 372.019L427.961 372.019L427.959 372.019L427.958 372.019L427.957 372.019L427.956 372.019L427.954 372.019L427.953 372.019L427.952 372.019L427.951 372.019L427.95 372.019L427.949 372.019L427.948 372.019L427.946 372.019L427.945 372.019L427.944 372.019L427.942 372.019L427.941 372.019L427.94 372.019L427.938 372.019L427.937 372.019L427.936 372.019L427.935 372.019L427.933 372.019L427.932 372.019L427.932 372.019L427.93 372.019L427.929 372.019L427.928 372.019L427.926 372.019L427.925 372.019L427.924 372.019L427.922 372.019L427.921 372.019L427.92 372.019L427.919 372.019L427.917 372.019L427.916 372.019L427.915 372.019L427.914 372.019L427.913 372.019L427.912 372.019L427.91 372.019L427.909 372.019L427.908 372.019L427.906 372.019L427.905 372.019L427.904 372.019L427.902 372.019L427.901 372.019L427.9 372.019L427.898 372.019L427.897 372.019L427.896 372.019L427.895 372.019L427.894 372.019L427.893 372.019L427.891 372.019L427.89 372.019L427.889 372.019L427.887 372.019L427.886 372.019L427.885 372.019L427.883 372.019L427.882 372.019L427.881 372.019L427.88 372.019L427.879 372.019L427.878 372.019L427.876 372.019L427.875 372.019L427.874 372.019L427.872 372.019L427.871 372.019L427.87 372.019L427.868 372.019L427.867 372.019L427.865 372.019L427.864 372.019L427.863 372.019L427.862 372.019L427.861 372.019L427.86 372.019L427.858 372.019L427.857 372.019L427.856 372.019L427.854 372.019L427.853 372.019L427.851 372.019L427.85 372.019L427.849 372.019L427.847 372.019L427.846 372.019L427.845 372.019L427.844 372.019L427.843 372.019L427.841 372.019L427.84 372.019L427.838 372.019L427.837 372.019L427.836 372.019L427.834 372.019L427.833 372.019L427.831 372.019L427.83 372.019L427.829 372.019L427.828 372.019L427.827 372.019L427.825 372.019L427.824 372.019L427.822 372.019L427.821 372.019L427.819 372.019L427.818 372.019L427.817 372.019L427.815 372.019L427.814 372.019L427.813 372.019L427.812 372.019L427.81 372.019L427.809 372.019L427.807 372.019L427.806 372.019L427.804 372.019L427.803 372.019L427.801 372.019L427.8 372.019L427.799 372.019L427.798 372.019L427.796 372.019L427.795 372.019L427.793 372.019L427.792 372.019L427.79 372.019L427.789 372.019L427.787 372.019L427.786 372.019L427.785 372.019L427.784 372.019L427.782 372.019L427.781 372.019L427.779 372.019L427.778 372.019L427.776 372.019L427.775 372.019L427.773 372.019L427.771 372.019L427.771 372.019L427.769 372.019L427.768 372.019L427.766 372.019L427.765 372.019L427.763 372.019L427.761 372.019L427.76 372.019L427.758 372.019L427.757 372.019L427.756 372.019L427.754 372.019L427.753 372.019L427.751 372.019L427.749 372.019C374.795 372.019 318.407 340.228 260.136 277.632C245.205 261.592 230.438 244.235 216.147 227.437L215.78 227.005L215.772 226.996C180.754 185.816 144.575 143.27 98.9941 110.586C63.3967 85.0567 21.6826 68.1529 -18.4623 62.9703C-65.5481 56.8931 -108.821 66.7621 -143.615 91.4851L-169.577 109.932Z" stroke="#4E47FF" stroke-width="0.620805"/>
</svg>
