<svg width="34" height="34" viewBox="0 0 34 34" fill="none" xmlns="http://www.w3.org/2000/svg">
<path d="M13.3557 23.0715L7.28432 9.71432L1.21289 23.0715M13.3557 23.0715C13.3557 24.6816 12.7161 26.2259 11.5775 27.3647C10.4389 28.5032 8.89456 29.1429 7.28432 29.1429C5.67408 29.1429 4.12977 28.5032 2.99116 27.3647C1.85256 26.2259 1.21289 24.6816 1.21289 23.0715M13.3557 23.0715H1.21289" stroke="white" stroke-width="2" stroke-linecap="round" stroke-linejoin="round"/>
<path d="M32.7854 23.0715L26.714 9.71436L20.6426 23.0715M32.7854 23.0715C32.7854 24.6816 32.1457 26.226 31.0072 27.3647C29.8685 28.5032 28.3241 29.1429 26.714 29.1429C25.1039 29.1429 23.5595 28.5032 22.4209 27.3647C21.2822 26.226 20.6426 24.6816 20.6426 23.0715M32.7854 23.0715H20.6426" stroke="white" stroke-width="2" stroke-linecap="round" stroke-linejoin="round"/>
<path d="M3.64258 9.71436H30.3569" stroke="white" stroke-width="2" stroke-linecap="round" stroke-linejoin="round"/>
<path d="M17 9.71432V4.85718" stroke="white" stroke-width="2" stroke-linecap="round" stroke-linejoin="round"/>
</svg>
