<svg width="101" height="57" viewBox="0 0 101 57" fill="none" xmlns="http://www.w3.org/2000/svg">
<path d="M74.8437 11.6871C76.4266 12.8678 78.7735 13.4564 81.8844 13.4564C84.9954 13.4564 87.3387 12.8678 88.9215 11.6871C90.5081 10.5026 91.2977 8.85395 91.2977 6.73003C91.2977 4.6061 90.5081 2.9172 88.9215 1.74739C87.3387 0.584902 84.9917 0 81.8844 0C78.7772 0 76.4229 0.584902 74.8437 1.74739C73.2535 2.91354 72.4675 4.5732 72.4675 6.73003C72.4675 8.88685 73.2571 10.5026 74.8437 11.6871Z" fill="#CACAFC"/>
<path d="M100.834 47.5561L98.0774 41.8278C97.7008 41.0455 96.7613 40.7384 95.979 41.1222L95.9644 41.1295C95.544 41.3416 95.0834 41.5207 94.5753 41.6742C94.0671 41.8204 93.559 41.8972 93.0508 41.8972C92.5135 41.8972 92.0931 41.7583 91.797 41.4695C91.5009 41.1844 91.2706 40.8334 91.1243 40.4167C90.9708 39.9963 90.8721 39.554 90.8319 39.0897C90.7844 38.6291 90.7624 38.2014 90.7624 37.8102V16.6551C90.7624 15.7704 90.0203 15.0649 89.1393 15.1124L76.3958 15.7558C76.2349 15.7558 76.0887 15.7558 75.9644 15.7631C75.8072 15.7667 75.6866 15.774 75.6171 15.7777L75.4417 15.785C74.7983 15.8069 74.1402 15.8691 73.4932 15.9714C72.5135 16.1286 71.5521 16.3772 70.6162 16.7062C70.4883 16.7464 70.3713 16.7867 70.2616 16.8305C67.9622 17.7042 65.8566 19.0861 64.1457 20.8773C60.3877 24.8108 58.3406 30.4441 58.22 37.1741C58.2053 38.0149 58.22 38.8192 58.2309 39.5942V39.649C58.2382 40.0584 58.2638 40.4861 58.2894 40.8992C58.326 41.5061 58.3991 42.6686 58.2711 43.173C58.2602 43.1511 58.2492 43.1219 58.2455 43.0926C58.0408 41.963 58.0225 40.5885 58.0006 39.1372C57.9714 37.1851 57.9385 34.9734 57.4705 32.6411C56.871 29.6326 55.4234 26.7848 53.3945 24.6207C50.6674 21.7108 47.147 20.2814 43.4768 20.5958C40.1355 20.8773 37.0684 22.6137 34.8458 25.4834C33.2264 27.5708 32.0822 30.2431 31.6179 33.0031C31.2998 34.8967 31.2523 36.6989 31.2085 38.2891V38.3147C31.1792 39.3858 31.15 40.413 31.0403 41.305C30.9708 40.5885 30.9635 39.8025 30.9526 38.9471C30.9453 38.2781 30.9379 37.5836 30.8977 36.8634V36.8013C30.8356 35.7448 30.7771 34.6481 30.6638 33.5148C29.9838 26.6532 27.2055 20.5629 22.6287 17.8724C19.1083 15.8033 14.9592 15.3281 10.9453 16.5344L10.8977 16.549C7.72465 17.664 6.51464 18.4975 3.38541 21.3196C3.19166 21.5207 2.18271 22.6211 0.157485 25.6114C-0.0947537 25.9842 -0.0399192 26.4851 0.292744 26.7921L5.03045 32.2354C9.05896 35.7375 11.0732 33.4637 12.4075 31.8771L12.4148 31.8698C13.6395 30.36 14.5388 30.0639 15.8877 30.5136C16.5091 30.7219 17.2732 31.9612 17.5547 34.8089C17.6387 35.6534 17.6863 36.549 17.7374 37.4958V37.5689C17.9056 40.6031 18.0884 44.0431 19.4592 47.5415C21.6161 53.0506 25.7542 56.3406 30.5249 56.3406C33.6066 56.3406 36.67 55.1233 39.1448 52.919C41.3675 50.9376 42.976 48.2763 43.6742 45.4286C44.2737 42.9866 44.3358 40.6872 44.3907 38.6583V38.6437C44.4236 37.4739 44.4528 36.3626 44.5881 35.4158C44.7818 36.5307 44.8038 37.887 44.8257 39.3163V39.331C44.8513 41.1624 44.8842 43.2352 45.279 45.4286C45.8127 48.3969 47.3481 51.1277 49.6036 53.1164C51.8847 55.1306 54.8166 56.3114 57.8507 56.4357C58.0664 56.4466 58.2894 56.4503 58.5161 56.4503H58.5343L58.9401 56.4357C61.5393 56.4357 63.6559 55.8069 65.7944 54.4105C68.2729 52.791 69.9911 50.349 70.7661 47.3441C71.5045 44.4781 71.4607 41.7985 71.4205 39.437V39.4224C71.4095 38.7132 71.3985 38.0405 71.4095 37.4044C71.457 34.6591 72.0236 32.3779 73.0143 30.8389V36.3224C73.0143 37.0096 72.996 37.7079 72.9668 38.4061C72.9375 39.108 72.9266 39.7623 72.9266 40.3582C72.9266 41.2867 72.9668 42.314 73.0618 43.4545C73.1496 44.5878 73.3579 45.7429 73.687 46.9054C74.0123 48.0716 74.4875 49.2122 75.1017 50.3162C75.7158 51.4202 76.531 52.3999 77.5473 53.2553C78.5636 54.107 79.8175 54.798 81.3126 55.3171C82.8078 55.8435 84.6136 56.1067 86.7376 56.1067C87.7246 56.1067 88.6824 56.0007 89.6109 55.7923C90.5321 55.5839 91.4314 55.2951 92.2978 54.9405C93.1678 54.5786 93.9904 54.1765 94.769 53.7305C95.544 53.2809 96.2751 52.8129 96.966 52.3341C98.2236 51.4421 99.4153 50.4368 100.538 49.3255C101.009 48.8612 101.133 48.1447 100.848 47.5488L100.834 47.5561Z" fill="#CACAFC"/>
</svg>
