<svg width="1440" height="455" viewBox="0 0 1440 455" fill="none" xmlns="http://www.w3.org/2000/svg">
<path d="M480.799 454.237C469.709 453.167 458.961 450.22 448.925 445.397C415.731 429.454 394.295 397.071 388.571 354.222C383.967 319.793 389.814 280.533 404.612 246.513C421.933 206.687 447.671 171.363 481.209 141.346C468.134 128.455 453.888 116.667 438.632 106.137C415.03 89.8498 389.587 76.9621 363.01 67.8398C335.916 58.5418 308.219 53.3579 280.686 52.4347C253.147 51.5109 225.222 54.8277 197.673 62.2935C170.651 69.6184 144.554 80.7749 120.114 95.45C95.6666 110.124 73.4794 127.966 54.1633 148.464C34.4734 169.363 18.1915 192.588 5.76391 217.506L-5.63636 240.368L-50.7555 216.948L-39.3552 194.086C-24.6974 164.688 -5.54706 137.35 17.5606 112.826C40.0432 88.9702 65.8381 68.2304 94.2174 51.1846C122.603 34.1395 152.941 21.177 184.391 12.6527C216.715 3.88864 249.586 -0.00250267 282.07 1.08755C314.555 2.1776 347.153 8.264 378.948 19.179C409.877 29.799 439.46 44.7719 466.873 63.6879C486.768 77.4157 505.191 92.9984 521.891 110.193C550.545 91.5079 582.449 76.7196 615.807 66.7858C661.699 53.1218 710.261 48.6811 756.16 53.928C805.514 59.5742 850.549 75.74 890.017 101.974C934.252 131.373 972.248 171.37 1008.99 210.05C1070.25 274.534 1128.12 335.431 1205.73 338.731C1236.41 340.03 1268.53 330.982 1298.63 312.562C1327.1 295.128 1352.95 270.109 1373.38 240.204C1414.62 179.84 1434.84 106.017 1454.39 34.6292L1461.15 9.91831L1509.85 23.9449L1503.09 48.6558C1483.38 120.624 1461.04 202.196 1414.96 269.656C1390.52 305.424 1359.37 335.493 1324.89 356.604C1286.32 380.212 1244.49 391.781 1203.91 390.062C1200.14 389.904 1196.41 389.643 1192.72 389.288C1100.77 380.419 1035.72 311.939 972.725 245.635C937.934 209.015 901.957 171.143 862.52 144.925C829.774 123.154 792.18 109.716 750.792 104.983C711.452 100.495 669.798 104.332 630.277 116.098C603.724 124.004 578.286 135.449 555.178 149.776C570.099 170.384 582.604 192.338 592.475 215.295C604.08 242.3 611.151 269.039 613.493 294.774C616.286 325.518 612.168 353.797 601.261 378.822C587.727 409.869 560.605 435.559 528.714 447.539C512.765 453.525 496.451 455.753 480.824 454.246L480.799 454.237ZM514.553 180.134C486.579 205.22 465.182 234.563 450.858 267.491C439.887 292.722 435.323 322.663 438.655 347.581C441.014 365.224 448.419 388.459 470.316 398.975C485.386 406.214 500.724 403.164 510.937 399.329C530.084 392.137 546.972 376.218 555.001 357.791C574.13 313.908 557.665 262.413 546.152 235.628C537.811 216.218 527.217 197.621 514.554 180.128L514.553 180.134Z" fill="#FF12DC"/>
</svg>
