<svg width="981" height="476" viewBox="0 0 981 476" fill="none" xmlns="http://www.w3.org/2000/svg">
<path d="M774.793 237.982L774.781 237.975C774.779 237.973 774.776 237.972 774.773 237.97C757.186 228.584 740.733 219.811 725.302 215.992C718.485 214.305 712.37 213.704 706.594 214.139L706.594 214.139C689.552 215.415 678.726 226.171 672.609 235.067L671.788 234.484L672.609 235.067C664.41 246.989 659.51 263.153 659.207 279.399C658.932 293.999 660.853 309.06 662.905 325.099L661.918 325.21C665.051 349.719 668.285 375.054 663.557 400.467C659.361 423.031 649.483 441.014 634.2 453.917C614.218 470.79 585.128 477.401 558.286 471.172L558.085 472.152C558.083 472.151 558.082 472.151 558.08 472.151C557.641 472.051 557.201 471.942 556.776 471.837C538.44 467.299 521.824 457.202 508.719 442.651L509.45 441.983L508.719 442.651C497.74 430.458 489.533 415.271 485.615 399.869C480.793 380.909 481.406 363.012 481.994 345.859L481.994 345.841C482.223 339.187 482.435 332.934 482.34 326.736C482.162 315.248 480.545 305.228 477.558 296.937L477.558 296.937C474.759 289.164 470.733 282.849 465.608 278.137L465.607 278.137C459.801 272.789 452.003 268.854 442.381 266.473C425.691 262.342 403.768 263.036 382.262 268.435C371.641 271.101 361.146 274.453 349.997 278.015L349.681 277.057L349.997 278.015L349.926 278.038C323.544 286.464 296.124 295.222 264.324 295.404C250.468 295.483 236.304 293.755 222.217 290.269C200.764 284.96 179.895 275.606 161.867 263.216C143.47 250.571 128.259 234.9 117.882 217.872C102.205 192.149 97.3894 165.563 92.7663 140.042L92.7582 139.998L92.0944 136.335C87.8241 112.926 82.9297 90.6627 69.8564 72.923L70.6513 72.333L69.8563 72.9229C61.1134 61.0573 48.634 52.42 35.648 49.2064C31.1414 48.0911 26.8508 47.7122 23.2475 48.0867L23.1277 47.0874L23.2473 48.0867L14.27 49.0176L13.413 49.1065L13.1891 48.2611L11.1318 40.4928L12.0932 40.25L11.1317 40.4925L3.61809 12.0808L1.56566 4.31355L1.2688 3.19007L2.40763 3.07197L11.3849 2.14106L11.3863 2.14555C22.5024 0.992668 33.9853 1.85677 45.5114 4.70914C54.3929 6.90702 63.2283 10.2782 71.7617 14.7256C88.6674 23.5354 103.95 36.489 114.796 51.214C134.022 77.3107 140.522 106.415 145.515 133.806L144.536 133.97L145.515 133.806L146.188 137.503L146.188 137.504C150.325 160.32 154.202 181.634 165.322 199.888C173.8 213.807 187.79 226.429 204.73 235.399C213.427 240.001 222.667 243.53 232.192 245.888C241.105 248.093 249.934 249.184 258.427 249.136C281.055 249.007 303.109 241.972 326.638 234.456L326.739 234.423C338.144 230.781 349.964 227.005 362.262 223.92C378.755 219.782 404.308 215.485 432.315 218.56C439.16 219.312 445.873 220.495 452.269 222.078C462.256 224.55 471.654 228.035 480.205 232.436L480.206 232.436C488.863 236.894 496.688 242.319 503.468 248.556L503.468 248.556C524.827 268.216 535.88 295.939 536.418 330.825C536.528 337.947 536.29 344.954 536.061 351.702L536.056 351.863C535.536 367.09 535.058 381.283 538.422 394.503C540.174 401.391 543.789 408.797 548.729 414.909C553.674 421.026 559.884 425.773 566.803 427.486L566.804 427.486L566.805 427.486L566.805 427.486L566.806 427.486L566.807 427.486L566.808 427.487L566.808 427.487L566.809 427.487L566.81 427.487L566.81 427.487L566.811 427.488L566.812 427.488L566.813 427.488L566.813 427.488L566.814 427.488L566.815 427.488L566.815 427.489L566.816 427.489L566.817 427.489L566.818 427.489L566.818 427.489L566.819 427.489L566.82 427.49L566.82 427.49L566.821 427.49L566.822 427.49L566.822 427.49L566.823 427.491L566.824 427.491L566.825 427.491L566.825 427.491L566.826 427.491L566.827 427.491L566.827 427.492L566.828 427.492L566.829 427.492L566.83 427.492L566.83 427.492L566.831 427.492L566.832 427.493L566.832 427.493L566.833 427.493L566.834 427.493L566.835 427.493L566.835 427.494L566.836 427.494L566.837 427.494L566.837 427.494L566.838 427.494L566.839 427.494L566.84 427.495L566.84 427.495L566.841 427.495L566.842 427.495L566.842 427.495L566.843 427.495L566.844 427.496L566.845 427.496L566.845 427.496L566.846 427.496L566.847 427.496L566.847 427.497L566.848 427.497L566.849 427.497L566.85 427.497L566.85 427.497L566.851 427.497L566.852 427.498L566.852 427.498L566.853 427.498L566.854 427.498L566.855 427.498L566.855 427.498L566.856 427.499L566.857 427.499L566.857 427.499L566.858 427.499L566.859 427.499L566.86 427.5L566.86 427.5L566.861 427.5L566.862 427.5L566.862 427.5L566.863 427.5L566.864 427.501L566.865 427.501L566.865 427.501L566.866 427.501L566.867 427.501L566.867 427.501L566.868 427.502L566.869 427.502L566.87 427.502L566.87 427.502L566.871 427.502L566.872 427.503L566.872 427.503L566.873 427.503L566.874 427.503L566.875 427.503L566.875 427.503L566.876 427.504L566.877 427.504L566.877 427.504L566.878 427.504L566.879 427.504L566.88 427.504L566.88 427.505L566.881 427.505L566.882 427.505L566.882 427.505L566.883 427.505L566.884 427.506L566.885 427.506L566.885 427.506L566.886 427.506L566.887 427.506L566.887 427.506L566.888 427.507L566.889 427.507L566.89 427.507L566.89 427.507L566.891 427.507L566.892 427.507L566.892 427.508L566.893 427.508L566.894 427.508L566.895 427.508L566.895 427.508L566.896 427.509L566.897 427.509L566.898 427.509L566.898 427.509L566.899 427.509L566.9 427.509L566.9 427.51L566.901 427.51L566.902 427.51L566.903 427.51L566.903 427.51L566.904 427.511L566.905 427.511L566.905 427.511L566.906 427.511L566.907 427.511L566.908 427.511L566.908 427.512L566.909 427.512L566.91 427.512L566.91 427.512L566.911 427.512L566.912 427.512L566.913 427.513L566.913 427.513L566.914 427.513L566.915 427.513L566.915 427.513L566.916 427.514L566.917 427.514L566.918 427.514L566.918 427.514L566.919 427.514L566.92 427.514L566.921 427.515L566.921 427.515L566.922 427.515L566.923 427.515L566.923 427.515L566.924 427.515L566.925 427.516L566.926 427.516L566.926 427.516L566.927 427.516L566.928 427.516L566.928 427.517L566.929 427.517L566.93 427.517L566.931 427.517L566.931 427.517L566.932 427.517L566.933 427.518L566.933 427.518L566.934 427.518L566.935 427.518L566.936 427.518L566.936 427.519L566.937 427.519L566.938 427.519L566.939 427.519L566.939 427.519L566.94 427.519L566.941 427.52L566.941 427.52L566.942 427.52L566.943 427.52L566.944 427.52L566.944 427.52L566.945 427.521L566.946 427.521L566.946 427.521L566.947 427.521L566.948 427.521L566.949 427.522L566.949 427.522L566.95 427.522L566.951 427.522L566.952 427.522L566.952 427.522L566.953 427.523L566.954 427.523L566.954 427.523L566.955 427.523L566.956 427.523L566.957 427.524L566.957 427.524L566.958 427.524L566.959 427.524L566.959 427.524L566.96 427.524L566.961 427.525L566.962 427.525L566.962 427.525L566.963 427.525L566.964 427.525L566.965 427.525L566.965 427.526L566.966 427.526L566.967 427.526L566.967 427.526L566.968 427.526L566.969 427.527L566.97 427.527L566.97 427.527L566.971 427.527L566.972 427.527L566.972 427.527L566.973 427.528L566.974 427.528L566.975 427.528L566.975 427.528L566.976 427.528L566.977 427.529L566.977 427.529L566.978 427.529L566.979 427.529L566.98 427.529L566.98 427.529L566.981 427.53L566.982 427.53L566.983 427.53L566.983 427.53L566.984 427.53L566.985 427.53L566.985 427.531L566.986 427.531L566.987 427.531L566.988 427.531L566.988 427.531L566.989 427.532L566.99 427.532L566.99 427.532L566.991 427.532L566.992 427.532L566.993 427.532L566.993 427.533L566.994 427.533L566.995 427.533L566.996 427.533L566.996 427.533L566.997 427.534L566.998 427.534L566.998 427.534L566.999 427.534L567 427.534L567.001 427.534L567.001 427.535L567.002 427.535L567.003 427.535L567.003 427.535L567.004 427.535L567.005 427.535L567.006 427.536L567.006 427.536L567.007 427.536L567.008 427.536L567.009 427.536L567.009 427.537L567.01 427.537L567.011 427.537L567.011 427.537L567.012 427.537L567.013 427.537L567.014 427.538L567.014 427.538L567.015 427.538L567.016 427.538L567.016 427.538L567.017 427.539L567.018 427.539L567.019 427.539L567.019 427.539L567.02 427.539L567.021 427.539L567.022 427.54L567.022 427.54L567.023 427.54L567.024 427.54L567.024 427.54L567.025 427.54L567.026 427.541L567.027 427.541L567.027 427.541L567.028 427.541L567.029 427.541L567.029 427.542L567.03 427.542L567.031 427.542L567.032 427.542L567.032 427.542L567.033 427.542L567.034 427.543L567.035 427.543L567.035 427.543L567.036 427.543L567.037 427.543L567.037 427.544L567.038 427.544L567.039 427.544L567.04 427.544L567.04 427.544L567.041 427.544L567.042 427.545L567.042 427.545L567.043 427.545L567.044 427.545L567.045 427.545L567.045 427.545L567.046 427.546L567.047 427.546L567.047 427.546L567.048 427.546L567.049 427.546L567.05 427.547L567.05 427.547L567.051 427.547L567.052 427.547L567.052 427.547L567.053 427.547L567.054 427.548L567.055 427.548L567.055 427.548L567.056 427.548L567.057 427.548L567.058 427.549L567.058 427.549L567.059 427.549L567.06 427.549L567.06 427.549L567.061 427.549L567.062 427.55L567.063 427.55L567.063 427.55L567.064 427.55L567.065 427.55L567.065 427.55L567.066 427.551L567.067 427.551L567.068 427.551L567.068 427.551L567.069 427.551L567.07 427.552L567.071 427.552L567.071 427.552L567.072 427.552L567.073 427.552L567.073 427.552L567.074 427.553L567.075 427.553L567.076 427.553L567.076 427.553L567.077 427.553L567.078 427.553L567.078 427.554L567.079 427.554L567.08 427.554L567.081 427.554L567.081 427.554L567.082 427.555L567.083 427.555L567.083 427.555L567.084 427.555L567.085 427.555L567.086 427.555L567.086 427.556L567.087 427.556L567.088 427.556L567.088 427.556L567.089 427.556L567.09 427.557L567.091 427.557L567.091 427.557L567.092 427.557L567.093 427.557L567.093 427.557L567.094 427.558L567.095 427.558L567.096 427.558L567.096 427.558L567.097 427.558L567.098 427.558L567.098 427.559L567.099 427.559L567.1 427.559L567.101 427.559L567.101 427.559L567.102 427.56L567.103 427.56L567.104 427.56L567.104 427.56L567.105 427.56L567.106 427.56L567.106 427.561L567.107 427.561L567.108 427.561L567.109 427.561L567.109 427.561L567.11 427.561L567.111 427.562L567.111 427.562L567.112 427.562L567.113 427.562L567.114 427.562L567.114 427.563L567.115 427.563L567.116 427.563L567.116 427.563L567.117 427.563L567.118 427.563L567.119 427.564L567.119 427.564L567.12 427.564L567.121 427.564L567.121 427.564L567.122 427.564L567.123 427.565L567.124 427.565L567.124 427.565L567.125 427.565L567.126 427.565L567.126 427.566L567.127 427.566L567.128 427.566L567.129 427.566L567.129 427.566L567.13 427.566L567.131 427.567L567.131 427.567L567.132 427.567L567.133 427.567L567.134 427.567L567.134 427.567L567.135 427.568L567.136 427.568L567.136 427.568L567.137 427.568L567.138 427.568L567.138 427.569L567.139 427.569L567.14 427.569L567.141 427.569L567.141 427.569L567.142 427.569L567.143 427.57L567.143 427.57L567.144 427.57L567.145 427.57L567.146 427.57L567.146 427.57L567.147 427.571L567.148 427.571L567.148 427.571L567.149 427.571L567.15 427.571L567.151 427.572L567.151 427.572L567.152 427.572L567.153 427.572L567.153 427.572L567.154 427.572L567.155 427.573L567.156 427.573L567.156 427.573L567.157 427.573L567.158 427.573L567.158 427.573L567.159 427.574L567.16 427.574L567.16 427.574L567.161 427.574L567.162 427.574L567.163 427.575C576.01 429.626 587.19 426.674 594.904 420.16C602.902 413.404 608.525 402.644 611.076 388.939C614.719 369.347 612.022 348.142 609.128 325.476L609.118 325.394C606.992 308.75 604.784 291.46 605.112 273.975C605.572 249.348 613.169 225.535 626.528 206.929L627.338 207.528L626.528 206.929C643.233 183.667 667.426 170.214 696.445 168.04C709.021 167.097 721.725 168.274 735.269 171.626C741.289 173.116 747.55 175.073 753.88 177.439L753.88 177.439C770.155 183.527 785.298 191.607 799.874 199.383L799.925 199.411L800.017 199.46C807.825 203.626 815.178 207.549 822.422 211.027C836.72 217.888 852.063 223.371 868.031 227.322C897.215 234.544 927.342 236.362 955.139 232.585C955.139 232.585 955.139 232.585 955.139 232.585L964.036 231.375L964.882 231.26L965.137 232.089L967.511 239.817L967.511 239.818L976.192 268.092L976.192 268.092L978.567 275.82L978.911 276.941L977.767 277.097L968.87 278.307L968.87 278.307C941.066 282.083 912.186 281.593 883.03 276.861L883.03 276.861C874.655 275.498 866.259 273.782 858.075 271.757C837.874 266.758 818.245 259.717 799.738 250.835C791.321 246.796 783.063 242.392 775.093 238.142L774.81 237.991L774.801 237.986L774.793 237.982Z" stroke="url(#paint0_linear_331_4374)" stroke-width="2"/>
<defs>
<linearGradient id="paint0_linear_331_4374" x1="950.291" y1="397.029" x2="-35.912" y2="174.185" gradientUnits="userSpaceOnUse">
<stop stop-color="#FF12DC" stop-opacity="0"/>
<stop offset="0.9999" stop-color="#FF12DC"/>
</linearGradient>
</defs>
</svg>
