<svg width="29" height="30" viewBox="0 0 29 30" fill="none" xmlns="http://www.w3.org/2000/svg">
<g clip-path="url(#clip0_67_1240)">
<path d="M4.22461 28.7431V23.6057H9.36206" stroke="white" stroke-width="2" stroke-linecap="round" stroke-linejoin="round"/>
<path d="M27.6304 12.9309C28.9087 19.7287 24.7488 26.4678 17.957 28.2878C12.7588 29.6806 7.45492 27.807 4.22461 23.9251" stroke="white" stroke-width="2" stroke-linecap="round" stroke-linejoin="round"/>
<path d="M1.3688 17.8404C0.0905138 11.0427 4.25046 4.30345 11.0422 2.4836C16.2401 1.09085 21.5436 2.96411 24.774 6.84543" stroke="white" stroke-width="2" stroke-linecap="round" stroke-linejoin="round"/>
<path d="M24.7741 2.02881V7.16627H19.6367" stroke="white" stroke-width="2" stroke-linecap="round" stroke-linejoin="round"/>
<path d="M8.47098 16.0768C7.74405 15.9503 7.74405 14.9068 8.47098 14.7803C11.1045 14.3222 13.1991 12.3163 13.7707 9.70503L13.8145 9.50487C13.9718 8.78643 14.9948 8.78196 15.1583 9.49899L15.2115 9.73225C15.8043 12.3312 17.8995 14.3201 20.5257 14.777C21.2562 14.9042 21.2562 15.953 20.5257 16.0801C17.8995 16.537 15.8043 18.526 15.2115 21.1249L15.1583 21.3581C14.9948 22.0752 13.9718 22.0707 13.8145 21.3523L13.7707 21.1521C13.1991 18.5409 11.1045 16.535 8.47098 16.0768Z" stroke="white" stroke-width="2" stroke-linecap="round" stroke-linejoin="round"/>
</g>
<defs>
<clipPath id="clip0_67_1240">
<rect width="29" height="29" fill="white" transform="translate(0 0.885742)"/>
</clipPath>
</defs>
</svg>
