<svg width="1584" height="361" viewBox="0 0 1584 361" fill="none" xmlns="http://www.w3.org/2000/svg">
<path d="M22.7717 75.4504L0.431152 90.6223L30.775 135.303L53.1155 120.131C66.3883 111.117 89.4575 101.291 124.062 105.56C150.258 108.788 177.726 119.511 201.41 135.745C235.286 158.964 262.987 190.103 292.29 223.043L292.321 223.078C305.132 237.477 318.377 252.365 332.204 266.558C359.063 294.13 386.288 315.907 413.127 331.292C447.065 350.747 481.386 360.629 515.15 360.689V360.677H515.461H515.462H515.463H515.464H515.466H515.467H515.468H515.469H515.47H515.472H515.473H515.474H515.475H515.476H515.478H515.479H515.48H515.481H515.482H515.484H515.485H515.486H515.487H515.488H515.49H515.491H515.492H515.493H515.494H515.496H515.497H515.498H515.499H515.5H515.502H515.503H515.504H515.505H515.506H515.508H515.509H515.51H515.511H515.512H515.514H515.515H515.516H515.517H515.518H515.52H515.521H515.522H515.523H515.524H515.526H515.527H515.528H515.529H515.53H515.531H515.533H515.534H515.535H515.536H515.537H515.539H515.54H515.541H515.542H515.543H515.545H515.546H515.547H515.548H515.549H515.551H515.552H515.553H515.554H515.555H515.557H515.558H515.559H515.56H515.561H515.562H515.564H515.565H515.566H515.567H515.568H515.57H515.571H515.572H515.573H515.574H515.576H515.577H515.578H515.579H515.58H515.581H515.583H515.584H515.585H515.586H515.587H515.589H515.59H515.591H515.592H515.593H515.595H515.596H515.597H515.598H515.599H515.6H515.602H515.603H515.604H515.605H515.606H515.608H515.609H515.61H515.611H515.612H515.614H515.615H515.616H515.617H515.618H515.62H515.621H515.622H515.623H515.624H515.625H515.627H515.628H515.629H515.63H515.631H515.633H515.634H515.635H515.636H515.637H515.638H515.64H515.641H515.642H515.643H515.644H515.646H515.647H515.648H515.649H515.65H515.651H515.653H515.654H515.655H515.656H515.657H515.659H515.66H515.661H515.662H515.663H515.665H515.666H515.667H515.668H515.669H515.67H515.672H515.673H515.674H515.675H515.676H515.678H515.679H515.68H515.681H515.682H515.683H515.685H515.686H515.687H515.688H515.689H515.691H515.692H515.693H515.694H515.695H515.697H515.698H515.699H515.7H515.701H515.702H515.704H515.705H515.706H515.707H515.708H515.709H515.711H515.712H515.713H515.714H515.715H515.717H515.718H515.719H515.72H515.721H515.723H515.724H515.725H515.726H515.727H515.729H515.73H515.731H515.732H515.733H515.734H515.736H515.737H515.738H515.739H515.74H515.741H515.743H515.744H515.745H515.746H515.747H515.749H515.75H515.751H515.752H515.753H515.755H515.756H515.757H515.758H515.759H515.76H515.762H515.763H515.764H515.765H515.766H515.767H515.769H515.77H515.771H515.772H515.773H515.775H515.776H515.777H515.778H515.779H515.781H515.782H515.783H515.784H515.785H515.786H515.788H515.789H515.79H515.791H515.792H515.793H515.795H515.796H515.797H515.798H515.799H515.801H515.802H515.803H515.804H515.805H515.807H515.808H515.809H515.81H515.811H515.812H515.814H515.815H515.816H515.817H515.818H515.82H515.821H515.822H515.823H515.824H515.825H515.827H515.828H515.829H515.83H515.831H515.833H515.834H515.835H515.836H515.837H515.839H515.84H515.841H515.842H515.843H515.844H515.846H515.847H515.848H515.849H515.85H515.851H515.853H515.854H515.855H515.856H515.857H515.859H515.86H515.861H515.862H515.863H515.865H515.866H515.867H515.868H515.869H515.87H515.872H515.873H515.874H515.875H515.876H515.878H515.879H515.88H515.881H515.882H515.883H515.885H515.886H515.887H515.888H515.889H515.891H515.892H515.893H515.894H515.895H515.896H515.898H515.899H515.9H515.901H515.902H515.904H515.905H515.906H515.907H515.908H515.91H515.911H515.912H515.913H515.914H515.916H515.917H515.918H515.919H515.92H515.921H515.923H515.924H515.925H515.926H515.927H515.929H515.93H515.931H515.932H515.933H515.934H515.936H515.937H515.938H515.939H515.94H515.942H515.943H515.944H515.945H515.946H515.948H515.949H515.95H515.951H515.952H515.953H515.955H515.956H515.957H515.958H515.959H515.961H515.962H515.963H515.964H515.965H515.967H515.968H515.969H515.97H515.971H515.973H515.974H515.975H515.976H515.977H515.979H515.98H515.981H515.982H515.983H515.984H515.986H515.987H515.988H515.989H515.99H515.992H515.993H515.994H515.995H515.996H515.998H515.999H516H516.001H516.002H516.004H516.005H516.006H516.007H516.008H516.01H516.011H516.012H516.013H516.014H516.016H516.017H516.018H516.019H516.02H516.021H516.023H516.024H516.025H516.026H516.027H516.029H516.03H516.031H516.032H516.033H516.035H516.036H516.037H516.038H516.039H516.041H516.042H516.043H516.044H516.045H516.047H516.048H516.049H516.05H516.051H516.052H516.054H516.055H516.056H516.057H516.059H516.06H516.061H516.062H516.063H516.065H516.066H516.067H516.068C537.857 360.603 560.351 355.016 581.101 344.52C601.251 334.333 618.977 319.947 632.357 302.93C655.374 273.663 663.706 239.447 655.852 206.566C650.335 183.463 637.641 163.595 626.41 146.016L626.373 145.959L626.367 145.949C619.941 135.897 613.937 126.506 609.744 117.519C605.548 108.528 603.15 99.9098 603.964 91.4043C605.107 79.4587 613.251 71.2684 619.842 66.5175C634.248 56.1288 655.547 51.8206 672.855 55.7951C708.31 63.9398 737.376 92.655 766.413 123.802L767.785 125.273L767.558 125.485L767.785 125.273L767.786 125.275C798.83 158.573 833.945 196.238 882.426 211.674C899.558 217.126 916.499 219.407 933.257 219.407C976.755 219.407 1019.02 204.058 1060.34 189.049L1060.42 189.02C1107.97 171.75 1153 155.399 1195.68 163.801C1234.9 171.526 1267.75 199.347 1302.44 228.731L1302.49 228.774C1318.63 242.445 1335.3 256.572 1353.11 269.015L1352.93 269.27L1353.11 269.015C1373.94 283.587 1398.5 294.548 1424.14 300.71C1451.67 307.331 1478.54 307.848 1501.84 302.206C1532.89 294.695 1556.7 276.689 1570.72 250.141L1570.99 250.286L1570.72 250.141L1583.33 226.272L1535.57 201.059L1522.96 224.94L1522.69 224.795L1522.96 224.94C1516.2 237.75 1505.12 245.858 1489.15 249.718C1458.77 257.069 1415.57 246.791 1384.07 224.758C1368.37 213.779 1353.4 201.105 1337.57 187.705L1337.41 187.567L1337.61 187.33L1337.41 187.567C1298.88 154.929 1259.11 121.246 1206.13 110.81C1148.71 99.4993 1094.46 119.197 1041.91 138.286C1016.48 147.522 991.737 156.51 967.845 161.436C943.949 166.363 920.883 167.232 898.82 160.211C863.803 149.061 835.064 118.232 807.335 88.488L807.298 88.4484L805.92 86.9709L806.147 86.7592L805.92 86.9709C772.251 50.8558 735.222 14.7081 684.952 3.15987C652.403 -4.31944 615.346 3.17379 588.252 22.7141C566.099 38.6899 552.593 61.2592 550.2 86.2673C546.803 121.761 564.863 150.026 580.87 175.057L580.889 175.087C590.651 190.359 599.913 204.849 603.321 219.117C608.376 240.285 598.799 258.237 589.904 269.549C572.242 292.005 543.194 306.58 515.878 306.673H515.875H515.874H515.872H515.87H515.869H515.867H515.866H515.864H515.862H515.861H515.859H515.858H515.856H515.854H515.853H515.851H515.849H515.848H515.846H515.845H515.843H515.841H515.84H515.838H515.837H515.835H515.833H515.832H515.83H515.829H515.827H515.825H515.824H515.822H515.82H515.819H515.817H515.816H515.814H515.812H515.811H515.809H515.807H515.806H515.804H515.803H515.801H515.799H515.798H515.796H515.795H515.793H515.791H515.79H515.788H515.786H515.785H515.783H515.781H515.78H515.778H515.777H515.775H515.773H515.772H515.77H515.769H515.767H515.765H515.764H515.762H515.76H515.759H515.757H515.755H515.754H515.752H515.751H515.749H515.747H515.746H515.744H515.742H515.741H515.739H515.738H515.736H515.734H515.733H515.731H515.729H515.728H515.726H515.724H515.723H515.721H515.72H515.718H515.716H515.715H515.713H515.711H515.71H515.708H515.706H515.705H515.703H515.702H515.7H515.698H515.697H515.695H515.693H515.692H515.69H515.688H515.687H515.685H515.684H515.682H515.68H515.679H515.677H515.675H515.674H515.672H515.67H515.669H515.667H515.666H515.664H515.662H515.661H515.659H515.657H515.656H515.654H515.652H515.651H515.649H515.648H515.646H515.644H515.643H515.641H515.639H515.638H515.636H515.634H515.633H515.631H515.63H515.628H515.626H515.625H515.623H515.621H515.62H515.618H515.616H515.615H515.613H515.612H515.61H515.608H515.607H515.605H515.603H515.602H515.6H515.599H515.597H515.595H515.594H515.592H515.59H515.589H515.587H515.585H515.584H515.582H515.581H515.579H515.577H515.576H515.574H515.572H515.571H515.569H515.568H515.566H515.564H515.563H515.561H515.559H515.558H515.556H515.554H515.553H515.551H515.55H515.548H515.546H515.545H515.543H515.542H515.54H515.538H515.537H515.535H515.533H515.532H515.53H515.528H515.527H515.525H515.524H515.522H515.52H515.519H515.517H515.516H515.514H515.512H515.511H515.509H515.507H515.506H515.504H515.503H515.501H515.499H515.498H515.496H515.495H515.493H515.491H515.49H515.488H515.486H515.485H515.483H515.482H515.48H515.479H515.477H515.475H515.474H515.472H515.47H515.469H515.467H515.466H515.464H515.462H515.461C469.785 306.673 421.15 280.464 370.895 228.867C358.017 215.644 345.279 201.334 332.955 187.488L332.644 187.139L332.876 186.932L332.644 187.139L332.637 187.13C302.439 153.189 271.245 118.128 231.944 91.1933C201.252 70.1555 165.286 56.2254 130.673 51.9545C90.0742 46.9464 52.7671 55.0798 22.7717 75.4504ZM515.461 360.988H515.771H515.461Z" stroke="#4E47FF" stroke-width="0.620805"/>
</svg>
