<svg width="1549" height="533" viewBox="0 0 1549 533" fill="none" xmlns="http://www.w3.org/2000/svg">
<path d="M947.347 520.751C962.738 528.145 978.817 531.882 994.533 531.892L994.559 531.885H994.62C1005.79 531.885 1016.77 530.007 1027.22 526.219C1061.75 513.699 1086.02 483.905 1095.52 442.252L1096.01 442.363L1095.52 442.252C1103.16 408.773 1100.77 369.522 1088.96 334.583C1075.12 293.657 1052.45 256.367 1021.5 223.566L1021.13 223.173L1021.55 222.834C1035.83 211.325 1051.19 201.02 1067.46 192.057C1092.62 178.193 1119.33 167.869 1146.85 161.378C1174.91 154.763 1203.21 152.276 1230.97 153.991C1258.74 155.705 1286.52 161.654 1313.55 171.671L1313.37 172.14L1313.55 171.671C1340.06 181.499 1365.3 195.029 1388.57 211.883C1411.84 228.736 1432.56 248.509 1450.16 270.637C1468.1 293.197 1482.41 317.736 1492.7 343.586L1492.23 343.771L1492.7 343.586L1501.93 366.795L1548.35 348.325L1539.12 325.116C1527.02 294.723 1510.25 265.931 1489.26 239.538C1468.83 213.863 1444.81 190.947 1417.88 171.428C1390.93 151.91 1361.68 136.234 1330.91 124.831L1331.09 124.363L1330.91 124.831C1299.3 113.109 1266.7 106.143 1234.06 104.128C1201.41 102.113 1168.21 105.015 1135.39 112.758C1103.46 120.292 1072.49 132.249 1043.35 148.304C1022.2 159.955 1002.36 173.576 984.112 188.951L983.801 189.213L983.482 188.963C956.417 167.801 925.749 150.175 893.197 137.199C848.412 119.351 800.138 110.349 753.684 111.158C703.733 112.032 657.189 123.694 615.338 145.813C568.409 170.611 526.789 206.467 486.489 241.187C452.911 270.115 420.222 298.276 386.147 318.681C352.064 339.092 316.558 351.766 277.337 349.692C246.327 348.046 214.801 336.005 186.162 314.889C159.071 294.907 135.293 267.671 117.402 236.123C81.3196 172.491 67.5419 97.5725 54.2363 25.2201L54.2231 25.1485L54.7148 25.058L54.223 25.1484L49.7081 0.582227L0.582153 9.61843L5.09717 34.1848C18.5171 107.178 33.72 189.812 73.9498 260.766C95.2782 298.374 123.831 330.995 156.511 355.094C193.055 382.041 233.921 397.417 274.685 399.58C278.472 399.782 282.232 399.88 285.953 399.88C378.795 399.88 449.981 338.573 519.086 279.042L519.141 278.994C557.263 246.154 596.737 212.147 638.668 189.982C673.527 171.554 712.518 161.843 754.541 161.11C794.484 160.423 836.01 168.197 874.689 183.61C900.675 193.967 925.23 207.719 947.187 224.103L947.623 224.428L947.262 224.835C930.492 243.745 916.025 264.213 904.109 285.919C890.099 311.453 880.661 337.146 876.047 362.289C870.541 392.323 872.173 420.567 880.876 446.24C891.669 478.073 916.522 505.934 947.347 520.751ZM985.472 258.169C1011.3 285.631 1030.17 316.672 1041.64 350.581L1041.17 350.741L1041.64 350.581C1050.45 376.632 1052.39 406.742 1046.82 431.141C1042.89 448.392 1033.35 470.865 1010.19 479.258C994.249 485.039 978.977 480.506 969.012 475.717C950.317 466.731 934.682 449.292 928.209 430.191C920.51 407.483 921.963 383.76 927.07 362.559C932.177 341.357 940.947 322.647 947.92 309.941C958.024 291.525 970.32 274.132 984.598 258.029L985.472 257.043V258.169Z" stroke="#4E47FF" stroke-opacity="0.4"/>
</svg>
