<svg width="392" height="559" viewBox="0 0 392 559" fill="none" xmlns="http://www.w3.org/2000/svg">
<path d="M183.34 13.2506C186.75 13.4906 190.4 14.1706 192.78 16.6306C194.8 18.7006 195.55 21.6706 196 24.5206C196.52 27.7806 196.73 31.2906 195.21 34.2306C193.51 37.5306 190 39.4406 186.59 40.9406C171.75 47.4606 155.09 49.7606 139.06 47.4806C136.87 47.1706 134.61 46.7406 132.85 45.4206C131.07 44.0806 130.03 42.0006 129.04 40.0006C128.12 38.1106 127.18 36.0706 127.49 34.0106C127.77 32.2406 128.94 30.7406 130.16 29.4306C136.29 22.8506 144.69 18.7106 153.36 16.3206C162.04 13.9206 171.06 13.1506 180.03 12.3906" fill="white"/>
<path d="M183.339 12.1998C188.469 12.5898 193.479 14.0798 195.659 19.1698C196.689 21.5498 197.109 24.1999 197.339 26.7699C197.589 29.5399 197.369 32.4398 196.019 34.9298C193.519 39.5398 187.959 41.6199 183.349 43.4099C177.579 45.6499 171.559 47.2699 165.439 48.2399C159.549 49.1799 153.559 49.5598 147.589 49.3098C144.559 49.1798 141.549 48.8999 138.559 48.4599C135.859 48.0599 133.139 47.3598 131.189 45.3298C129.379 43.4498 128.179 40.8698 127.209 38.4798C126.109 35.7798 126.109 33.0898 127.799 30.6398C130.809 26.2698 135.689 22.8598 140.279 20.3598C152.449 13.7198 166.469 12.4599 180.029 11.2999C181.379 11.1799 181.369 13.2899 180.029 13.4099C169.019 14.3499 157.819 15.3198 147.419 19.3598C142.739 21.1798 138.229 23.6398 134.369 26.8698C132.539 28.3998 130.519 30.1498 129.279 32.2298C127.659 34.9298 129.049 37.6698 130.329 40.1898C131.499 42.5198 132.879 44.6599 135.459 45.5798C138.029 46.4998 140.709 46.6598 143.319 46.8898C148.699 47.3898 154.119 47.3698 159.489 46.8598C164.859 46.3498 170.169 45.3399 175.339 43.8499C180.509 42.3599 185.429 40.7498 189.829 38.0798C192.169 36.6698 194.159 34.7498 194.909 32.0398C195.659 29.3298 195.289 26.1398 194.719 23.3298C194.179 20.6798 193.239 17.9699 190.899 16.3799C188.699 14.8699 185.929 14.4699 183.339 14.2699C181.989 14.1699 181.979 12.0499 183.339 12.1599V12.1998Z" fill="white"/>
<path d="M181.37 16.7609C185.92 16.3609 190.13 20.5409 190.45 25.1109C190.77 29.6809 187.74 34.0809 183.65 36.1609C181.28 37.3709 178.62 37.8909 176.02 38.4109C170.04 39.5809 164.03 40.7409 157.95 41.0009C155.06 41.1209 151.97 40.9709 149.64 39.2609C147.43 37.6509 146.33 34.9009 145.94 32.2009C145.66 30.3209 145.7 28.3509 146.43 26.6009C147.72 23.5309 150.87 21.6809 154.03 20.6109C157.05 19.5809 160.21 19.0609 163.38 18.6509C168.33 18.0109 173.32 17.6409 178.32 17.5309" fill="#473CC2"/>
<path d="M162.279 10.8693C162.059 10.1693 162.189 9.55931 162.569 8.94931C163.039 8.20931 164.099 7.44932 162.889 6.76932C161.959 6.23932 160.639 6.78931 159.669 6.97931C158.699 7.16931 157.719 7.28931 156.739 7.28931C154.859 7.28931 152.979 6.93931 151.239 6.24931C149.499 5.54931 147.969 4.43932 146.359 3.43932C144.619 2.35932 142.799 1.66931 140.829 2.58931C139.199 3.34931 137.939 4.69931 136.559 5.80931C133.499 8.25931 129.969 9.99931 126.179 10.9793C124.869 11.3193 124.309 9.27932 125.629 8.93932C127.849 8.36932 129.969 7.53931 131.969 6.39931C133.959 5.25931 135.529 3.86932 137.249 2.46932C138.689 1.30932 140.239 0.239308 142.129 0.0393081C144.019 -0.160692 145.829 0.619321 147.429 1.59932C149.279 2.73932 150.969 4.01931 153.079 4.63931C155.459 5.33931 157.689 5.20932 160.089 4.71932C161.899 4.35932 163.979 4.25931 165.139 5.99931C165.539 6.58931 165.749 7.31931 165.609 8.03931C165.529 8.46931 165.319 8.83931 165.069 9.19931C164.909 9.43931 164.229 9.98932 164.339 10.3193C164.749 11.6193 162.709 12.1793 162.299 10.8793H162.279V10.8693Z" fill="white"/>
<path d="M125.929 6.73954C123.849 5.98954 122.529 8.39953 121.729 9.90953C120.929 11.4195 120.149 12.8295 118.699 13.7295C117.069 14.7395 115.139 14.7895 113.329 15.2895C112.499 15.5195 111.559 15.8895 111.009 16.5895C110.389 17.3795 110.499 18.3995 110.549 19.3395C110.649 21.0295 110.549 22.5795 109.399 23.9195C108.309 25.1795 106.739 25.8395 105.569 26.9895C102.479 30.0095 103.819 34.8795 107.589 36.4995C108.839 37.0295 107.759 38.8495 106.529 38.3295C103.629 37.0995 101.609 34.1295 101.719 30.9395C101.769 29.3395 102.299 27.7595 103.249 26.4795C104.199 25.1895 105.539 24.4095 106.799 23.4595C107.409 22.9995 108.059 22.4495 108.329 21.7095C108.649 20.8395 108.459 19.8395 108.419 18.9495C108.339 17.3495 108.669 15.8595 109.889 14.7495C112.499 12.3995 116.869 13.6295 118.929 10.5995C119.949 9.09954 120.489 7.31953 121.829 6.02953C123.069 4.81953 124.789 4.09954 126.489 4.70954C127.759 5.16954 127.209 7.20953 125.929 6.74953V6.73954Z" fill="white"/>
<path d="M181.369 15.7097C188.389 15.2797 193.039 22.9197 190.979 29.2097C189.909 32.4497 187.529 35.2497 184.539 36.8797C180.909 38.8697 176.559 39.3797 172.559 40.1297C168.139 40.9597 163.699 41.6897 159.219 41.9697C155.639 42.1897 151.679 42.1997 148.729 39.8597C145.789 37.5197 144.699 33.5797 144.719 30.0497C144.739 26.5197 146.589 23.4397 149.629 21.4897C153.479 19.0097 158.279 18.2497 162.719 17.6497C167.889 16.9597 173.079 16.5597 178.289 16.4497C179.659 16.4197 179.659 18.5297 178.289 18.5597C174.339 18.6597 170.379 18.8997 166.439 19.3197C162.489 19.7397 158.869 20.1897 155.249 21.2897C152.469 22.1397 149.419 23.4997 147.849 26.0997C146.129 28.9397 146.659 33.1197 148.189 35.9397C149.859 39.0197 152.969 39.9097 156.279 39.9497C160.019 39.9997 163.799 39.4897 167.479 38.8797C171.159 38.2797 174.869 37.6397 178.499 36.7897C181.709 36.0397 184.719 34.8097 186.889 32.2197C189.069 29.6397 190.129 26.0397 188.849 22.8397C187.629 19.8097 184.669 17.5897 181.349 17.7897C179.989 17.8697 179.999 15.7597 181.349 15.6797L181.369 15.6997V15.7097Z" fill="#D6FA7B"/>
<path d="M185.939 33.9294C180.439 28.9894 174.929 24.0494 169.419 19.1194C168.409 18.2094 169.909 16.7295 170.909 17.6295C176.419 22.5695 181.919 27.5095 187.429 32.4395C188.439 33.3495 186.949 34.8394 185.939 33.9294Z" fill="#D6FA7B"/>
<path d="M182.959 36.3297C177.549 30.3597 171.389 25.1497 165.249 19.9597C164.219 19.0797 165.719 17.5997 166.739 18.4697C172.879 23.6597 179.029 28.8797 184.449 34.8497C185.349 35.8497 183.869 37.3497 182.959 36.3397V36.3297Z" fill="#D6FA7B"/>
<path d="M163.54 40.1208C158.42 35.2208 153.14 30.4908 147.74 25.9108C146.71 25.0308 148.2 23.5508 149.23 24.4208C154.64 29.0008 159.9 33.7508 165.03 38.6308C166.01 39.5708 164.53 41.0608 163.54 40.1208Z" fill="#D6FA7B"/>
<path d="M159.01 45.7C154.3 45.44 149.339 44.98 145.719 41.62C143.949 39.96 142.329 37.89 141.119 35.8C139.919 33.7 139.249 31.35 139.619 28.88C139.819 27.54 141.849 28.11 141.649 29.44C141.339 31.58 142.229 33.64 143.349 35.4C144.469 37.16 145.859 38.93 147.429 40.34C150.559 43.13 155.03 43.38 159 43.6C160.35 43.67 160.36 45.78 159 45.71H159.01V45.7Z" fill="#D6FA7B"/>
<path d="M122.52 51.7706C121.61 50.7006 120.09 50.3206 118.71 50.4906C118.04 50.5706 117.49 50.8506 117.17 51.4706C116.86 52.0906 116.74 52.8706 116.75 53.5906C116.8 56.6706 119.38 59.2106 122.22 60.0506C122.92 60.2606 123.84 60.4106 124.49 59.9306C124.95 59.5906 125.17 59.1006 124.96 58.5606C124.75 58.0206 125.19 57.4006 125.7 57.2606C126.3 57.0906 126.79 57.4606 127 58.0006C127.36 58.9306 127.12 60.0006 126.55 60.7906C125.88 61.7106 124.91 62.2006 123.78 62.3206C121.63 62.5406 119.36 61.2706 117.76 59.9306C116.09 58.5206 114.96 56.5206 114.69 54.3406C114.43 52.1606 115.12 49.5106 117.36 48.6406C119.61 47.7806 122.51 48.5206 124 50.2606C124.37 50.6906 124.42 51.3306 124 51.7506C123.62 52.1306 122.88 52.1806 122.51 51.7506H122.52V51.7706Z" fill="white"/>
<path d="M126.629 36.1895C120.839 39.7995 113.889 40.9394 107.259 42.5394C106.829 42.6394 106.389 42.7594 106.109 43.0894C105.819 43.4194 105.759 43.8694 105.739 44.2894C105.549 47.5094 106.899 50.7795 109.299 52.9395L115.709 52.0894C115.709 52.0894 116.029 49.6395 118.269 49.5795C120.509 49.5195 122.679 49.5795 122.679 49.5795L128.749 47.6095L132.869 45.4194L126.639 36.1895H126.629Z" fill="white"/>
<path d="M127.16 37.0995C122.64 39.8495 117.53 41.2395 112.43 42.4295C111.16 42.7195 109.89 43.0095 108.64 43.3095C108.17 43.4195 107.11 43.4795 106.83 43.9495C106.62 44.2995 106.76 45.1295 106.78 45.5195C106.94 48.0895 108.16 50.4695 110.03 52.2095L109.28 51.8995C111.41 51.6195 113.56 51.3295 115.69 51.0495L114.67 51.8195C114.85 50.6395 115.61 49.4795 116.67 48.9295C118.63 47.9095 121.08 49.0495 123.07 48.3495C125.07 47.6495 127.2 47.2395 129.05 46.2495C130.14 45.6695 131.23 45.0995 132.31 44.5195L131.93 45.9695C129.86 42.8895 127.78 39.8195 125.7 36.7395C124.94 35.6095 126.76 34.5595 127.52 35.6695C129.6 38.7495 131.68 41.8195 133.76 44.8995C134.07 45.3595 133.87 46.0895 133.38 46.3495C132.43 46.8595 131.48 47.3595 130.53 47.8695C129.05 48.6495 127.56 49.1295 125.96 49.6395C124.9 49.9895 123.73 50.5595 122.61 50.6595C121.75 50.7395 120.85 50.6295 119.99 50.6395C118.44 50.6395 116.97 50.5895 116.7 52.3995C116.63 52.8995 116.11 53.1195 115.69 53.1695C113.71 53.4295 111.72 53.7895 109.74 53.9595C108.35 54.0795 107.51 52.7495 106.78 51.6895C105.67 50.1095 104.99 48.2395 104.75 46.3295C104.54 44.7495 104.42 42.6795 106.09 41.8495C107.01 41.3895 108.18 41.2595 109.19 41.0295C110.38 40.7495 111.57 40.4895 112.76 40.2095C117.4 39.1095 122 37.8095 126.09 35.2995C127.25 34.5895 128.32 36.4195 127.16 37.1195V37.0995Z" fill="white"/>
<path d="M117.509 70.3608C112.829 65.3308 109.939 58.9108 109.199 52.0908C109.049 50.7408 111.159 50.7508 111.309 52.0908C111.979 58.3408 114.739 64.2808 119.009 68.8808C119.939 69.8708 118.439 71.3708 117.519 70.3708H117.509V70.3608Z" fill="white"/>
<path d="M129.49 62.0792C129.9 62.8392 130.76 63.1992 131.34 63.8192C132 64.5192 132.43 65.4392 132.22 66.4192C131.93 67.7292 130.69 68.2592 129.59 68.7292C129.35 68.8392 129.11 68.9492 128.87 69.0892C128.81 69.1192 128.75 69.1592 128.7 69.2092C128.77 69.1492 128.76 69.1592 128.66 69.2392C128.64 69.2392 128.45 69.4792 128.57 69.3392C128.48 69.4592 128.51 69.2992 128.5 69.4792C128.48 69.6592 128.56 69.7992 128.63 69.9492C128.84 70.3692 129.19 70.7092 129.46 71.0892C129.97 71.8292 130.27 72.7392 129.95 73.6092C129.58 74.6092 128.68 75.1492 127.64 74.9692C127.08 74.8692 126.76 74.1792 126.9 73.6692C127.06 73.0792 127.64 72.8392 128.2 72.9292C127.49 72.7992 128.08 73.0792 127.99 72.8292C127.86 72.4992 127.71 72.2492 127.5 71.9692C127.01 71.2892 126.5 70.6592 126.41 69.7992C126.27 68.5192 127.12 67.5792 128.21 67.0692C128.63 66.8692 129.08 66.7092 129.5 66.4992C129.6 66.4492 129.7 66.3992 129.79 66.3392C129.79 66.3392 130.07 66.1492 129.93 66.2592C130.01 66.1992 130.07 66.1092 130.15 66.0492C130.05 66.1292 130.13 65.9492 130.13 66.0792C130.13 65.8792 130.16 65.7592 130.02 65.5392C129.85 65.2692 129.57 65.0592 129.32 64.8492C128.69 64.3592 128.06 63.8892 127.67 63.1592C127.03 61.9692 128.84 60.8992 129.5 62.0892H129.49V62.0792Z" fill="white"/>
<path d="M121.339 77.4509C118.379 78.8009 120.299 82.1209 121.159 84.2609C122.339 87.2009 123.629 90.0909 124.999 92.9509C125.579 94.1709 123.769 95.2408 123.179 94.0208C121.539 90.6008 120.029 87.1308 118.649 83.6108C118.059 82.1108 117.349 80.5809 117.669 78.9409C117.939 77.5109 118.97 76.2409 120.29 75.6409C121.51 75.0809 122.589 76.9009 121.349 77.4709H121.339V77.4509Z" fill="white"/>
<path d="M174.159 114.211C171.099 106.161 167.049 98.2011 160.419 92.5011C157.359 89.8611 153.799 87.7811 149.899 86.6811C145.429 85.3911 140.739 85.3012 136.179 84.6312C131.649 83.9812 127.229 82.6711 123.649 79.7211C122.609 78.8611 124.109 77.3712 125.139 78.2312C132.379 84.2012 142.709 82.1911 151.139 84.8411C159.029 87.3311 165.299 93.2911 169.689 100.151C172.389 104.371 174.419 108.981 176.209 113.661C176.689 114.931 174.639 115.491 174.169 114.221H174.159V114.211Z" fill="white"/>
<path d="M160.54 98.3296C157.18 93.7596 152.34 90.4796 146.89 88.9796L148.18 87.6796C149.26 93.0896 152.52 97.5896 155.73 101.94C156.3 102.71 155.36 103.72 154.53 103.49C145.43 100.94 136.56 97.6396 127.99 93.6596C126.75 93.0896 127.83 91.2596 129.05 91.8296C137.46 95.7496 146.17 98.9496 155.1 101.45L153.91 103C150.6 98.4896 147.27 93.8196 146.15 88.2296C145.99 87.4596 146.62 86.7096 147.44 86.9296C153.46 88.5896 158.67 92.2296 162.35 97.2496C163.15 98.3496 161.33 99.3996 160.53 98.3196H160.54V98.3296Z" fill="white"/>
<path d="M119.849 93.8288C117.379 94.9788 115.039 96.3688 112.859 97.9888C112.389 98.3288 111.679 98.0588 111.409 97.6088C111.099 97.0688 111.33 96.4989 111.79 96.1689C113.99 94.5489 116.33 93.1589 118.79 92.0089C119.31 91.7689 119.93 91.8589 120.23 92.3889C120.5 92.8389 120.369 93.5888 119.849 93.8388V93.8288Z" fill="white"/>
<path d="M118.089 99.49C113.569 98.06 108.629 99.3101 106.159 103.56C103.689 107.81 104.049 112.73 104.409 117.35C104.789 122.22 104.879 126.96 103.599 131.73C102.389 136.15 100.269 140.23 97.4191 143.82C96.5791 144.89 95.0892 143.38 95.9392 142.33C101.039 135.89 103.039 128 102.499 119.88C102.019 112.85 100.939 103.99 107.309 99.0901C110.519 96.6201 114.869 96.2601 118.649 97.4701C119.939 97.8801 119.389 99.9201 118.089 99.5101V99.49Z" fill="white"/>
<path d="M125.359 106.181C130.699 110.061 135.029 116.321 135.689 123.021C135.879 124.881 135.129 126.141 134.259 127.691C133.169 129.631 133.829 131.581 134.609 133.511C136.219 137.431 137.219 141.181 136.709 145.461C136.559 146.791 134.449 146.811 134.599 145.461C135.069 141.451 134.179 137.961 132.659 134.291C132.029 132.751 131.43 131.101 131.53 129.401C131.65 127.591 132.829 126.441 133.429 124.811C133.989 123.301 133.289 121.341 132.829 119.871C132.349 118.331 131.709 116.851 130.919 115.451C129.279 112.521 127.01 109.961 124.3 107.981C123.21 107.191 124.259 105.351 125.359 106.161V106.181Z" fill="white"/>
<path d="M167.14 63.0896C162.54 63.5796 157.9 62.7297 153.73 60.7397L155.18 59.2896C157.08 62.9596 160.05 65.9297 163.72 67.8197C164.93 68.4397 163.86 70.2696 162.66 69.6496C158.69 67.5996 155.41 64.3197 153.36 60.3597C152.86 59.3897 153.86 58.4597 154.81 58.9097C158.65 60.7497 162.93 61.4196 167.15 60.9796C167.72 60.9196 168.21 61.5097 168.21 62.0297C168.21 62.6497 167.72 63.0197 167.15 63.0797H167.14V63.0896Z" fill="white"/>
<path d="M170.94 46.9593L173.36 49.0193L174.52 49.9993C174.96 50.3793 175.46 50.7493 175.54 51.3693C175.71 52.6493 174.49 53.2493 173.59 53.8493C172.69 54.4493 171.82 55.0393 170.93 55.6393C170.46 55.9593 169.76 55.7393 169.48 55.2593C169.18 54.7393 169.39 54.1293 169.86 53.8093C170.59 53.3093 171.33 52.8293 172.06 52.3293C172.45 52.0693 172.83 51.8093 173.22 51.5493C173.29 51.4993 173.38 51.4493 173.45 51.3893C173.55 51.3293 173.57 51.3093 173.52 51.3493C173.52 51.3493 173.523 51.3427 173.53 51.3293C173.537 51.316 173.537 51.316 173.53 51.3293L173.46 51.5893C173.47 51.7293 173.75 52.1093 173.48 51.8593C172.16 50.6793 170.79 49.5693 169.44 48.4193C169.01 48.0493 169.06 47.3093 169.44 46.9293C169.88 46.4993 170.5 46.5593 170.93 46.9293H170.94V46.9593Z" fill="white"/>
<path d="M173.379 56.5094C175.779 59.7294 174.889 63.9594 173.039 67.1994C171.189 70.4394 168.559 74.5594 164.819 75.9394C162.919 76.6394 160.829 76.7094 158.839 76.6494C156.429 76.5794 154.029 76.3794 151.629 76.1194C146.729 75.5994 141.849 74.7794 137.049 73.6694C135.729 73.3594 136.289 71.3294 137.609 71.6294C141.819 72.5994 146.069 73.3594 150.369 73.8694C154.169 74.3094 158.319 74.9494 162.139 74.4294C165.959 73.9094 168.209 70.7694 170.279 67.6594C172.339 64.5494 173.959 60.7994 171.549 57.5794C170.739 56.4894 172.579 55.4394 173.379 56.5094Z" fill="white"/>
<path d="M179.77 88.4493C177.19 87.9693 174.6 87.4793 172.02 86.9893C171.82 86.9493 170.5 86.5493 170.3 86.7693C170.1 86.9893 170.46 87.8892 170.54 88.0792C171 89.1792 171.69 90.2093 172.26 91.2593C174.52 95.4293 176.679 99.6393 178.469 104.029C180.269 108.419 181.609 112.889 182.219 117.559C182.869 122.619 182.479 127.819 184.109 132.719C185.569 137.139 188.22 141.039 190.27 145.199C192.32 149.359 193.629 154.159 194.459 158.899C195.289 163.649 195.829 168.519 196.919 173.269C197.999 178.019 199.809 182.699 201.609 187.289C203.509 192.109 205.659 197.069 206.569 202.209C207.239 205.999 207.01 210.449 203.48 212.759C202.34 213.509 201.279 211.679 202.409 210.939C205.839 208.689 204.829 203.539 203.939 200.239C202.639 195.399 200.699 190.749 198.879 186.079C197.049 181.409 195.46 176.829 194.48 171.969C193.5 167.119 192.99 162.209 192.02 157.359C191.05 152.509 189.369 147.879 186.969 143.449C184.729 139.339 182.299 135.229 181.329 130.589C180.299 125.629 180.69 120.499 179.76 115.519C178.83 110.539 177.11 105.909 175.03 101.389C173.88 98.8893 172.619 96.4293 171.329 93.9893C170.669 92.7493 169.99 91.4993 169.31 90.2493C168.83 89.3693 168.329 88.5193 168.209 87.5193C167.929 85.4393 169.379 84.4093 171.319 84.7293C174.329 85.2293 177.319 85.8493 180.319 86.4193C181.649 86.6693 181.09 88.6993 179.76 88.4593V88.4393L179.77 88.4493Z" fill="white"/>
<path d="M195.78 188.319C195.66 187.479 195.46 186.649 195.18 185.849C195.1 185.649 195.04 185.439 194.94 185.249C195.06 185.469 194.929 185.219 194.909 185.189C194.869 185.089 194.82 184.979 194.76 184.869C194.57 184.479 194.369 184.099 194.149 183.729C193.869 183.249 194.04 182.549 194.53 182.279C195.03 182.019 195.67 182.149 195.98 182.659C196.92 184.209 197.55 185.949 197.8 187.749C197.85 188.039 197.86 188.299 197.7 188.559C197.57 188.779 197.32 188.989 197.06 189.049C196.57 189.169 195.85 188.899 195.77 188.309H195.78V188.319Z" fill="white"/>
<path d="M187.77 163.85C187.77 163.63 187.75 163.4 187.73 163.17C187.73 163.05 187.71 162.95 187.7 162.83C187.7 162.78 187.69 162.73 187.67 162.68C187.69 162.76 187.69 162.76 187.67 162.68C187.61 162.25 187.53 161.83 187.42 161.4C187.32 160.98 187.19 160.57 187.04 160.16C187.01 160.06 186.98 159.98 186.94 159.89C186.93 159.86 186.78 159.49 186.86 159.7C186.78 159.49 186.68 159.29 186.58 159.09C186.33 158.6 186.43 157.93 186.96 157.64C187.43 157.39 188.14 157.49 188.4 158.02C189.3 159.85 189.8 161.81 189.88 163.83C189.9 164.38 189.38 164.91 188.82 164.89C188.23 164.86 187.79 164.43 187.77 163.83V163.85Z" fill="white"/>
<path d="M179.97 140.921C179.51 139.431 178.99 137.971 178.43 136.511C178.23 135.991 178.65 135.331 179.17 135.211C179.77 135.071 180.26 135.391 180.47 135.951C181.03 137.411 181.54 138.871 182.01 140.361C182.18 140.891 181.81 141.531 181.27 141.661C180.7 141.791 180.15 141.491 179.97 140.921Z" fill="white"/>
<path d="M179.559 86C176.739 85.65 173.929 85.27 171.119 84.83C169.759 84.62 168.409 84.4 167.059 84.16C166.439 84.05 165.809 83.95 165.189 83.83C164.819 83.77 164.279 83.77 163.949 83.61L163.629 83.56C164.019 82.72 164.299 82.58 164.479 83.14C164.899 83.67 165.159 84.4 165.479 84.99C165.789 85.58 166.139 86.22 166.469 86.84C167.129 88.07 167.799 89.3 168.449 90.53C169.819 93.08 171.199 95.65 172.579 98.2C173.219 99.39 171.389 100.46 170.749 99.27C169.219 96.43 167.689 93.58 166.159 90.75C165.399 89.33 164.629 87.91 163.869 86.49C163.509 85.82 163.149 85.16 162.809 84.5C162.489 83.92 162.109 83.32 162.239 82.63C162.529 81.03 164.329 81.56 165.419 81.76C166.979 82.05 168.549 82.31 170.109 82.56C173.239 83.07 176.399 83.51 179.549 83.9C180.119 83.97 180.589 84.33 180.609 84.95C180.609 85.47 180.119 86.08 179.549 86H179.559Z" fill="white"/>
<path d="M241.059 111.539C232.569 110.169 224.909 106.029 217.539 101.769C213.549 99.4494 209.549 97.1195 205.549 94.7895C203.449 93.5695 201.339 92.3394 199.239 91.1194C198.179 90.5094 197.139 89.8994 196.079 89.2794C195.669 89.0394 195.259 88.7694 194.839 88.5594C194.539 88.3794 194.219 88.2594 193.879 88.2094C193.689 88.3694 193.509 88.3395 193.339 88.1295L192.809 90.0894C188.919 87.2894 184.359 85.7994 179.569 85.7994C178.209 85.7994 178.209 83.6895 179.569 83.6895C184.709 83.6895 189.709 85.2694 193.879 88.2694C194.679 88.8494 194.469 90.2495 193.349 90.2295C192.149 90.2095 191.449 89.2094 191.559 88.0594C191.689 86.5794 193.039 85.9295 194.409 86.1595C196.249 86.4895 198.059 87.9795 199.639 88.8895C201.589 90.0295 203.539 91.1694 205.489 92.2994C212.959 96.6594 220.349 101.349 228.159 105.089C232.439 107.139 236.929 108.739 241.619 109.499C242.959 109.709 242.389 111.749 241.059 111.539Z" fill="white"/>
<path d="M207.85 108.141C216.32 121.481 214.81 137.901 216.73 152.921C217.72 160.681 219.43 168.351 221.77 175.811C224.12 183.271 227.39 190.181 229.33 197.641C230.78 203.211 233.19 215.241 224.58 216.261C223.23 216.421 223.25 214.311 224.58 214.151C228.36 213.711 228.82 209.021 228.63 206.081C228.41 202.541 227.61 199.061 226.59 195.691C224.51 188.831 221.55 182.281 219.45 175.431C217.35 168.581 215.77 161.381 214.79 154.191C213.81 147.011 213.62 139.311 212.86 131.881C212.05 123.981 210.35 116.011 206.03 109.221C205.3 108.071 207.13 107.021 207.86 108.151H207.85V108.141Z" fill="white"/>
<path d="M255.65 155.75C252.68 156.89 249.459 156.55 246.579 155.3C245.119 154.67 243.779 153.79 242.569 152.76C241.929 152.21 241.33 151.62 240.78 150.98C240.35 150.49 239.6 149.19 238.89 149.11C238.14 149.04 238 150.28 237.81 150.79C237.57 151.42 237.25 152 236.74 152.45C235.66 153.37 234.129 153.36 232.849 152.93C231.329 152.41 230.28 151.26 228.94 150.43C227.12 149.29 225.779 150.16 224.089 150.98C222.559 151.72 221.019 152.06 219.349 151.51C217.499 150.9 215.989 149.57 214.079 149.14C212.759 148.83 213.32 146.81 214.64 147.1C216.68 147.56 218.26 149.09 220.26 149.58C222.38 150.1 224.01 148.32 225.96 147.85C227.92 147.38 229.62 148.28 231.19 149.47C232.02 150.11 232.85 150.83 233.92 151.04C235.08 151.27 235.55 150.79 235.93 149.75C236.48 148.29 237.219 146.68 239.119 147.01C241.019 147.34 242.15 149.52 243.48 150.76C246.57 153.65 250.989 155.31 255.089 153.74C256.359 153.25 256.91 155.29 255.65 155.78V155.75Z" fill="white"/>
<path d="M288.749 88.9405C293.729 109.021 279.869 126.561 272.379 143.941C270.789 147.601 269.699 153.271 265.189 154.391C263.869 154.721 263.309 152.681 264.629 152.351C266.469 151.901 267.449 150.271 268.199 148.661C269.039 146.841 269.679 144.931 270.459 143.101C272.259 138.891 274.369 134.821 276.489 130.771C280.779 122.561 285.109 114.261 286.889 105.081C287.899 99.9305 287.979 94.6206 286.719 89.5106C286.389 88.1906 288.419 87.6306 288.749 88.9506V88.9405Z" fill="white"/>
<path d="M260.56 85.0407C257.09 92.6107 254.7 100.621 253.44 108.851C253.23 110.191 251.2 109.621 251.4 108.291C252.71 99.8807 255.19 91.7107 258.74 83.9807C259.31 82.7407 261.13 83.8207 260.57 85.0507H260.56V85.0407Z" fill="white"/>
<path d="M295.38 65.4897C296.9 66.4097 297.23 68.1697 296.69 69.7697C295.96 71.9197 294.62 73.9597 293.58 75.9697C292.42 78.2097 291.27 80.4397 290.11 82.6697C289.27 84.3097 288.59 86.2197 286.5 86.4297C284.42 86.6397 282.04 86.1197 280 85.6397C277.77 85.1097 275.58 84.3497 273.46 83.4797C271.34 82.5997 269.34 81.6597 267.32 80.6597C265.95 79.9797 263.31 79.2597 263.78 77.2297C264.05 76.0497 264.84 74.8397 265.34 73.7297C265.92 72.4497 266.51 71.1797 267.09 69.8997C268.34 67.1897 269.57 64.4797 270.82 61.7497C271.37 60.5197 273.2 61.5897 272.64 62.8197C271.59 65.1297 270.52 67.4497 269.46 69.7597C268.41 72.0697 267.13 74.3397 266.29 76.6997L266.07 77.1697C265.89 77.5697 266.01 77.7897 266.46 77.8597C266.87 78.2397 267.67 78.4697 268.17 78.7097C269.17 79.2097 270.18 79.6997 271.19 80.1797C273.28 81.1497 275.4 82.0497 277.6 82.7497C279.79 83.4597 281.99 83.9897 284.25 84.2197C285.43 84.3397 286.58 84.6297 287.28 83.5297C287.91 82.5697 288.36 81.4597 288.89 80.4397C290.01 78.2897 291.13 76.1197 292.24 73.9697C292.8 72.8897 293.36 71.8197 293.92 70.7297C294.38 69.8397 295.57 68.0397 294.32 67.2897C293.16 66.5797 294.22 64.7597 295.39 65.4597H295.38V65.4897Z" fill="white"/>
<path d="M275.089 64.5906C273.039 69.7206 270.989 74.8306 268.939 79.9606C268.439 81.2006 266.389 80.6706 266.899 79.4006C268.949 74.2706 270.989 69.1606 273.049 64.0306C273.549 62.7906 275.589 63.3206 275.089 64.5906Z" fill="white"/>
<path d="M291.55 67.5201C289.15 67.9101 286.89 67.3401 284.66 66.4701C282.42 65.6101 280.3 64.7101 278.18 63.7301C277.14 63.2601 276.1 62.7501 275.09 62.2101C274.31 61.7901 272.97 61.3101 272.56 60.4601C272.06 59.4401 273.06 58.3401 273.56 57.5201C274.2 56.4501 274.85 55.3901 275.49 54.3201C276.2 53.1601 278.02 54.2101 277.31 55.3901C276.79 56.2701 276.26 57.1301 275.73 58.0101C275.5 58.4001 275.27 58.7801 275.02 59.1701C274.95 59.2901 274.72 59.8101 274.58 59.9001C274.48 60.1501 274.41 60.0901 274.39 59.7001C274.2 59.3501 274.22 59.2701 274.43 59.4401C274.75 59.4501 275.4 60.0101 275.71 60.1801C276.14 60.4101 276.58 60.6401 277.02 60.8701C277.89 61.3101 278.79 61.7401 279.69 62.1401C281.46 62.9301 283.25 63.6901 285.06 64.4001C286.86 65.1101 288.94 65.8501 290.98 65.5101C292.31 65.2901 292.88 67.3301 291.54 67.5501L291.55 67.5201Z" fill="white"/>
<path d="M289.219 63.2902C289.879 61.5602 290.759 59.7103 292.049 58.3603C293.209 57.1503 295.199 56.8103 296.709 56.2103C298.139 55.6403 299.589 54.9203 300.679 53.8103C301.939 52.5403 302.479 50.7703 303.589 49.3903C303.939 48.9503 304.699 49.0203 305.069 49.3903C305.519 49.8203 305.429 50.4503 305.069 50.8803C303.999 52.2203 303.509 53.8902 302.319 55.1502C301.249 56.2702 299.889 57.0803 298.499 57.7103C297.769 58.0403 297.019 58.3303 296.259 58.6103C295.499 58.8803 294.739 59.0703 294.069 59.4403C293.349 59.8303 292.909 60.6403 292.499 61.3203C291.999 62.1203 291.589 62.9702 291.239 63.8402C290.759 65.1002 288.719 64.5503 289.209 63.2803H289.219V63.2902Z" fill="white"/>
<path d="M307.719 47.4395C307.769 46.5695 308.049 45.7895 308.449 45.0195C308.829 44.2995 309.349 43.6395 309.599 42.8595C309.839 42.1195 309.799 41.4895 309.139 41.0195C308.409 40.5095 307.539 40.1595 306.769 39.7095C303.459 37.8095 300.549 35.3295 297.659 32.8495C296.619 31.9595 298.119 30.4795 299.139 31.3595C302.279 34.0595 305.439 36.6495 309.109 38.5995C310.689 39.4295 312.039 40.4695 311.829 42.4395C311.729 43.3595 311.359 44.1895 310.909 44.9795C310.449 45.7695 309.879 46.5195 309.829 47.4395C309.749 48.7895 307.639 48.7995 307.719 47.4395Z" fill="white"/>
<path d="M295.14 31.0007C296.71 25.6407 297.48 20.1307 297.44 14.5507L298.22 15.5607C297.53 15.4207 295.68 19.4007 295.37 19.9807C294.44 21.6707 293.57 23.3807 292.76 25.1307C291.1 28.6807 289.72 32.3507 288.56 36.0907C288.23 37.1607 286.9 37.0207 286.52 36.0907C285.8 34.3207 285.07 32.5507 284.33 30.7707C283.83 29.5607 283.26 26.8707 281.81 26.5007L283.15 25.4907C282.6 30.3007 282.05 35.1207 281.5 39.9307C281.23 42.3407 280.95 44.7407 280.68 47.1607C280.45 49.1807 280.1 51.3707 281.32 53.1507C282.09 54.2707 280.27 55.3307 279.5 54.2207C278.34 52.5207 278.24 50.5007 278.42 48.5107C278.64 45.9907 278.99 43.4807 279.28 40.9707C279.87 35.8107 280.46 30.6507 281.04 25.4907C281.11 24.8107 281.65 24.2907 282.38 24.4807C284.26 24.9507 284.94 26.7507 285.61 28.3707C286.59 30.7507 287.58 33.1507 288.56 35.5307H286.52C287.9 31.0807 289.61 26.7307 291.66 22.5507C292.69 20.4607 293.78 18.4107 294.98 16.4207C295.84 14.9507 296.79 13.1407 298.77 13.5407C299.23 13.6207 299.54 14.1207 299.54 14.5507C299.58 20.3107 298.78 26.0307 297.17 31.5607C296.79 32.8607 294.75 32.3107 295.13 31.0007H295.14Z" fill="white"/>
<path d="M306.809 46.4996C303.749 49.6696 300.269 52.3896 296.459 54.5796C295.959 54.8696 295.319 54.6896 295.019 54.1996C293.969 52.5296 295.629 50.2396 296.329 48.7196C297.289 46.6096 298.249 44.4896 299.209 42.3796L300.859 43.6596C299.009 45.5496 297.139 47.4395 295.149 49.1795C294.229 49.9795 293.299 50.7996 292.289 51.4896C291.449 52.0496 290.419 52.3196 289.599 51.5696C288.089 50.1896 289.599 47.3496 290.139 45.8696C291.069 43.3896 292.179 40.9895 293.449 38.6495L295.099 39.9295C292.879 42.7795 290.479 45.4796 287.929 48.0296C287.609 48.3496 287.039 48.4496 286.649 48.1996C283.949 46.4396 286.289 42.9096 287.449 40.9596C289.279 37.9096 291.379 35.0296 293.689 32.3396C294.579 31.3096 296.059 32.7996 295.179 33.8296C293.379 35.9196 291.739 38.1196 290.249 40.4496C289.509 41.5896 288.809 42.7596 288.169 43.9496C287.919 44.4296 287.049 45.9296 287.719 46.3696L286.439 46.5395C288.999 43.9895 291.389 41.2896 293.619 38.4396C294.379 37.4696 295.819 38.6996 295.269 39.7196C294.279 41.5396 293.369 43.4196 292.599 45.3496C292.259 46.1796 291.959 47.0196 291.659 47.8596C291.469 48.4196 290.869 49.5096 291.099 50.1196C290.869 49.8996 290.909 49.7396 291.219 49.6596C291.449 49.4896 291.679 49.3096 291.909 49.1296C292.309 48.8096 292.689 48.4996 293.079 48.1696C293.749 47.5996 294.409 47.0096 295.049 46.4096C296.529 45.0396 297.949 43.5896 299.369 42.1596C300.249 41.2496 301.499 42.3896 301.019 43.4396C300.279 45.0696 299.529 46.6996 298.799 48.3396C298.439 49.1196 298.079 49.9096 297.719 50.6896C297.509 51.1596 296.529 52.6596 296.819 53.1396L295.379 52.7596C299.039 50.6395 302.359 48.0396 305.299 45.0096C306.239 44.0296 307.729 45.5296 306.779 46.4996L306.809 46.5196V46.4996Z" fill="white"/>
<path d="M79.99 111.369C77.7 108.699 77.7799 105.299 77.3599 101.989C77.0999 100.009 76.4899 98.3194 75.3699 96.6594C74.2499 94.9994 72.9799 93.4694 72.1499 91.6394C71.3299 89.8094 70.89 88.0394 70.51 86.1594C70.39 85.5794 69.64 80.0594 68.99 80.1494C68.82 80.1694 68.5901 82.1994 68.5501 82.4794C68.3601 83.6794 68.24 84.9094 68.17 86.1194C68.03 88.4194 68.1099 90.7194 68.3599 93.0194C68.4199 93.5994 67.8201 94.0494 67.3001 94.0694C62.2401 94.2494 58.79 89.2294 55.76 85.8794C52.13 81.8594 48.6001 76.9894 43.8001 74.2794L45.25 73.8994C44.9 74.4694 45.97 75.8094 46.24 76.3094C46.62 76.9794 47.0099 77.6594 47.3899 78.3494C48.1999 79.7894 49.0199 81.2094 49.8299 82.6394C51.4499 85.4994 53.08 88.3594 54.7 91.2194C55.38 92.3994 53.5499 93.4694 52.8799 92.2894C50.9099 88.8294 48.95 85.3694 46.98 81.9094C46.04 80.2494 45.0999 78.5994 44.1599 76.9394C43.4299 75.6594 42.56 74.2794 43.42 72.8594C43.72 72.3594 44.3599 72.1894 44.8699 72.4794C49.3099 74.9694 52.5399 79.1894 55.8899 82.8994C57.6699 84.8494 59.38 86.8794 61.22 88.7594C62.87 90.4494 64.8101 92.0594 67.2901 91.9694L66.23 93.0294C65.95 90.4094 65.8999 87.7694 66.1199 85.1494C66.2199 83.8994 66.3799 82.6694 66.5799 81.4494C66.7299 80.6094 66.7901 79.5794 67.2901 78.8394C68.3701 77.2594 70.2401 78.0594 71.0501 79.4194C72.1101 81.2194 72.1499 83.7994 72.5799 85.8194C73.0599 88.1794 73.7201 90.4794 75.0201 92.5294C76.2201 94.3994 77.7101 96.0394 78.5601 98.1094C80.0601 101.789 78.76 106.719 81.46 109.859C82.34 110.879 80.86 112.379 79.97 111.349L79.99 111.369Z" fill="white"/>
<path d="M68.5693 106.699C67.9693 104.809 67.3595 102.929 66.7595 101.049C66.5895 100.519 66.9595 99.8788 67.4995 99.7488C68.0795 99.6188 68.6195 99.9188 68.7995 100.489C69.3995 102.379 69.9993 104.259 70.5993 106.149C70.7693 106.679 70.3993 107.319 69.8593 107.449C69.2793 107.579 68.7493 107.279 68.5693 106.709V106.699Z" fill="white"/>
<path d="M52.91 92.7306C46.53 86.8006 39.5499 81.5806 32.0799 77.0906H33.15C32.85 77.2606 36.16 80.9306 36.42 81.2306C37.87 82.8806 39.3201 84.5206 40.7801 86.1706C43.6201 89.4006 46.4699 92.6306 49.3199 95.8606C50.1299 96.7806 49.1301 98.0306 48.0501 97.5206C42.5201 94.9006 36.84 92.2406 30.69 91.5606L31.44 89.7606C32.74 91.1506 34.3901 92.1006 35.9901 93.1306C37.8201 94.3106 39.6601 95.4906 41.5001 96.6806C45.1001 99.0006 48.7101 101.311 52.3101 103.631C53.2601 104.241 52.6701 105.991 51.5001 105.561C46.8401 103.831 42.2001 102.061 37.5401 100.371C37.0301 100.191 36.6299 100.121 36.1099 100.021C36.1899 99.6906 36.3399 99.7006 36.5799 100.071C36.8599 100.251 37.15 100.431 37.43 100.621C38.42 101.251 39.43 101.881 40.42 102.501C42.48 103.791 44.57 105.051 46.67 106.311C50.87 108.801 55.11 111.201 59.41 113.531C63.02 115.471 67.9801 118.581 72.0501 116.161C73.2201 115.461 74.2799 117.291 73.1099 117.991C69.6699 120.041 65.7201 118.961 62.3101 117.411C58.0701 115.471 54.01 113.021 49.97 110.701C45.92 108.381 41.8399 105.921 37.8499 103.411C36.5999 102.621 33.9101 101.541 34.0401 99.6906C34.1601 98.1806 35.7401 97.7706 37.0101 98.0206C38.1901 98.2506 39.3601 98.8306 40.4901 99.2606C41.6901 99.7006 42.8999 100.161 44.0999 100.601C46.7499 101.581 49.4001 102.571 52.0401 103.551L51.2301 105.481C47.4901 103.061 43.7301 100.661 39.9801 98.2406C38.1501 97.0606 36.31 95.8806 34.47 94.6906C32.87 93.6706 31.24 92.6806 29.94 91.2706C29.38 90.6706 29.72 89.3606 30.69 89.4706C37.24 90.2006 43.2099 92.9306 49.1099 95.7206L47.8299 97.3806C44.1699 93.2306 40.5099 89.0806 36.8499 84.9306C35.1799 83.0406 33.2401 81.2206 31.8001 79.1506C30.9501 77.9506 30.5899 76.1406 32.0799 75.3106C32.4099 75.1306 32.82 75.1106 33.15 75.3106C40.77 79.8806 47.89 85.2306 54.4 91.2706C55.4 92.2006 53.9 93.6906 52.91 92.7606V92.7306Z" fill="white"/>
<path d="M84.639 109.12C82.269 113.01 79.109 116.31 75.489 119.04C73.719 120.38 71.8389 121.62 69.8589 122.64C68.8889 123.15 67.6591 123.54 66.7491 122.69C65.9691 121.97 65.9489 120.95 66.5789 120.15C67.4189 119.08 68.8989 120.58 68.0689 121.64L68.179 121.13C68.029 121.09 68.039 121.07 68.189 121.06C68.299 120.96 68.6591 120.88 68.7891 120.81C69.1491 120.63 69.4789 120.42 69.8289 120.23C70.5689 119.81 71.2891 119.37 71.9991 118.9C73.4491 117.95 74.839 116.92 76.159 115.79C78.759 113.55 81.0191 110.99 82.7991 108.06C83.5091 106.9 85.3289 107.95 84.6189 109.13H84.639V109.12Z" fill="white"/>
<path d="M87.4793 113.09C88.6893 115.29 89.7793 117.53 90.7493 119.84C91.2493 121.02 91.7392 122.21 92.1692 123.43C92.4892 124.33 92.8292 125.27 92.6292 126.24C92.2292 128.14 90.2092 130 88.8992 131.34C87.4392 132.85 85.8392 134.22 84.1492 135.44C82.4592 136.66 80.5592 137.8 78.6292 138.72C77.6692 139.17 76.6992 139.59 75.7092 139.95C74.8792 140.27 73.9193 140.73 73.0193 140.4C72.1193 140.07 71.7491 139.18 71.3491 138.43C70.7991 137.4 70.3192 136.34 69.8892 135.25C68.9592 132.96 68.3192 130.59 67.9292 128.16C67.7192 126.83 69.7592 126.26 69.9692 127.6C70.2892 129.57 70.7592 131.52 71.4292 133.4C71.7492 134.33 72.1293 135.24 72.5493 136.12C72.8493 136.73 73.2593 138.17 73.9793 138.32C74.5193 138.44 75.9392 137.6 76.4392 137.39C77.2592 137.04 78.0691 136.64 78.8691 136.23C80.3991 135.43 81.8693 134.5 83.2593 133.48C84.6593 132.46 85.9192 131.34 87.1292 130.12C87.7592 129.48 88.3592 128.81 88.9392 128.13C89.5192 127.45 90.5891 126.44 90.5891 125.48C90.5891 124.58 89.9492 123.44 89.6292 122.62C89.2592 121.66 88.8692 120.7 88.4392 119.75C87.5992 117.84 86.6692 115.97 85.6692 114.14C85.0192 112.95 86.8393 111.88 87.4893 113.07H87.4793V113.09Z" fill="white"/>
<path d="M78.3491 137.15L78.5292 137.65C78.9292 138.79 77.1791 139.5 76.5991 138.46C74.5691 134.82 72.6992 131.08 70.9992 127.28C70.7692 126.76 70.8591 126.15 71.3791 125.83C71.8391 125.57 72.599 125.68 72.829 126.21C74.529 130.02 76.3991 133.75 78.4191 137.39L76.4892 138.2L76.3093 137.7C76.1193 137.16 76.5193 136.55 77.0493 136.4C77.6293 136.24 78.1591 136.6 78.3491 137.14V137.15Z" fill="white"/>
<path d="M95.0991 131.781C97.2291 135.251 98.9991 138.911 100.369 142.741C100.649 143.541 100.859 144.281 101.589 144.781C102.219 145.211 102.979 145.451 103.659 145.821C104.859 146.471 105.739 147.431 105.989 148.811C106.239 150.181 105.909 151.461 105.919 152.791C105.919 153.611 106.049 154.141 106.909 154.391C107.759 154.641 108.589 154.711 109.399 154.991C112.429 156.061 115.089 158.271 116.519 161.161C118.359 164.831 118.209 169.161 116.319 172.781C115.689 173.981 113.869 172.921 114.489 171.711C116.659 167.561 115.889 162.441 112.449 159.231C110.799 157.701 108.899 156.981 106.749 156.511C105.059 156.141 103.989 155.141 103.829 153.391C103.689 151.911 104.499 149.831 103.659 148.501C102.809 147.171 100.579 146.991 99.4792 145.711C98.8892 145.011 98.6391 144.151 98.3291 143.311C97.8791 142.051 97.3791 140.811 96.8391 139.581C95.8091 137.261 94.6093 135.011 93.2793 132.851C92.5693 131.691 94.3791 130.621 95.0991 131.781Z" fill="white"/>
<path d="M73.1993 144.76C75.9993 156.97 78.8192 169.35 84.3392 180.68C86.8192 185.77 89.8194 190.64 93.4794 194.97C95.2394 197.05 97.1393 199 99.1993 200.78C101.369 202.67 103.789 204.66 106.579 205.54C110.079 206.63 113.869 205.41 117.109 204.02C120.179 202.7 123.039 200.92 125.589 198.74C126.629 197.86 128.129 199.35 127.079 200.23C122.509 204.11 116.549 207.48 110.469 208.01C104.399 208.54 98.9493 203.75 94.8693 199.62C86.1993 190.85 80.7494 179.48 77.0194 167.86C74.6394 160.46 72.8893 152.88 71.1493 145.31C70.8493 143.99 72.8793 143.42 73.1893 144.75H73.1993V144.76Z" fill="white"/>
<path d="M129.08 190.82C135.31 187.3 133.14 178.19 134.02 172.38C134.56 168.84 135.76 165.4 135.91 161.8C136.07 157.92 135.17 154.11 134.27 150.36C133.95 149.04 135.99 148.48 136.3 149.8C137.26 153.8 138.22 157.9 138.01 162.05C137.81 165.95 136.46 169.66 135.99 173.51C135.17 180 137.01 188.77 130.14 192.65C128.96 193.32 127.89 191.5 129.08 190.82Z" fill="white"/>
<path d="M206.939 214.54C208.509 216.58 208.949 219.17 209.199 221.67C209.499 224.65 209.639 227.64 209.649 230.64C209.649 232 207.539 232 207.539 230.64C207.539 227.83 207.399 225.03 207.139 222.22C206.919 219.89 206.579 217.51 205.119 215.6C204.769 215.15 205.049 214.42 205.489 214.16C206.029 213.83 206.589 214.09 206.939 214.54Z" fill="white"/>
<path d="M201.979 217.01C203.669 220.15 204.469 223.76 204.279 227.33C204.239 228.08 204.119 228.9 203.559 229.4C203.039 229.86 202.289 229.92 201.579 229.95C199.419 230.05 197.249 230.14 195.089 230.22C194.539 230.24 193.909 230.24 193.529 229.83C193.179 229.46 193.179 228.89 193.199 228.38C193.289 226.14 193.369 223.92 193.459 221.68L202.749 220.86L201.979 217.01Z" fill="white"/>
<path d="M202.9 216.47C203.98 218.51 204.749 220.7 205.089 222.98C205.269 224.11 205.37 225.25 205.37 226.39C205.37 227.42 205.349 228.57 204.819 229.49C204.289 230.41 203.3 230.82 202.26 230.94C201.08 231.07 199.89 231.07 198.72 231.11C197.44 231.16 196.17 231.26 194.9 231.27C193.85 231.28 192.799 230.95 192.359 229.92C191.869 228.78 192.18 227.26 192.23 226.06C192.29 224.6 192.35 223.14 192.4 221.68C192.42 221.07 192.87 220.68 193.46 220.63C196.56 220.36 199.65 220.08 202.75 219.81L201.74 221.15L200.97 217.3C200.7 215.97 202.74 215.4 203 216.74L203.78 220.59C203.91 221.31 203.47 221.87 202.76 221.93C199.66 222.2 196.57 222.48 193.47 222.75L194.52 221.7C194.47 223.07 194.419 224.45 194.359 225.82C194.339 226.42 194.32 227.02 194.29 227.62C194.29 227.88 194.09 228.88 194.29 229.1C194.5 229.34 195.36 229.16 195.62 229.15C196.22 229.13 196.83 229.1 197.43 229.08C198.77 229.03 200.11 228.96 201.45 228.91C201.85 228.89 202.36 228.91 202.72 228.72C203.08 228.53 203.14 228.1 203.19 227.73C203.34 226.62 203.26 225.44 203.15 224.33C202.91 221.97 202.179 219.65 201.069 217.57C200.439 216.37 202.26 215.3 202.9 216.5V216.48V216.47Z" fill="white"/>
<path d="M189.249 233.28C188.769 229 188.299 224.71 187.819 220.44C187.729 219.62 187.499 218.68 187.929 217.91C188.409 217.06 189.419 216.88 190.299 216.69C192.349 216.26 194.439 216.13 196.529 216.32C197.869 216.44 197.879 218.55 196.529 218.43C194.789 218.27 193.019 218.31 191.299 218.64C190.899 218.71 190.379 218.77 189.999 218.93C189.949 218.95 189.709 219.07 189.779 218.94C189.729 219.02 189.819 219.399 189.829 219.519C189.919 220.449 190.039 221.38 190.129 222.31C190.539 225.97 190.949 229.63 191.359 233.29C191.499 234.64 189.389 234.63 189.249 233.29V233.28Z" fill="white"/>
<path d="M208.129 216.11C204.609 216.53 215.229 216.11 218.779 216.11C218.779 216.11 225.209 216.54 225.209 220.72C225.209 222.5 225.589 224.26 225.779 226.04C225.839 226.5 225.869 227.02 225.559 227.38C225.119 227.88 224.319 227.7 223.679 227.5C219.849 226.3 215.759 225.95 211.769 226.49C211.769 226.49 211.419 215.72 208.129 216.12V216.11Z" fill="white"/>
<path d="M208.13 217.169C208 217.189 208.15 217.239 207.92 217.199C207.42 217.119 208.08 218.579 208.44 216.519L208.16 215.499C208.1 215.439 207.7 215.159 207.53 215.209C207.56 215.199 207.63 215.209 207.66 215.209C207.8 215.209 207.93 215.219 208.08 215.219H209.42C210.69 215.209 211.96 215.169 213.23 215.149C215.2 215.109 217.29 214.849 219.24 215.099C221.33 215.359 223.67 216.019 225.1 217.659C226.21 218.939 226.17 220.289 226.3 221.879C226.4 223.049 226.6 224.199 226.74 225.369C226.86 226.309 227 227.359 226.29 228.109C225.58 228.859 224.52 228.809 223.6 228.559C222.37 228.229 221.16 227.869 219.91 227.649C217.22 227.169 214.46 227.169 211.76 227.519C211.18 227.589 210.73 226.969 210.71 226.469C210.65 224.889 210.5 223.299 210.22 221.739C210.03 220.629 209.8 219.489 209.35 218.449C209.18 218.049 208.95 217.639 208.71 217.379C208.57 217.219 208.6 217.219 208.35 217.119C208.55 217.199 208.17 217.109 208.43 217.139C208.33 217.129 208.23 217.139 208.13 217.139C206.78 217.259 206.79 215.149 208.13 215.029C210.82 214.799 211.74 218.539 212.13 220.519C212.52 222.489 212.75 224.479 212.82 226.459L211.76 225.409C214.14 225.099 216.53 225.079 218.91 225.379C220.08 225.529 221.24 225.729 222.39 226.009C222.91 226.139 223.43 226.299 223.96 226.449C224.15 226.499 224.38 226.609 224.58 226.609C224.87 226.609 224.73 226.749 224.76 226.479C224.82 225.999 224.67 225.429 224.6 224.959C224.51 224.319 224.41 223.669 224.34 223.019C224.22 222.059 224.32 221.019 224.1 220.089C223.84 219.009 222.85 218.339 221.9 217.919C221.04 217.539 220.09 217.319 219.15 217.179C219 217.159 219.28 217.179 218.98 217.159C218.92 217.159 218.85 217.149 218.8 217.139C218.34 217.119 217.85 217.139 217.39 217.149C214.76 217.189 212.13 217.289 209.5 217.319C208.79 217.319 207.86 217.469 207.16 217.249C206.29 216.979 206.11 215.779 206.91 215.299C207.26 215.089 207.75 215.089 208.13 215.039C209.47 214.869 209.46 216.979 208.13 217.149V217.169Z" fill="white"/>
<path d="M126.189 232.37C127.999 231.18 130.15 230.68 132.25 230.21C150.04 226.19 167.869 222.32 185.729 218.6L186.05 229.75C167.29 234.07 148.53 238.38 129.77 242.7C129.41 242.78 129.019 242.87 128.659 242.76C128.069 242.58 127.75 241.97 127.5 241.4C126.55 239.18 125.859 236.85 125.439 234.48" fill="white"/>
<path d="M125.669 231.459C127.599 230.249 129.779 229.689 131.979 229.189C134.519 228.609 137.059 228.039 139.599 227.469C144.689 226.329 149.779 225.209 154.869 224.089C165.049 221.859 175.259 219.689 185.459 217.569C186.129 217.429 186.779 217.859 186.799 218.579L187.119 229.729C187.129 230.169 186.779 230.649 186.339 230.739C167.919 234.979 149.509 239.209 131.089 243.449C130.139 243.669 129.109 244.039 128.149 243.639C127.329 243.299 126.899 242.539 126.559 241.769C125.559 239.529 124.899 237.139 124.439 234.729C124.189 233.399 126.229 232.829 126.479 234.169C126.719 235.439 127.019 236.679 127.399 237.909C127.589 238.519 127.799 239.129 128.019 239.739C128.179 240.169 128.399 241.239 128.789 241.499C129.369 241.899 130.449 241.429 131.049 241.289L133.089 240.819L137.189 239.879C142.559 238.649 147.929 237.409 153.299 236.179C164.119 233.689 174.959 231.199 185.789 228.699L185.019 229.709L184.699 218.559L186.039 219.569C176.009 221.659 165.979 223.789 155.959 225.969C151.029 227.049 146.109 228.129 141.199 229.229C138.659 229.799 136.109 230.369 133.569 230.939C131.219 231.469 128.819 231.929 126.739 233.229C125.589 233.949 124.529 232.119 125.679 231.399V231.429L125.669 231.459Z" fill="white"/>
<path d="M130.789 219.281C131.839 219.531 132.719 220.441 132.869 221.511C133.049 222.681 132.479 223.921 131.399 224.441V222.621C132.799 223.341 133.809 224.551 134.399 225.991C134.609 226.511 134.169 227.171 133.659 227.291C133.049 227.431 132.589 227.101 132.369 226.551C132.449 226.751 132.369 226.551 132.349 226.511C132.309 226.451 132.279 226.371 132.239 226.311C132.169 226.171 132.089 226.051 132.009 225.921C131.979 225.871 131.939 225.811 131.899 225.771C131.899 225.771 131.739 225.551 131.829 225.651C131.909 225.761 131.749 225.571 131.739 225.541C131.689 225.491 131.649 225.421 131.599 225.371C131.499 225.271 131.409 225.181 131.309 225.081C131.259 225.031 131.199 224.971 131.139 224.931C131.079 224.881 130.979 224.811 131.109 224.901C130.869 224.721 130.619 224.561 130.339 224.431C129.669 224.081 129.639 222.951 130.339 222.601C130.419 222.561 130.489 222.521 130.559 222.471C130.489 222.511 130.469 222.551 130.549 222.471C130.579 222.441 130.759 222.241 130.619 222.431C130.659 222.381 130.699 222.311 130.729 222.251C130.779 222.151 130.789 222.091 130.749 222.231C130.769 222.171 130.779 222.081 130.819 222.031C130.859 221.921 130.819 222.211 130.819 222.021C130.819 221.971 130.779 221.701 130.839 221.971C130.829 221.911 130.809 221.831 130.789 221.771C130.759 221.651 130.729 221.641 130.789 221.761C130.759 221.701 130.719 221.641 130.689 221.581C130.639 221.471 130.819 221.701 130.689 221.571C130.629 221.511 130.569 221.451 130.509 221.401C130.619 221.501 130.589 221.461 130.489 221.401C130.439 221.371 130.269 221.311 130.489 221.381C130.419 221.351 130.329 221.331 130.259 221.311C129.719 221.181 129.349 220.541 129.519 220.011C129.699 219.451 130.249 219.131 130.819 219.271H130.789V219.281Z" fill="white"/>
<path d="M127.87 228.731C126.76 226.531 125.47 224.431 123.99 222.451C123.66 222.011 123.91 221.251 124.37 221.001C124.92 220.701 125.459 220.901 125.819 221.381C127.289 223.351 128.59 225.461 129.7 227.661C129.95 228.161 129.849 228.831 129.319 229.111C128.839 229.361 128.14 229.261 127.87 228.731Z" fill="white"/>
<path d="M225.33 229.95C229.48 242.35 230.64 255.78 231.9 268.72C233.23 282.44 234.2 296.16 236.58 309.76C237.61 315.68 239 321.57 239.7 327.54C240.22 332.05 240.57 336.57 240.91 341.1C241.73 351.83 242.36 362.57 243.32 373.29C243.6 376.5 243.96 379.67 244.45 382.86C245.12 387.3 244.73 391.75 244.29 396.2C243.56 403.41 243.02 410.63 242.43 417.85C241.67 427.22 240.94 436.59 240.21 445.96C239.94 449.31 239.68 452.68 239.43 456.04C239.35 457 239.28 457.96 239.2 458.92C239.19 459.11 239.12 460.3 239.1 459.68C239.17 461.36 239.51 463.04 238.59 464.6C237.74 466.03 236.32 466.11 234.84 466.18C231.27 466.37 227.72 466.66 224.16 466.87C213.26 467.51 202.16 468.17 191.27 467.09C189.19 466.89 187.11 466.61 185.07 466.11C183.75 465.79 184.31 463.76 185.63 464.07C190.15 465.17 194.91 465.33 199.55 465.42C205.26 465.55 210.98 465.39 216.68 465.14C221.36 464.93 226.05 464.65 230.73 464.33C232.1 464.24 233.47 464.14 234.84 464.07C235.2 464.05 235.59 464.09 235.93 464.03C236.89 463.87 237.07 462.92 237.14 462.07C237.2 461.15 237.03 460.54 237.03 459.76C237.03 459.17 237.13 458.57 237.17 457.99C237.38 455.19 237.6 452.41 237.81 449.61C238.51 440.66 239.22 431.72 239.93 422.77C240.58 414.78 241.2 406.81 241.94 398.83C242.26 395.32 242.76 391.81 242.72 388.27C242.68 384.72 242.1 381.79 241.71 378.3C240.59 368.27 240.04 358.17 239.32 348.1C238.69 339.31 238.32 330.41 236.66 321.73C235.16 313.89 233.67 306.04 232.67 298.13C231.88 291.82 231.33 285.49 230.76 279.16C229.54 265.58 228.51 251.84 225.5 238.52C224.89 235.83 224.18 233.15 223.3 230.53C222.87 229.24 224.91 228.68 225.34 229.97H225.33V229.95Z" fill="white"/>
<path d="M192.799 293.77C192.749 317.75 191.409 341.88 188.569 365.69C187.929 371.08 187.189 376.47 186.239 381.82C186.189 382.14 186.129 382.45 186.069 382.77C185.899 383.56 186.119 382.63 186.029 382.86C185.949 383.04 185.889 383.22 185.819 383.41C185.469 384.39 185.179 385.4 184.959 386.42C184.359 389.13 184.329 391.8 184.539 394.55C184.879 398.99 184.599 403.54 184.489 407.98C184.079 423.96 183.339 439.99 181.799 455.91C181.269 461.39 180.889 467.16 179.329 472.46C178.959 473.7 178.519 475.17 177.179 475.66C175.249 476.36 172.889 476.31 170.879 476.41C157.019 477.04 143.039 476.29 129.189 475.67C128.859 475.66 128.529 475.64 128.199 475.63C127.599 475.6 127.189 475.17 127.139 474.58C125.959 457.29 125.749 439.87 126.079 422.53C126.239 414.11 126.569 405.68 127.139 397.28C127.239 395.93 129.349 395.92 129.249 397.28C127.639 421.25 127.709 445.38 128.949 469.36C129.029 471.1 129.129 472.83 129.249 474.57L128.199 473.52C140.609 474.11 153.059 474.57 165.489 474.44C168.449 474.41 171.429 474.38 174.379 474.06C175.129 473.98 175.839 473.81 176.629 473.64C176.799 473.6 176.429 473.65 176.649 473.62C176.429 473.65 176.519 473.76 176.659 473.57C176.439 473.88 176.819 473.26 176.879 473.14C176.909 473.08 177.039 472.76 177.139 472.42C177.279 472 177.399 471.58 177.499 471.15C177.769 470.1 177.979 469.02 178.169 467.95C178.669 465.08 179.019 462.19 179.339 459.3C181.049 443.56 181.769 427.69 182.259 411.87C182.429 406.58 182.629 401.28 182.489 395.98C182.479 395.43 182.459 394.89 182.409 394.34C182.139 391.27 182.349 388.21 183.089 385.21C183.479 383.63 184.049 382.2 184.319 380.63C184.749 378.15 185.129 375.66 185.489 373.17C188.879 349.38 190.209 325.17 190.619 301.16C190.659 298.7 190.679 296.23 190.689 293.77C190.689 292.41 192.799 292.41 192.799 293.77Z" fill="white"/>
<path d="M128.73 381.799C129.66 369.269 129.61 356.679 130.51 344.129C130.73 340.929 131.01 337.749 131.11 334.549C131.22 331.349 131.08 328.379 131.02 325.289C130.95 322.199 130.96 319.219 130.7 316.209C130.44 313.189 129.88 310.279 129.38 307.339C128 299.169 126.21 291.079 124.95 282.889C124.61 280.659 124.31 278.429 124.02 276.179C123.86 274.939 123.73 273.699 123.59 272.469C123.43 271.039 123.11 269.509 123.13 268.059C123.16 266.469 123.45 264.839 123.6 263.259C124.12 257.999 124.62 252.739 125.14 247.479C125.27 246.139 127.38 246.129 127.25 247.479C126.81 252.029 126.36 256.579 125.92 261.119C125.71 263.299 125.42 265.499 125.28 267.679C125.18 269.179 125.51 270.749 125.68 272.239C125.95 274.769 126.27 277.299 126.62 279.829C127.76 287.899 129.5 295.859 130.91 303.879C131.91 309.569 132.91 315.219 133.04 320.999C133.19 327.169 133.37 333.309 132.95 339.469C131.99 353.569 131.87 367.699 130.83 381.799C130.73 383.149 128.61 383.159 128.72 381.799H128.73Z" fill="white"/>
<path d="M142.24 478.051C139.2 479.941 137.019 483.151 136.379 486.671C135.619 490.851 136.94 495.101 136.93 499.341C136.93 500.331 136.849 501.331 137.069 502.301C137.439 503.881 138.57 505.201 138.89 506.791C139.25 508.561 138.539 510.361 138.379 512.161C138.119 515.171 139.37 518.111 141.04 520.621C141.81 521.781 142.68 522.891 143.79 523.701C146 525.301 148.869 525.591 151.579 525.811C154.579 526.051 157.589 526.281 160.569 525.871C163.539 525.461 166.51 524.351 168.65 522.241C171.01 519.911 172.18 516.511 172.18 513.181C172.18 509.851 171.119 506.601 169.579 503.641C169.219 502.941 168.82 502.261 168.65 501.501C168.25 499.711 169.14 497.921 169.73 496.191C171.78 490.161 170.16 483.021 165.7 478.481C165.7 478.481 166.21 483.771 163.15 483.771C160.09 483.771 163.8 479.161 156.71 479.161H151.06C146.39 479.161 149.93 483.771 146.39 483.771C142.85 483.771 142.25 478.051 142.25 478.051H142.24Z" fill="white"/>
<path d="M142.77 478.961C139.69 480.941 137.64 484.231 137.26 487.881C136.83 492.001 137.96 496.201 137.96 500.341C137.96 502.451 139.01 503.831 139.68 505.741C140.27 507.441 139.95 509.161 139.63 510.881C138.89 514.861 140.57 518.951 143.3 521.871C146.03 524.791 150.589 524.761 154.319 524.971C158.319 525.201 162.569 525.081 166.099 522.911C169.619 520.751 171.11 517.031 171.119 513.191C171.119 511.141 170.69 509.131 170 507.211C169.32 505.291 167.949 503.551 167.599 501.581C167.239 499.611 168.14 497.651 168.77 495.741C169.39 493.841 169.62 491.911 169.53 489.951C169.34 485.961 167.7 482.121 164.94 479.241L166.74 478.491C166.91 480.281 166.699 482.661 165.329 483.981C163.819 485.431 161.3 485.021 160.7 482.971C160.51 482.341 160.52 481.591 160.05 481.071C159.08 479.981 156.99 480.231 155.73 480.231H151.04C149.68 480.231 149.68 478.121 151.04 478.121H153.119C154.479 478.121 154.479 480.231 153.119 480.231C152.189 480.231 151.14 480.071 150.23 480.301C149.48 480.491 149.42 480.961 149.31 481.661C149.06 483.331 148.57 484.711 146.63 484.831C143.04 485.051 141.49 481.011 141.18 478.071C141.03 476.721 143.14 476.731 143.29 478.071C143.31 478.281 143.26 477.911 143.29 478.151C143.33 478.401 143.37 478.651 143.44 478.891C143.59 479.591 143.799 480.291 144.119 480.941C144.489 481.681 146.25 483.741 147.06 482.421C147.34 481.981 147.229 481.151 147.339 480.671C147.479 480.051 147.75 479.481 148.21 479.031C149.47 477.831 151.529 478.131 153.109 478.131C154.469 478.131 154.469 480.241 153.109 480.241H151.03C149.67 480.241 149.67 478.131 151.03 478.131H154.48C156.88 478.131 160.43 477.741 161.95 480.121C162.34 480.731 162.48 481.411 162.64 482.091C162.76 482.661 162.679 482.841 163.329 482.711C164.819 482.431 164.719 479.621 164.619 478.491C164.539 477.561 165.82 477.121 166.43 477.741C169.08 480.521 170.85 484.071 171.42 487.881C171.69 489.721 171.72 491.551 171.46 493.401C171.16 495.491 170.26 497.321 169.77 499.351C169.19 501.751 170.93 503.821 171.77 505.991C172.62 508.151 173.15 510.421 173.21 512.731C173.32 516.591 171.979 520.651 169.069 523.301C165.959 526.141 161.679 527.091 157.569 527.171C155.149 527.211 152.69 527.021 150.27 526.781C148.3 526.581 146.33 526.271 144.52 525.401C140.98 523.691 138.419 519.301 137.569 515.581C137.079 513.461 137.39 511.541 137.75 509.431C137.95 508.261 137.98 507.181 137.53 506.081C137.16 505.161 136.62 504.321 136.27 503.381C135.85 502.241 135.829 501.071 135.839 499.871C135.839 498.481 135.749 497.101 135.599 495.701C135.299 493.031 134.86 490.351 135.15 487.661C135.62 483.331 138.03 479.521 141.68 477.161C142.82 476.421 143.89 478.251 142.75 478.991V478.971L142.77 478.961Z" fill="white"/>
<path d="M138.899 513.74C138.619 516.39 138.309 519.11 138.739 521.76C138.919 522.84 139.179 524.02 139.839 524.92C140.599 525.96 141.869 526.53 142.999 527.08C147.169 529.07 151.809 530.02 156.419 529.96C158.769 529.93 161.099 529.62 163.379 529.04C165.399 528.52 167.709 527.89 169.249 526.39C170.979 524.71 171.329 521.94 171.559 519.65C171.839 516.97 171.739 514.26 171.299 511.6C171.079 510.27 173.109 509.7 173.339 511.04C174.049 515.38 174.189 520.28 172.769 524.5C171.339 528.72 167.779 530.08 163.949 531.06C159.889 532.09 155.649 532.3 151.509 531.73C147.359 531.16 142.969 529.97 139.639 527.57C135.479 524.59 136.329 518.12 136.799 513.72C136.939 512.38 139.049 512.37 138.909 513.72H138.899V513.74Z" fill="white"/>
<path d="M185.33 492.961C201.4 495.851 224.77 493.211 244.56 493.501C246.48 493.531 251.45 493.611 252.07 493.191C253.68 492.101 253.66 489.761 253.45 487.821C253.39 487.211 253.3 486.551 252.91 486.081C252.61 485.721 252.17 485.511 251.74 485.331C247.38 483.531 242.48 483.611 237.97 482.241C235.43 481.471 233.04 480.231 230.68 479.011C226.93 477.081 223.2 475.141 219.45 473.211C219.45 473.211 215.91 474.681 216.39 478.041C216.39 478.041 187.36 479.831 186.07 478.041C184.78 476.251 182.99 474.561 182.99 474.561C182.01 475.441 181.98 476.931 182.04 478.251C182.25 482.721 182.74 487.191 183.5 491.611L185.35 492.951H185.33V492.961Z" fill="white"/>
<path d="M185.609 491.941C192.249 493.111 199.06 493.291 205.8 493.271C213.22 493.251 220.639 492.921 228.049 492.681C234.819 492.461 241.559 492.541 248.319 492.461C249.259 492.451 250.39 492.561 251.31 492.311C252.47 492.001 252.529 490.041 252.479 488.871C252.449 488.101 252.499 487.081 251.829 486.541C251.169 486.001 250.019 485.801 249.229 485.581C247.409 485.071 245.549 484.781 243.679 484.481C239.449 483.801 235.63 482.701 231.799 480.771C227.469 478.601 223.199 476.331 218.909 474.111H219.969C218.339 474.811 217.239 476.221 217.429 478.031C217.489 478.621 216.889 479.051 216.369 479.081C212.459 479.321 208.539 479.501 204.619 479.651C199.119 479.851 193.439 480.261 187.959 479.621C187.219 479.541 186.329 479.471 185.679 479.071C184.989 478.651 184.579 477.811 184.069 477.221C183.479 476.551 182.859 475.891 182.219 475.281H183.709C182.959 476.061 183.02 477.211 183.06 478.221C183.12 479.691 183.229 481.141 183.359 482.611C183.609 485.521 183.989 488.421 184.479 491.301L183.989 490.671L185.849 492.011C186.939 492.801 185.889 494.631 184.779 493.841C184.139 493.381 183.239 492.931 182.719 492.341C182.089 491.641 182.169 490.201 182.039 489.321C181.869 488.201 181.719 487.081 181.599 485.971C181.309 483.571 181.099 481.171 180.989 478.751C180.899 476.961 180.909 475.171 182.219 473.791C182.619 473.371 183.309 473.401 183.709 473.791C184.159 474.221 184.589 474.671 185.019 475.131C185.559 475.731 186.419 476.931 186.779 477.281C186.779 477.281 186.776 477.274 186.769 477.261C186.879 477.281 186.989 477.331 187.099 477.351C187.409 477.411 187.749 477.481 188.019 477.511C190.319 477.791 192.689 477.761 195.009 477.751C200.769 477.731 206.539 477.481 212.289 477.181C213.649 477.111 214.999 477.031 216.359 476.951L215.31 478.001C215.05 475.591 216.589 473.191 218.839 472.271C219.469 472.021 219.839 472.201 220.419 472.491C221.679 473.121 222.909 473.781 224.169 474.421C226.509 475.631 228.839 476.841 231.189 478.051C233.329 479.161 235.479 480.281 237.779 481.031C240.079 481.781 242.369 482.111 244.699 482.481C247.029 482.851 249.35 483.241 251.56 484.081C253.43 484.801 254.269 485.751 254.479 487.761C254.659 489.381 254.699 491.241 253.849 492.711C253.149 493.891 252.239 494.281 250.949 494.411C247.729 494.721 244.429 494.471 241.199 494.471C231.889 494.471 222.61 494.981 213.31 495.211C203.9 495.441 194.34 495.571 185.05 493.921C183.71 493.691 184.279 491.651 185.609 491.881V491.911V491.941Z" fill="white"/>
<path d="M182.159 492.391C182.259 492.441 182.349 492.431 182.449 492.421L182.529 492.381C182.529 492.381 182.439 492.421 182.399 492.451C182.309 492.501 182.449 492.381 182.339 492.501C182.329 492.511 182.139 492.751 182.239 492.601C182.009 492.931 181.849 493.271 181.759 493.531C181.689 493.701 181.639 493.881 181.599 494.061C181.569 494.161 181.539 494.271 181.519 494.391C181.519 494.411 181.469 494.671 181.489 494.581C181.509 494.491 181.469 494.751 181.469 494.771C181.469 494.891 181.449 494.991 181.449 495.111V495.721C181.449 495.921 181.469 496.131 181.489 496.331V496.441C181.489 496.371 181.489 496.381 181.499 496.441C181.509 496.511 181.539 496.601 181.549 496.671C181.459 496.521 181.599 496.891 181.549 496.671C181.499 496.591 181.329 496.441 181.309 496.441C181.159 496.361 181.099 496.371 181.299 496.411C182.119 496.581 182.529 497.211 182.829 497.941C183.039 498.451 182.599 499.121 182.089 499.241C181.479 499.381 181.019 499.051 180.799 498.501C180.849 498.621 180.699 498.361 180.689 498.341C180.649 498.271 180.659 498.301 180.739 498.401C180.659 498.321 180.689 498.341 180.829 498.451C180.689 498.371 181.049 498.481 180.909 498.481C180.869 498.481 180.829 498.461 180.779 498.451C180.459 498.381 180.169 498.261 179.929 498.001C179.539 497.581 179.469 497.001 179.399 496.451C179.339 495.961 179.329 495.451 179.359 494.941C179.429 493.861 179.689 492.811 180.229 491.871C180.829 490.821 181.989 489.911 183.209 490.571C183.699 490.831 183.889 491.551 183.589 492.021C183.269 492.521 182.669 492.671 182.149 492.401H182.159V492.391Z" fill="white"/>
<path d="M183.67 497.03C185.91 497.86 188.24 497.95 190.62 498.01C192.99 498.07 195.46 498.14 197.89 498.21C202.79 498.35 207.7 498.48 212.61 498.56C222.47 498.72 232.34 498.63 242.18 497.92C244.93 497.72 247.69 497.47 250.43 497.16C251 497.1 251.99 497.19 252.5 496.92C252.91 496.69 252.89 496.28 252.93 495.73C252.99 494.91 252.56 494.4 252.14 493.7C251.42 492.54 253.25 491.48 253.97 492.63C254.88 494.11 255.18 495.07 254.9 496.8C254.5 499.31 252.28 499.06 250.19 499.29C244.71 499.9 239.22 500.28 233.72 500.49C222.73 500.92 211.74 500.69 200.76 500.39C197.73 500.31 194.71 500.22 191.68 500.14C188.66 500.06 185.87 500.08 183.14 499.05C181.88 498.57 182.42 496.54 183.7 497.01H183.67V497.03Z" fill="white"/>
<path d="M151.729 259.6C151.739 262.3 150.849 264.92 149.989 267.45C149.119 269.98 148.199 272.22 147.139 274.53C144.949 279.27 142.249 283.74 139.119 287.91C138.319 288.99 136.479 287.93 137.289 286.84C140.239 282.92 142.809 278.72 144.919 274.29C146.009 272.02 146.959 269.69 147.789 267.32C148.629 264.95 149.629 262.25 149.619 259.6C149.619 258.24 151.719 258.24 151.729 259.6Z" fill="white"/>
<path d="M153.76 270.86C149.99 279.19 145.06 286.92 139.17 293.91C138.3 294.95 136.81 293.45 137.68 292.42C143.46 285.57 148.25 277.94 151.95 269.8C152.51 268.57 154.33 269.64 153.77 270.87H153.76V270.86Z" fill="white"/>
<path d="M117.869 454.391C80.8588 460.701 45.599 476.971 16.779 501.031C9.83899 506.821 2.84891 513.881 1.94891 522.871C1.01891 532.121 7.14902 540.971 15.059 545.861C22.969 550.751 32.4088 552.421 41.6188 553.671C153.429 568.901 266.629 536.841 370.179 491.981C375.979 489.471 381.929 486.791 386.189 482.131C390.449 477.461 392.559 470.241 389.539 464.701C385.529 457.351 375.449 456.601 367.079 456.781C323.639 457.701 280.209 458.621 236.769 459.541" stroke="white" stroke-width="2" stroke-miterlimit="10"/>
</svg>
