<svg width="176" height="47" viewBox="0 0 176 47" fill="none" xmlns="http://www.w3.org/2000/svg">
<path d="M147.452 23.2464H147.449C147.179 22.1988 146.801 21.1729 146.315 20.1625C145.829 19.152 145.199 18.2528 144.422 17.4587C143.927 16.955 143.254 16.4729 142.403 16.0187C141.551 15.5614 140.583 15.172 139.498 14.8476C138.413 14.5231 137.246 14.2635 135.992 14.072C134.741 13.8804 133.478 13.7846 132.202 13.7846C130.927 13.7846 129.627 13.8804 128.367 14.072C127.107 14.2635 125.93 14.5355 124.835 14.8815C123.741 15.2307 122.77 15.6324 121.922 16.0898C121.074 16.5471 120.416 17.0261 119.943 17.5328C119.144 18.3981 118.504 19.3652 118.034 20.4344C117.564 21.5036 117.204 22.5727 116.955 23.6419C116.706 24.7111 116.55 25.7339 116.479 26.7072C116.408 27.6806 116.375 28.5149 116.375 29.2133V31.4103C116.375 32.1303 116.399 33.0203 116.445 34.0771C116.445 34.1018 116.451 34.1265 116.451 34.1512C116.116 34.3737 115.775 34.5807 115.419 34.76C115.087 34.9299 114.721 35.0721 114.322 35.1926C113.922 35.3131 113.519 35.3718 113.117 35.3718C112.693 35.3718 112.361 35.242 112.127 34.9763C111.891 34.7136 111.712 34.3984 111.595 34.04C111.479 33.6784 111.402 33.32 111.365 32.9585C111.331 32.6 111.313 32.3095 111.313 32.0932V5.89253C111.313 4.87281 110.474 4.06012 109.472 4.10956L99.0009 4.65033C98.0636 4.69977 97.326 5.48774 97.326 6.44257V14.3222C97.326 14.8167 96.825 15.1288 96.3886 14.9155C95.9553 14.7023 95.4697 14.4984 94.9349 14.3068C93.9791 13.9607 92.8051 13.7877 91.4129 13.7877C89.7594 13.7877 88.3487 14.0163 87.1809 14.4737C86.013 14.931 85.0203 15.5305 84.2059 16.2752C83.3915 17.0199 82.743 17.8789 82.2574 18.8523C81.7718 19.8257 81.4061 20.8238 81.1602 21.8435C80.9113 22.8663 80.7453 23.8737 80.6654 24.8717C80.5824 25.8698 80.5425 26.7783 80.5425 27.5941V32.9986C80.5425 33.3694 80.5548 33.765 80.5701 34.1759L80.5425 34.1172C80.189 34.3583 79.8233 34.5746 79.4453 34.7662C79.1134 34.9361 78.7477 35.0783 78.3481 35.1988C77.9455 35.3193 77.546 35.378 77.1434 35.378C76.7192 35.378 76.3873 35.2637 76.1507 35.035C75.914 34.8063 75.7358 34.5251 75.619 34.1883C75.5022 33.8515 75.4254 33.4992 75.3885 33.1253C75.3547 32.7545 75.3362 32.4115 75.3362 32.0994V14.4737C75.3362 13.4508 74.6478 12.5207 73.6459 12.5733L65.0436 12.6505C64.4474 12.5764 63.8727 12.5764 63.5193 12.5887C63.3871 12.5918 63.2857 12.598 63.2273 12.6011L63.0798 12.6073C62.7694 12.6165 62.4528 12.6412 62.1393 12.6752H62.1055L62.1025 12.6814C61.8842 12.7061 61.6691 12.7309 61.4509 12.7649C58.4913 13.2376 55.7161 14.7054 53.6354 16.8901C50.4945 20.1965 48.7826 24.9335 48.6812 30.5915C48.6689 31.2991 48.6812 31.9727 48.6904 32.6278V32.6742C48.6966 33.0172 48.7181 33.3756 48.7396 33.7248C48.7703 34.2347 48.8318 35.2111 48.7242 35.6345C48.715 35.6159 48.7089 35.5912 48.7027 35.5665C48.5337 34.6178 48.5152 33.4621 48.4968 32.2385C48.4722 30.5976 48.4445 28.7374 48.0542 26.7752C47.5502 24.2445 46.3424 21.8497 44.6459 20.0327C42.3655 17.5885 39.4212 16.3864 36.354 16.6491C33.5604 16.887 30.9972 18.3455 29.1378 20.7589C27.7856 22.514 26.8267 24.7605 26.4395 27.0811C26.1751 28.6725 26.1321 30.1867 26.0952 31.5247V31.5463C26.0707 32.4455 26.0461 33.3107 25.9539 34.0616C25.8955 33.4591 25.8893 32.7978 25.8801 32.0809C25.874 31.5185 25.8678 30.9345 25.834 30.3288V30.2763C25.7818 29.3863 25.7326 28.4655 25.6404 27.5138C25.0718 21.7446 22.7484 16.6243 18.9221 14.3655C15.9778 12.6258 12.508 12.2272 9.15193 13.2407L9.11198 13.2531C6.45969 14.1894 5.44856 14.8908 2.83008 17.264C2.66719 17.4339 1.82509 18.3579 0.131686 20.8701C-0.0803745 21.1853 -0.0312011 21.6055 0.242326 21.8651L4.20386 26.4415C7.57224 29.3863 9.25642 27.4767 10.369 26.1418L10.3751 26.1356C11.3985 24.8656 12.1515 24.6153 13.2763 24.9953C13.7957 25.1715 14.4319 26.2097 14.6686 28.6076C14.7393 29.3153 14.7792 30.0692 14.8222 30.8665V30.9283C14.9636 33.4807 15.1173 36.373 16.2636 39.3116C18.0677 43.9437 21.5252 46.7093 25.5175 46.7093C28.096 46.7093 30.6561 45.6865 32.7244 43.8324C34.5838 42.1638 35.9268 39.9297 36.5108 37.5349C37.0117 35.483 37.064 33.5487 37.1101 31.8429V31.8306C37.1377 30.8479 37.1623 29.9147 37.276 29.1175C37.4389 30.0538 37.4574 31.194 37.4758 32.3961V32.4084C37.4973 33.9473 37.525 35.6932 37.8538 37.5349C38.3025 40.0285 39.5841 42.3245 41.4681 43.9993C43.3766 45.6926 45.8261 46.6846 48.3616 46.7896C48.5398 46.7989 48.7273 46.802 48.9178 46.802H48.9332L49.2713 46.7896C51.4441 46.7896 53.2144 46.2612 55.003 45.087C57.0745 43.7274 58.5128 41.6725 59.1582 39.1448C59.7759 36.7345 59.736 34.4819 59.7053 32.498V32.4857C59.696 31.8893 59.6868 31.3238 59.696 30.7861C59.7391 28.3264 60.2738 26.3086 61.2081 25.0201C61.2696 25.122 61.3095 25.2395 61.3095 25.3692V30.9067C61.3095 31.4598 61.2972 32.0191 61.2727 32.5815C61.2511 33.147 61.2388 33.6692 61.2388 34.1512C61.2388 34.8959 61.2727 35.7241 61.3464 36.6387C61.4171 37.5503 61.5831 38.4773 61.8412 39.4136C62.0994 40.3499 62.4713 41.2646 62.9568 42.1514C63.4394 43.0414 64.0848 43.8262 64.8869 44.5122C65.689 45.1982 66.6817 45.7514 67.8619 46.1685C69.042 46.5888 70.4681 46.7989 72.1461 46.7989C72.9237 46.7989 73.6797 46.7155 74.4142 46.5455C75.1457 46.3756 75.8556 46.15 76.5379 45.8595C77.2233 45.5721 77.8717 45.2477 78.4864 44.8861C79.1011 44.5246 79.6789 44.1538 80.2198 43.7675C80.7638 43.372 81.2924 42.9487 81.8056 42.4975C82.1037 42.2349 82.5555 42.2874 82.7737 42.6211C83.1702 43.236 83.6404 43.7984 84.1875 44.3083C84.9896 45.053 85.9761 45.6525 87.144 46.1098C88.3119 46.5671 89.7225 46.7958 91.376 46.7958C92.7436 46.7958 93.9023 46.6228 94.8458 46.2736C95.7893 45.9244 96.5699 45.5474 97.1815 45.1364C97.8884 44.6575 98.457 44.092 98.8811 43.4431C99.0686 43.131 99.213 42.8065 99.3052 42.4697C99.6832 43.0939 100.144 43.6656 100.685 44.1816C101.229 44.6976 101.853 45.155 102.563 45.5505C103.273 45.946 104.084 46.2519 105.006 46.4713C105.928 46.6876 106.964 46.7958 108.123 46.7958C108.9 46.7958 109.656 46.7124 110.388 46.5424C111.119 46.3725 111.826 46.1469 112.511 45.8564C113.197 45.569 113.845 45.2446 114.46 44.883C115.074 44.5215 115.652 44.1507 116.196 43.7644C116.879 43.27 117.536 42.7324 118.169 42.1545C118.44 41.9073 118.858 41.9166 119.091 42.2009C119.472 42.6675 119.909 43.0939 120.404 43.4771C122.005 44.7502 123.83 45.6216 125.877 46.0882C127.924 46.5579 130.035 46.7896 132.202 46.7896C133.432 46.7896 134.639 46.7062 135.832 46.5362C137.024 46.3663 138.146 46.1376 139.194 45.8502C140.245 45.5629 141.195 45.2199 142.043 44.8243C142.894 44.4257 143.589 43.99 144.133 43.508C144.84 42.859 145.424 42.1916 145.885 41.5087C146.346 40.8227 146.718 40.1274 147 39.4198C147.283 38.7122 147.483 37.9829 147.603 37.2382C147.609 37.1919 147.618 37.1424 147.624 37.093C147.793 35.9898 146.908 35.0072 145.811 35.0659C145.344 35.0906 144.867 35.1184 144.379 35.1462C143.315 35.1926 142.126 35.2482 140.801 35.3069C139.48 35.3656 138.112 35.4336 136.695 35.5047C136.434 35.5047 136.136 35.5356 135.792 35.5943C135.451 35.653 135.094 35.7086 134.728 35.755C134.363 35.8044 134.009 35.8508 133.665 35.9002C133.324 35.9496 133.035 35.9713 132.798 35.9713C132.23 35.9713 131.79 35.894 131.471 35.7364C131.151 35.5788 130.918 35.3749 130.764 35.1246C130.61 34.8712 130.515 34.59 130.481 34.2779C130.444 33.9658 130.429 33.6537 130.429 33.3416L146.53 32.8101C147.308 32.7854 147.944 32.1829 148.03 31.3949C148.051 30.987 148.076 30.5606 148.101 30.1156C148.125 29.6706 148.137 29.2689 148.137 28.9074C148.137 28.1627 148.088 27.2913 147.996 26.2963C147.901 25.2982 147.719 24.2785 147.449 23.2309L147.452 23.2464ZM97.326 35.2637C96.991 35.3378 96.6806 35.3718 96.3947 35.3718C95.9645 35.3718 95.6233 35.174 95.3713 34.7754C95.1193 34.3768 94.9349 33.9133 94.815 33.3849C94.6952 32.8534 94.6184 32.3188 94.5815 31.775C94.5446 31.2311 94.5292 30.8294 94.5292 30.5637V29.9858C94.5292 29.7201 94.5477 29.3245 94.5815 28.793C94.6184 28.2616 94.6952 27.7332 94.815 27.2017C94.9349 26.6733 95.1193 26.2067 95.3713 25.8111C95.6233 25.4125 95.9645 25.2147 96.3947 25.2147C96.5392 25.2147 96.6867 25.2271 96.8435 25.2518C96.9971 25.2765 97.16 25.3105 97.329 25.36V35.2698L97.326 35.2637ZM130.364 27.1182C130.386 26.7598 130.429 26.3859 130.487 25.9996C130.546 25.6165 130.647 25.2735 130.788 24.9737C130.93 24.674 131.114 24.4268 131.339 24.2352C131.563 24.0436 131.852 23.9478 132.205 23.9478C132.534 23.9478 132.814 24.0312 133.038 24.2012C133.262 24.3712 133.447 24.5906 133.588 24.8687C133.73 25.1468 133.837 25.465 133.908 25.8235C133.979 26.185 134.025 26.5435 134.049 26.905L130.367 27.1213L130.364 27.1182Z" fill="#CCFE64"/>
<path d="M63.0227 9.54214C64.295 10.5062 66.179 10.9883 68.6745 10.9883C71.1701 10.9883 73.054 10.5062 74.3264 9.54214C75.5988 8.57804 76.2349 7.22767 76.2349 5.49415C76.2349 3.76062 75.5988 2.37935 74.3264 1.42761C73.054 0.475871 71.1701 0 68.6745 0C66.179 0 64.295 0.475871 63.0257 1.42761C61.7534 2.37935 61.1172 3.7359 61.1172 5.49415C61.1172 7.2524 61.7534 8.57804 63.0257 9.54214H63.0227Z" fill="#CCFE64"/>
<path d="M173.778 14.2944C173.725 14.2851 173.676 14.2727 173.624 14.2604C173.138 14.1368 172.567 14.0255 171.912 13.9266C171.258 13.8278 170.578 13.7783 169.871 13.7783C168.827 13.7783 167.892 13.8896 167.066 14.112C166.239 14.3345 165.523 14.625 164.917 14.9834C164.309 15.3419 163.802 15.7374 163.387 16.17C162.975 16.6026 162.658 17.0414 162.44 17.4864V16.649C162.44 15.07 161.14 13.8123 159.588 13.8957L150.399 14.3932C149.08 14.4643 148.051 15.5737 148.051 16.9147V44.9355C148.051 46.0757 148.957 46.9997 150.079 46.9997H152.738C158.098 46.9997 162.44 42.5778 162.44 37.1238V28.0514C162.44 27.6558 162.572 27.2418 162.843 26.8091C163.11 26.3765 163.479 25.9748 163.952 25.604C164.426 25.2332 164.997 24.9304 165.664 24.6955C166.331 24.4607 167.066 24.3433 167.868 24.3433C168.596 24.3433 169.288 24.3742 169.942 24.436C170.575 24.4947 171.128 24.5503 171.605 24.5967C171.639 24.5997 171.672 24.6059 171.709 24.6121C171.715 24.6121 171.722 24.6121 171.728 24.6152C172.564 24.7573 173.357 24.198 173.526 23.3544L174.967 16.1762C175.139 15.3234 174.614 14.4767 173.778 14.2913V14.2944Z" fill="#CCFE64"/>
</svg>
