<svg width="323" height="801" viewBox="0 0 323 801" fill="none" xmlns="http://www.w3.org/2000/svg">
<path d="M182.996 428.11L183.492 428.142L182.996 428.11C182.661 435.913 183.262 443.483 184.778 450.613L185.263 450.517L184.778 450.613C189.559 473.07 203.398 491.25 225.847 504.649C230.433 507.386 235.075 509.833 239.55 512.193L239.655 512.248L239.877 511.803L239.655 512.248C249.744 517.565 259.183 522.543 266.551 529.907C270.4 533.754 273.888 539.129 276.031 544.974C278.175 550.82 278.961 557.096 277.463 562.76L277.463 562.761L277.463 562.761L277.462 562.762L277.462 562.763L277.462 562.763L277.462 562.764L277.462 562.764L277.462 562.765L277.462 562.765L277.461 562.766L277.461 562.767L277.461 562.767L277.461 562.768L277.461 562.768L277.461 562.769L277.46 562.769L277.46 562.77L277.46 562.771L277.46 562.771L277.46 562.772L277.46 562.772L277.46 562.773L277.459 562.773L277.459 562.774L277.459 562.775L277.459 562.775L277.459 562.776L277.459 562.776L277.459 562.777L277.458 562.777L277.458 562.778L277.458 562.779L277.458 562.779L277.458 562.78L277.458 562.78L277.457 562.781L277.457 562.781L277.457 562.782L277.457 562.783L277.457 562.783L277.457 562.784L277.457 562.784L277.456 562.785L277.456 562.785L277.456 562.786L277.456 562.787L277.456 562.787L277.456 562.788L277.456 562.788L277.455 562.789L277.455 562.789L277.455 562.79L277.455 562.791L277.455 562.791L277.455 562.792L277.454 562.792L277.454 562.793L277.454 562.793L277.454 562.794L277.454 562.795L277.454 562.795L277.454 562.796L277.453 562.796L277.453 562.797L277.453 562.798L277.453 562.798L277.453 562.799L277.453 562.799L277.452 562.8L277.452 562.8L277.452 562.801L277.452 562.802L277.452 562.802L277.452 562.803L277.452 562.803L277.451 562.804L277.451 562.804L277.451 562.805L277.451 562.806L277.451 562.806L277.451 562.807L277.45 562.807L277.45 562.808L277.45 562.808L277.45 562.809L277.45 562.81L277.45 562.81L277.45 562.811L277.449 562.811L277.449 562.812L277.449 562.812L277.449 562.813L277.449 562.814L277.449 562.814L277.449 562.815L277.448 562.815L277.448 562.816L277.448 562.816L277.448 562.817L277.448 562.818L277.448 562.818L277.447 562.819L277.447 562.819L277.447 562.82L277.447 562.821L277.447 562.821L277.447 562.822L277.447 562.822L277.446 562.823L277.446 562.823L277.446 562.824L277.446 562.825L277.446 562.825L277.446 562.826L277.445 562.826L277.445 562.827L277.445 562.827L277.445 562.828L277.445 562.829L277.445 562.829L277.445 562.83L277.444 562.83L277.444 562.831L277.444 562.832L277.444 562.832L277.444 562.833L277.444 562.833L277.443 562.834L277.443 562.834L277.443 562.835L277.443 562.836L277.443 562.836L277.443 562.837L277.443 562.837L277.442 562.838L277.442 562.838L277.442 562.839L277.442 562.84L277.442 562.84L277.442 562.841L277.441 562.841L277.441 562.842L277.441 562.842L277.441 562.843L277.441 562.844L277.441 562.844L277.441 562.845L277.44 562.845L277.44 562.846L277.44 562.847L277.44 562.847L277.44 562.848L277.44 562.848L277.439 562.849L277.439 562.849L277.439 562.85L277.439 562.851L277.439 562.851L277.439 562.852L277.439 562.852L277.438 562.853L277.438 562.853L277.438 562.854L277.438 562.855L277.438 562.855L277.438 562.856L277.438 562.856L277.437 562.857L277.437 562.858L277.437 562.858L277.437 562.859L277.437 562.859L277.437 562.86L277.436 562.86L277.436 562.861L277.436 562.862L277.436 562.862L277.436 562.863L277.436 562.863L277.436 562.864L277.435 562.864L277.435 562.865L277.435 562.866L277.435 562.866L277.435 562.867L277.435 562.867L277.434 562.868L277.434 562.869L277.434 562.869L277.434 562.87L277.434 562.87L277.434 562.871L277.434 562.871L277.433 562.872L277.433 562.873L277.433 562.873L277.433 562.874L277.433 562.874L277.433 562.875L277.432 562.876L277.432 562.876L277.432 562.877L277.432 562.877L277.432 562.878L277.432 562.878L277.432 562.879L277.431 562.88L277.431 562.88L277.431 562.881L277.431 562.881L277.431 562.882L277.431 562.882L277.43 562.883L277.43 562.884L277.43 562.884L277.43 562.885L277.43 562.885L277.43 562.886L277.43 562.887L277.429 562.887L277.429 562.888L277.429 562.888L277.429 562.889L277.429 562.889L277.429 562.89L277.428 562.891L277.428 562.891L277.428 562.892L277.428 562.892L277.428 562.893L277.428 562.894L277.428 562.894L277.427 562.895L277.427 562.895L277.427 562.896L277.427 562.896L277.427 562.897L277.427 562.898L277.426 562.898L277.426 562.899L277.426 562.899L277.426 562.9L277.426 562.9L277.426 562.901L277.426 562.902L277.425 562.902L277.425 562.903L277.425 562.903L277.425 562.904L277.425 562.905L277.425 562.905L277.424 562.906L277.424 562.906L277.424 562.907L277.424 562.907L277.424 562.908L277.424 562.909L277.424 562.909L277.423 562.91L277.423 562.91L277.423 562.911L277.423 562.912L277.423 562.912L277.423 562.913L277.422 562.913L277.422 562.914L277.422 562.914L277.422 562.915L277.422 562.916L277.422 562.916L277.422 562.917L277.421 562.917L277.421 562.918L277.421 562.918L277.421 562.919L277.421 562.92L277.421 562.92L277.42 562.921L277.42 562.921L277.42 562.922L277.42 562.923L277.42 562.923L277.42 562.924L277.42 562.924L277.419 562.925L277.419 562.925L277.419 562.926L277.419 562.927L277.419 562.927L277.419 562.928L277.418 562.928L277.418 562.929L277.418 562.93L277.418 562.93L277.418 562.931L277.418 562.931L277.418 562.932L277.417 562.932L277.417 562.933L277.417 562.934L277.417 562.934L277.417 562.935L277.417 562.935L277.416 562.936L277.416 562.936L277.416 562.937L277.416 562.938L277.416 562.938L277.416 562.939L277.416 562.939L277.415 562.94L277.415 562.941L277.415 562.941L277.415 562.942L277.415 562.942L277.415 562.943L277.414 562.943L277.414 562.944L277.414 562.945L277.414 562.945L277.414 562.946L277.414 562.946L277.414 562.947L277.413 562.948L277.413 562.948L277.413 562.949L277.413 562.949L277.413 562.95L277.413 562.95L277.412 562.951L277.412 562.952L277.412 562.952L277.412 562.953L277.412 562.953L277.412 562.954L277.412 562.954L277.411 562.955L277.411 562.956L277.411 562.956L277.411 562.957L277.411 562.957L277.411 562.958L277.41 562.959L277.41 562.959L277.41 562.96L277.41 562.96L277.41 562.961L277.41 562.961L277.41 562.962L277.409 562.963L277.409 562.963L277.409 562.964L277.409 562.964L277.409 562.965L277.409 562.965L277.408 562.966L277.408 562.967L277.408 562.967L277.408 562.968L277.408 562.968L277.408 562.969L277.408 562.97L277.407 562.97L277.407 562.971L277.407 562.971L277.407 562.972L277.407 562.972L277.407 562.973L277.407 562.974L277.406 562.974L277.406 562.975L277.406 562.975L277.406 562.976L277.406 562.976L277.406 562.977L277.405 562.978L277.405 562.978L277.405 562.979L277.405 562.979L277.405 562.98L277.405 562.981L277.405 562.981L277.404 562.982L277.404 562.982L277.404 562.983L277.404 562.983L277.404 562.984L277.404 562.985L277.403 562.985L277.403 562.986L277.403 562.986L277.403 562.987L277.403 562.987L277.403 562.988L277.403 562.989L277.402 562.989L277.402 562.99L277.402 562.99L277.402 562.991L277.402 562.992L277.402 562.992L277.401 562.993L277.401 562.993L277.401 562.994L277.401 562.994L277.401 562.995L277.401 562.996L277.401 562.996L277.4 562.997L277.4 562.997L277.4 562.998L277.4 562.998L277.4 562.999L277.4 563L277.399 563L277.399 563.001L277.399 563.001L277.399 563.002L277.399 563.002L277.399 563.003L277.399 563.004L277.398 563.004L277.398 563.005L277.398 563.005L277.398 563.006L277.398 563.006L277.398 563.007L277.398 563.008L277.397 563.008L277.397 563.009L277.397 563.009L277.397 563.01L277.397 563.011L277.397 563.011L277.396 563.012L277.396 563.012L277.396 563.013L277.396 563.013L277.396 563.014L277.396 563.015L277.396 563.015L277.395 563.016L277.395 563.016L277.395 563.017L277.395 563.017L277.395 563.018L277.395 563.019L277.394 563.019L277.394 563.02L277.394 563.02L277.394 563.021L277.394 563.021L277.394 563.022L277.394 563.023L277.393 563.023L277.393 563.024L277.393 563.024L277.393 563.025L277.393 563.025L277.393 563.026L277.392 563.027L277.392 563.027L277.392 563.028L277.392 563.028L277.392 563.029L277.392 563.029L277.392 563.03L277.391 563.031L277.391 563.031L277.391 563.032L277.391 563.032L277.391 563.033L277.391 563.033L277.391 563.034L277.39 563.035L277.39 563.035L277.39 563.036L277.39 563.036L277.39 563.037L277.39 563.037L277.389 563.038L277.389 563.039L277.389 563.039L277.389 563.04L277.389 563.04L277.389 563.041L277.389 563.041L277.388 563.042L277.388 563.043L277.388 563.043L277.388 563.044L277.388 563.044L277.388 563.045L277.388 563.045L277.387 563.046L277.387 563.047L277.387 563.047L277.387 563.048L277.387 563.048L277.387 563.049L277.386 563.049L277.386 563.05L277.386 563.051L277.386 563.051L277.386 563.052L277.386 563.052L277.386 563.053C275.381 570.24 269.203 577.168 262.021 580.254C254.574 583.454 245.422 583.427 235.527 580.113C221.388 575.373 208.579 565.504 194.926 554.976L194.882 554.942C184.849 547.205 174.441 539.18 162.963 532.887C146.809 524.029 128.526 520.55 111.48 523.104L111.563 523.602L111.48 523.104C90.1758 526.299 72.4586 538.458 60.2507 558.231C54.9574 566.802 50.9892 576.256 48.1156 587.123C46.8383 591.953 45.7733 597.131 44.9485 602.511L44.9485 602.511C42.8285 616.354 42.4241 630.141 42.0341 643.434L42.033 643.471L42.0305 643.559C41.8218 650.673 41.625 657.382 41.1788 663.849C40.2951 676.62 38.1227 689.621 34.719 702.492C28.4984 726.016 18.4043 748.192 5.5345 766.613L1.42253 772.498L1.19294 772.826L1.46655 773.129L5.60478 777.708L5.60485 777.708L20.7474 794.458L20.7475 794.458L24.8856 799.037L25.305 799.501L25.657 798.997L29.769 793.113L29.769 793.113C42.5966 774.749 53.0559 754.027 60.8642 731.525L60.8642 731.524C63.1051 725.059 65.1242 718.447 66.8632 711.871C71.1558 695.638 73.9089 679.05 75.048 662.574C75.5662 655.078 75.7884 647.557 76.003 640.29L76.0106 640.034L76.0107 640.025L76.0109 640.008C76.0109 640.006 76.011 640.005 76.011 640.003C76.4792 623.982 76.9222 608.936 80.2192 596.468C81.6774 590.954 83.5846 586.339 86.0478 582.352L86.0479 582.352C93.318 570.577 104.455 566.868 112.553 565.833L112.486 565.368L112.553 565.833C123.416 564.443 135.799 567.005 146.509 572.878C156.122 578.148 165.212 585.155 174.873 592.609L175.169 592.211C189.937 603.602 205.204 615.373 223.497 621.503C239.738 626.947 255.125 626.633 269.228 620.571C287.667 612.645 302.839 594.397 308.819 572.952L309.297 573.1C309.297 573.099 309.297 573.099 309.298 573.098C309.396 572.752 309.488 572.401 309.579 572.06L309.579 572.057C313.463 557.373 313.11 541.834 308.562 527.121C304.751 514.792 297.966 503.31 289.443 494.793C278.938 484.296 267.094 478.057 255.713 472.061L255.712 472.061C251.301 469.737 247.15 467.549 243.15 465.161C235.731 460.733 229.797 455.821 225.5 450.569L225.12 450.885L225.5 450.568C221.47 445.644 218.843 440.376 217.681 434.905L217.681 434.905C216.36 428.705 216.722 421.621 218.781 413.834C222.351 400.336 231.028 384.934 242.6 371.608C248.31 365.031 254.419 358.802 260.901 352.194L260.929 352.165C276.277 336.517 292.191 320.29 304.17 297.754C309.387 287.941 313.546 277.234 316.537 265.925C321.091 248.701 322.803 230.384 321.487 212.955C320.142 195.169 315.646 178.523 308.472 164.809C297.627 144.075 282.167 130.736 267.289 117.897L267.278 117.887L265.144 116.045C265.143 116.045 265.143 116.045 265.143 116.045C251.522 104.26 238.827 92.4199 232.148 76.4106C227.675 65.6909 226.71 53.4945 229.496 42.9573C230.463 39.3014 231.834 36.0656 233.45 33.6006L233.034 33.3168L233.45 33.6005L237.41 27.5547L237.633 27.2151L237.343 26.9203L233.061 22.5519L232.714 22.8997L233.06 22.5517L217.392 6.58235L217.043 6.93316L217.392 6.58227L213.108 2.21784L212.676 1.77727L212.343 2.28496L208.383 8.33078L208.385 8.33323C203.503 15.7859 199.789 24.2507 197.346 33.4894C195.463 40.6083 194.358 48.1335 194.062 55.8472C193.475 71.1294 196.178 86.8053 201.682 99.9878C211.441 123.368 227.896 138.842 243.843 152.635L245.996 154.496L246.311 154.12L245.996 154.496C259.279 165.962 271.73 176.718 279.473 191.512C285.384 202.807 288.374 217.548 287.874 233.017C287.616 240.959 286.454 248.887 284.42 256.58C282.517 263.777 279.916 270.499 276.697 276.557C268.129 292.676 255.275 305.788 241.601 319.729L241.546 319.785C234.913 326.549 228.046 333.551 221.45 341.15C212.609 351.333 200.291 367.893 191.844 388.939C189.78 394.082 188.045 399.291 186.688 404.422C184.57 412.435 183.329 420.404 182.996 428.11Z" stroke="#CCFE64"/>
</svg>
