<svg width="24" height="24" viewBox="0 0 24 24" fill="none" xmlns="http://www.w3.org/2000/svg">
<circle cx="12" cy="12" r="11.5" stroke="white"/>
<path d="M17.7283 8.36625C17.5788 7.82875 17.1381 7.405 16.5791 7.26125C15.5651 7 11.5 7 11.5 7C11.5 7 7.4349 7 6.4209 7.26125C5.8619 7.405 5.4212 7.82875 5.2717 8.36625C5 9.34125 5 12 5 12C5 12 5 14.6587 5.2717 15.6337C5.4212 16.1712 5.8619 16.595 6.4209 16.7388C7.4349 17 11.5 17 11.5 17C11.5 17 15.5651 17 16.5791 16.7388C17.1387 16.595 17.5788 16.1712 17.7283 15.6337C18 14.6587 18 12 18 12C18 12 18 9.34125 17.7283 8.36625ZM10.2 13.6237V10.3763C10.2 10.1356 10.471 9.98563 10.6875 10.1056L13.6125 11.7294C13.8289 11.8494 13.8289 12.1506 13.6125 12.2706L10.6875 13.8944C10.471 14.015 10.2 13.8644 10.2 13.6237Z" fill="white"/>
</svg>
